SplineFontDB: 3.0
FontName: annick
FullName: annick
FamilyName: Annick
Weight: Regular
Copyright: 
Version: 1
ItalicAngle: 0
UnderlinePosition: 0
UnderlineWidth: 0
Ascent: 800
Descent: 200
InvalidEm: 0
LayerCount: 2
Layer: 0 0 "Back" 1
Layer: 1 0 "Fore" 0
XUID: [1021 695 1480565138 2635405]
OS2Version: 0
OS2_WeightWidthSlopeOnly: 0
OS2_UseTypoMetrics: 0
CreationTime: 1511814444
ModificationTime: 1511815132
PfmFamily: 17
TTFWeight: 400
TTFWidth: 5
LineGap: 90
VLineGap: 90
OS2TypoAscent: 0
OS2TypoAOffset: 1
OS2TypoDescent: 0
OS2TypoDOffset: 1
OS2TypoLinegap: 90
OS2WinAscent: 0
OS2WinAOffset: 1
OS2WinDescent: 0
OS2WinDOffset: 1
HheadAscent: 0
HheadAOffset: 1
HheadDescent: 0
HheadDOffset: 1
OS2Vendor: 'PfEd'
MarkAttachClasses: 1
DEI: 91125
Encoding: Original
UnicodeInterp: none
NameList: AGL For New Fonts
DisplaySize: -48
AntiAlias: 1
FitToEm: 0
WidthSeparation: 150
WinInfo: 0 33 13
BeginPrivate: 0
EndPrivate
BeginChars: 145 145

StartChar: a
Encoding: 0 97 0
Width: 848
Flags: W
HStem: 424.023 72.0557<248.515 395.771>
VStem: 449.479 83.2793<235.143 372.814>
LayerCount: 2
Fore
SplineSet
321.391601562 496.079101562 m 2
 281.849609375 496.150390625 235.590820312 486.137695312 213.080078125 450.502929688 c 1
 211.375976562 432.014648438 258.375 413.3359375 219.670898438 400.923828125 c 0
 202.118164062 395.822265625 177.435546875 401.06640625 182.521484375 423.870117188 c 1
 153.473632812 427.711914062 167.66015625 381.651367188 138.484375 382.53515625 c 1
 131.704101562 356.765625 105.453125 341.337890625 96.1435546875 314.426757812 c 1
 78.3173828125 288.272460938 76.287109375 256.454101562 63.05859375 228.525390625 c 0
 47.197265625 183.504882812 52.47265625 133.337890625 62.5859375 87.556640625 c 0
 71.466796875 53.0625 96.1015625 21.62109375 132.119140625 13.416015625 c 0
 195.098632812 -7.5888671875 264.25 9.123046875 323.775390625 33.583984375 c 1
 350.436523438 49.236328125 384.588867188 49.7333984375 406.865234375 72.3076171875 c 0
 433.5859375 99.591796875 471.576171875 109.50390625 501.975585938 132.209960938 c 0
 521.4453125 142.358398438 547.993164062 145.612304688 557.473632812 123.956054688 c 1
 591.258789062 115.422851562 610.3984375 81.98046875 639.521484375 64.7490234375 c 0
 664.893554688 47.5927734375 692.443359375 28.095703125 724.5234375 30.22265625 c 1
 751.39453125 17.11328125 791.87109375 32.857421875 803.76953125 55.1201171875 c 1
 781.045898438 44.3203125 770.228515625 67.7978515625 747.004882812 68.8505859375 c 1
 731.840820312 95.48046875 698.216796875 103.192382812 677.171875 124.4609375 c 0
 653.840820312 146.352539062 638.288085938 175.817382812 611.614257812 194.614257812 c 0
 588.779296875 214.923828125 559.69140625 224.509765625 531.478515625 234.348632812 c 1
 516.9296875 251.05078125 541.94921875 283.169921875 532.758789062 307.251953125 c 1
 531.815429688 352.677734375 527.616210938 405.619140625 487.107421875 434.3046875 c 0
 438.599609375 468.369140625 382.286132812 497.715820312 321.381835938 496.079101562 c 2
 321.391601562 496.079101562 l 2
325.845703125 432.48046875 m 2
 372.243164062 426.987304688 411.122070312 395.0625 440.3515625 360.497070312 c 1
 455.424804688 332.127929688 449.920898438 297.783203125 449.479492188 266.845703125 c 0
 447.34375 226.0859375 424.221679688 187.219726562 387.109375 169.092773438 c 1
 363.188476562 149.125 341.633789062 126.697265625 310.826171875 115.93359375 c 0
 268.015625 97.34375 221.034179688 79.7353515625 173.619140625 85.41015625 c 1
 150.046875 93.8427734375 132.188476562 121.64453125 112.537109375 129.247070312 c 1
 126.951171875 162.596679688 122.180664062 201.088867188 138.119140625 234.400390625 c 0
 155.483398438 280.819335938 176.384765625 328.71484375 215.200195312 361.10546875 c 1
 223.739257812 394.93359375 262.509765625 411.890625 288.325195312 424.0234375 c 1
 301.462890625 424.495117188 311.990234375 435.209960938 325.845703125 432.48046875 c 2
EndSplineSet
Validated: 524325
EndChar

StartChar: b
Encoding: 1 98 1
Width: 535
Flags: W
VStem: 81.0977 70.0811<465.406 722.525>
LayerCount: 2
Fore
SplineSet
119.194335938 12.185546875 m 1
 89.5966796875 21.423828125 72.47265625 55.236328125 84.451171875 83.1904296875 c 1
 103.087890625 92.3720703125 122.953125 124.765625 129.4296875 86.83203125 c 1
 153.298828125 54.857421875 196.944335938 61.2314453125 231.6796875 62.646484375 c 0
 275.606445312 65.791015625 320.27734375 65.6953125 363.422851562 74.890625 c 0
 379.940429688 79.197265625 378.409179688 90.923828125 364.196289062 93.5419921875 c 1
 369.909179688 109.787109375 362.017578125 105.225585938 355.0625 111.208007812 c 1
 371.455078125 127.033203125 377.3984375 154.19921875 390.499023438 175.81640625 c 1
 395.365234375 201.836914062 406.904296875 236.05078125 384.217773438 256.59765625 c 0
 363.9296875 278.150390625 335.833007812 295.311523438 305.301757812 286.274414062 c 0
 237.719726562 270.668945312 187.778320312 218.639648438 135.002929688 177.166015625 c 0
 111.861328125 154.887695312 62.7158203125 154.081054688 55.2275390625 191.671875 c 0
 44.296875 242.672851562 57.8583984375 294.857421875 59.185546875 346.233398438 c 0
 64.4072265625 437.120117188 73.7158203125 527.729492188 79.1162109375 618.580078125 c 1
 76.1240234375 647.42578125 94.1103515625 670.45703125 81.09765625 698.915039062 c 0
 71.4833984375 725.547851562 98.103515625 763.112304688 125.887695312 746.168945312 c 1
 114.663085938 712.638671875 167.349609375 711.780273438 151.178710938 678.622070312 c 1
 144.670898438 587.728515625 147.374023438 495.790039062 130.705078125 405.923828125 c 1
 126.352539062 357.596679688 121.9453125 308.83984375 125.040039062 260.3359375 c 1
 146.819335938 259.828125 168.643554688 291.518554688 190.0546875 303.05859375 c 0
 235.8515625 337.693359375 296.70703125 360.869140625 353.692382812 341.87890625 c 0
 390.950195312 328.293945312 433.154296875 311.265625 450.850585938 272.904296875 c 0
 471.362304688 237.825195312 482.817382812 193.762695312 464.58203125 155.225585938 c 0
 448.435546875 116.248046875 420.622070312 81.7900390625 386.724609375 56.89453125 c 1
 358.581054688 48.857421875 342.07421875 18.0341796875 309.614257812 18.8369140625 c 1
 253.741210938 7.5078125 195.331054688 -9.515625 138.389648438 4.3076171875 c 0
 131.771484375 6.2607421875 125.061523438 8.96484375 119.190429688 12.1845703125 c 1
 119.194335938 12.185546875 l 1
EndSplineSet
Validated: 524321
EndChar

StartChar: c
Encoding: 2 99 2
Width: 664
Flags: W
HStem: 8.76465 68.1855<289.366 543.434> 57.4561 29.4678<565.934 615.242>
LayerCount: 2
Fore
SplineSet
249.252929688 0.9228515625 m 2x80
 197.04296875 15.609375 147.5234375 40.099609375 102.458007812 70.1162109375 c 0
 65.7685546875 98.564453125 55.94921875 148.174804688 51.080078125 191.829101562 c 0
 47.4169921875 233.166992188 52.37109375 277.111328125 76.875 311.838867188 c 1
 83.0224609375 336.74609375 95.9453125 358.915039062 114.94140625 376.629882812 c 0
 132.982421875 393.248046875 139.201171875 416.393554688 160.865234375 429.327148438 c 0
 186.295898438 448.421875 218.053710938 453.819335938 246.806640625 465.43359375 c 0
 253.620117188 472.369140625 243.404296875 481.8828125 262.75 478.65625 c 0
 285.087890625 476.940429688 307.008789062 482.640625 327.400390625 491.091796875 c 1
 364.008789062 495.671875 402.529296875 489.59765625 436.14453125 474.47265625 c 1
 452.08203125 455.810546875 465.541992188 432.391601562 480.461914062 411.538085938 c 0
 485.90625 400.110351562 516.458984375 354.950195312 486.428710938 367.190429688 c 1
 454.204101562 375.178710938 421.252929688 381.99609375 394.702148438 403.2421875 c 1
 368.162109375 415.119140625 340.799804688 428.564453125 311.643554688 431.377929688 c 1
 289.958007812 406.372070312 256.92578125 394.014648438 235.23828125 368.74609375 c 1
 208.125976562 362.798828125 192.965820312 336.202148438 178.80859375 314.486328125 c 0
 155.032226562 275.8125 139.924804688 229.719726562 149.630859375 184.137695312 c 0
 155.014648438 140.657226562 189.584960938 106.11328125 230.622070312 93.859375 c 0
 317.765625 66.1259765625 410.326171875 78.5380859375 500.114257812 76.9501953125 c 0x80
 520.91796875 73.689453125 540.622070312 79.126953125 556.325195312 86.923828125 c 1
 574.854492188 73.9306640625 604.580078125 86.455078125 617.115234375 70.736328125 c 1
 620.771484375 42.5078125 588.217773438 38.37109375 573.780273438 57.4560546875 c 1x40
 559.185546875 60.6103515625 575.192382812 33.80078125 554.3828125 35.451171875 c 1
 528.390625 23.8486328125 502.864257812 10.1728515625 473.743164062 8.7646484375 c 0
 411.581054688 1.171875 348.74609375 1.751953125 286.4453125 -4.013671875 c 0
 273.935546875 -3.5439453125 261.482421875 -1.615234375 249.254882812 0.9228515625 c 2
 249.252929688 0.9228515625 l 2x80
EndSplineSet
Validated: 524321
EndChar

StartChar: d
Encoding: 3 100 3
Width: 658
Flags: W
LayerCount: 2
Fore
SplineSet
554.911132812 745.901367188 m 1
 518.396484375 733.366210938 498.002929688 694.428710938 488.116210938 659.212890625 c 1
 485.862304688 626.750976562 469.498046875 598.375976562 464.938476562 566.58203125 c 0
 459.299804688 525.138671875 448.395507812 483.006835938 453.865234375 441.219726562 c 1
 431.153320312 429.58984375 454.255859375 377.155273438 413.985351562 389.649414062 c 1
 389.8828125 410.080078125 348.28515625 416.484375 320.676757812 398.033203125 c 0
 306.778320312 386.849609375 287.42578125 387.657226562 277.743164062 372.47265625 c 1
 236.877929688 351.103515625 203.930664062 316.680664062 169.737304688 286.076171875 c 0
 135.188476562 250.76953125 101.387695312 213.237304688 76.98046875 170.133789062 c 1
 74.5048828125 151.278320312 63.5576171875 130.237304688 53.9189453125 109.16796875 c 0
 39.3720703125 61.3095703125 81.703125 14.30078125 125.431640625 1.640625 c 0
 175.295898438 -8.431640625 230.828125 -4.0693359375 273.407226562 26.0625 c 1
 308.25390625 39.525390625 330.048828125 72.1044921875 362.38671875 88.4794921875 c 0
 385.590820312 98.439453125 404.643554688 146.909179688 430.69140625 133.831054688 c 1
 455.912109375 99.3994140625 467.5546875 50.2978515625 510.094726562 32.3154296875 c 1
 532.197265625 30.57421875 551.806640625 52.3896484375 532.485351562 69.7333984375 c 1
 528.463867188 101.775390625 516.0703125 131.137695312 511.048828125 162.98828125 c 0
 505.15625 196.323242188 498.135742188 230.686523438 508.313476562 263.966796875 c 1
 519.232421875 338.725585938 566.731445312 401.134765625 584.233398438 473.72265625 c 1
 593.737304688 539.254882812 612.404296875 603.97265625 608.309570312 670.87109375 c 1
 612.141601562 704.095703125 597.033203125 744.776367188 558.532226562 746.083984375 c 2
 554.908203125 745.889648438 l 1
 554.911132812 745.901367188 l 1
355.421875 332.245117188 m 1
 388.874023438 335.180664062 410.119140625 302.651367188 414.306640625 273.143554688 c 1
 425.415039062 246.60546875 398.931640625 237.275390625 393.234375 214.654296875 c 1
 368.034179688 196.36328125 354.870117188 163.317382812 326.524414062 145.500976562 c 1
 300.736328125 122.041992188 272.1171875 101.518554688 238.59765625 90.8583984375 c 1
 209.610351562 76.6982421875 175.13671875 59.7998046875 142.6796875 70.763671875 c 1
 118.1640625 99.81640625 150.250976562 136.576171875 166.340820312 162.01953125 c 1
 179.403320312 196.229492188 210.721679688 218.798828125 234.995117188 245.022460938 c 0
 265.572265625 273.420898438 294.909179688 304.115234375 330.362304688 326.455078125 c 0
 338.327148438 329.703125 346.8046875 331.918945312 355.421875 332.243164062 c 1
 355.421875 332.245117188 l 1
EndSplineSet
Validated: 524329
EndChar

StartChar: e
Encoding: 4 101 4
Width: 567
Flags: W
HStem: 451.367 50.6768<381.017 391.132 391.278 423.873>
LayerCount: 2
Fore
SplineSet
391.131835938 502.043945312 m 1
 374.411132812 502.107421875 357.021484375 499.375976562 357.69140625 478.907226562 c 1
 334.578125 470.348632812 315.913085938 452.126953125 298.165039062 435.06640625 c 0
 285.876953125 422.307617188 272.770507812 404.314453125 267.614257812 393.634765625 c 1
 271.978515625 386.064453125 282.916015625 377.017578125 267.080078125 380.803710938 c 1
 253.321289062 376.522460938 250.5625 358.8046875 253 349.9765625 c 1
 231.708007812 352.6328125 213.670898438 324.400390625 209.655273438 305.009765625 c 0
 195.696289062 266.009765625 177.044921875 228.896484375 161.982421875 190.3203125 c 1
 137.228515625 212.759765625 113.772460938 236.889648438 86.822265625 256.682617188 c 1
 85.6953125 235.721679688 50.01953125 227.796875 44.83203125 203.625976562 c 0
 40.2890625 191.056640625 56.265625 183.091796875 47.1025390625 168.02734375 c 1
 51.076171875 158.313476562 85.080078125 169.853515625 80.5224609375 147.610351562 c 1
 54.4306640625 146.626953125 93.8974609375 119.755859375 97.4677734375 144.681640625 c 1
 87.5166015625 124.744140625 97.4580078125 111.018554688 117.317382812 106.350585938 c 1
 126.942382812 82.4013671875 163.534179688 92.607421875 163.935546875 61.931640625 c 1
 175.302734375 25.6953125 213.48046875 7.0224609375 249.0390625 3.7978515625 c 1
 274.376953125 -3.513671875 299.958984375 -0.353515625 324.845703125 7.3203125 c 0
 369.864257812 19.1748046875 416.326171875 27.7685546875 458.97265625 46.9248046875 c 1
 477.462890625 59.9443359375 495.799804688 65.5537109375 512.431640625 78.6865234375 c 0
 533.856445312 96.1025390625 488.5390625 115.3515625 474.479492188 115.268554688 c 1
 488.337890625 94.296875 452.73046875 110.3046875 441.9140625 99.9599609375 c 1
 414.799804688 91.4814453125 387.896484375 81.0732421875 359.435546875 78.4580078125 c 1
 343.809570312 60.5673828125 320.17578125 72.853515625 303.016601562 60.515625 c 1
 278.68359375 72.865234375 243.192382812 63.7763671875 226.952148438 90.3154296875 c 1
 220.122070312 119.044921875 262.0078125 119.372070312 276.823242188 135.842773438 c 1
 334.928710938 176.985351562 390.150390625 223.146484375 437.426757812 276.52734375 c 0
 450.565429688 296.782226562 459.69140625 318.68359375 474.729492188 338.067382812 c 1
 487.65234375 367.806640625 499.291992188 399.557617188 499.85546875 432.302734375 c 1
 495.224609375 450.99609375 482.926757812 480.354492188 459.951171875 476.690429688 c 1
 465.465820312 483.071289062 454.453125 506.260742188 450.000976562 487.271484375 c 0
 439.942382812 455.509765625 421.82421875 510.333984375 401.239257812 502.392578125 c 0
 397.865234375 502.455078125 394.482421875 502.266601562 391.120117188 502.036132812 c 2
 391.131835938 502.043945312 l 1
414.73828125 451.3671875 m 1
 428.266601562 436.171875 424.732421875 412.040039062 422.455078125 393.028320312 c 1
 409.491210938 370.846679688 401.67578125 346.033203125 385.34375 324.9375 c 0
 350.192382812 280.930664062 309.58984375 240.888671875 264.485351562 207.147460938 c 1
 246.828125 185.431640625 230.33203125 217.793945312 251.48046875 228.185546875 c 1
 258.97265625 252.796875 266.4375 278.359375 278.485351562 301.728515625 c 0
 288.974609375 322.268554688 291.821289062 346.62109375 310.091796875 362.443359375 c 0
 329.638671875 383.391601562 347.88671875 406.5703125 371.170898438 423.38671875 c 1
 387.240234375 429.94140625 395.909179688 451.1328125 414.73828125 451.3671875 c 1
EndSplineSet
Validated: 524325
EndChar

StartChar: f
Encoding: 5 102 5
Width: 418
Flags: W
VStem: 44.4238 322.484
LayerCount: 2
Fore
SplineSet
51.4755859375 -238.713867188 m 1
 38.3466796875 -205.393554688 47.0830078125 -166.795898438 44.423828125 -131.34765625 c 0
 42.2431640625 -53.3095703125 59.9462890625 23.0654296875 73.587890625 99.326171875 c 0
 79.916015625 147.741210938 94.224609375 194.34765625 100.0390625 242.900390625 c 0
 108.758789062 294.01171875 116.543945312 345.252929688 126.743164062 396.055664062 c 1
 131.649414062 447.208984375 140.904296875 497.8359375 145.143554688 549.077148438 c 0
 147.943359375 565.94921875 156.767578125 614.889648438 163.252929688 572.204101562 c 1
 190.626953125 576.697265625 173.271484375 617.876953125 171.525390625 641.826171875 c 1
 176.236328125 670.506835938 182.948242188 698.282226562 204.110351562 721.030273438 c 0
 217.080078125 730.947265625 230.811523438 724.764648438 230.484375 741.323242188 c 1
 258.232421875 748.4296875 263.3125 722.176757812 278.456054688 715.302734375 c 1
 312.618164062 709.947265625 315.534179688 657.787109375 335.3125 633.311523438 c 0
 356.169921875 600.358398438 357.646484375 560.189453125 366.908203125 523.305664062 c 1
 364.153320312 492.365234375 360.68359375 463.176757812 348.756835938 433.870117188 c 0
 325.763671875 384.34375 287.876953125 341.452148438 243.47265625 309.830078125 c 0
 222.548828125 296.80078125 162.162109375 285.83984375 165.453125 318.819335938 c 1
 196.58984375 326.305664062 235.122070312 332.411132812 253.567382812 362.393554688 c 1
 275.974609375 379.099609375 293.673828125 406.32421875 308.450195312 431.142578125 c 0
 329.5390625 457.654296875 330.389648438 492.193359375 331.119140625 526.186523438 c 0
 330.033203125 553.389648438 323.423828125 587.8359375 313.096679688 609.352539062 c 1
 298.607421875 627.63671875 289.685546875 661.665039062 274.096679688 678.256835938 c 1
 262.124023438 703.739257812 232.69140625 722.478515625 219.98828125 685.353515625 c 0
 192.86328125 621.309570312 184.334960938 551.13671875 171.538085938 483.196289062 c 1
 169.587890625 447.690429688 167.322265625 412.2734375 158.919921875 377.696289062 c 1
 157.540039062 340.4140625 148.287109375 304.606445312 140.651367188 268.372070312 c 0
 132.885742188 233.6328125 133.6171875 197.275390625 121.326171875 163.625976562 c 0
 117.624023438 144.4140625 103.508789062 97.1318359375 130.50390625 134.936523438 c 1
 145.4296875 167.34765625 176.756835938 186.229492188 204.759765625 203.965820312 c 1
 230.491210938 212.751953125 270.236328125 238.123046875 291.497070312 226.504882812 c 1
 301.836914062 201.444335938 289.477539062 248.383789062 312.03515625 233.228515625 c 1
 341.546875 254.002929688 303.458984375 196.74609375 283.974609375 207.13671875 c 1
 258.533203125 193.71875 230.904296875 190.643554688 208.686523438 174.534179688 c 0
 180.219726562 153.34765625 157.756835938 125.79296875 139.434570312 94.7470703125 c 0
 104.131835938 47.2890625 98.005859375 -13.5380859375 88.9599609375 -70.1201171875 c 0
 83.015625 -123.078125 87.228515625 -176.841796875 79.3056640625 -229.51953125 c 0
 77.1669921875 -242.623046875 60.1748046875 -252.537109375 51.4755859375 -238.713867188 c 1
EndSplineSet
Validated: 524321
EndChar

StartChar: g
Encoding: 6 103 6
Width: 563
Flags: W
VStem: 388.764 91.291<317.607 435.456>
LayerCount: 2
Fore
SplineSet
401.09765625 497.588867188 m 2
 376.427734375 500.22265625 356.708984375 486.831054688 332.77734375 490.22265625 c 1
 328.427734375 480.1796875 345.5078125 458.413085938 322.75390625 475.07421875 c 1
 295.229492188 476.057617188 274.149414062 446.844726562 252.428710938 431.8828125 c 1
 224.90625 402.073242188 184.3984375 381.357421875 172.744140625 339.540039062 c 0
 161.033203125 309.251953125 169.072265625 270.380859375 199.25 254.098632812 c 1
 226.59765625 230.249023438 264.541992188 233.140625 294.01171875 214.586914062 c 0
 316.275390625 204.419921875 352.74609375 175.973632812 310.888671875 164.395507812 c 1
 275.501953125 144.104492188 250.763671875 108.68359375 213.690429688 91.576171875 c 1
 200.689453125 61.5927734375 171.498046875 51.1904296875 150.009765625 29.5693359375 c 1
 120.881835938 18.8173828125 114.458007812 -13.9736328125 90.455078125 -31.6455078125 c 1
 82.8125 -52.224609375 59.3896484375 -63.978515625 53.4169921875 -89.9306640625 c 1
 36.755859375 -121.515625 33.0302734375 -162.990234375 57.2255859375 -191.8984375 c 0
 73.380859375 -212.21875 88.0068359375 -215.66796875 112.01171875 -225.204101562 c 1
 164.935546875 -233.888671875 219.259765625 -234.231445312 271.868164062 -243.649414062 c 1
 301.872070312 -241.26171875 325.1875 -224.697265625 352.981445312 -217.833984375 c 0
 401.576171875 -210.202148438 450.850585938 -191.5703125 486.920898438 -157.296875 c 1
 508.342773438 -128.911132812 523.083007812 -92.375 519.846679688 -56.4375 c 0
 509.158203125 -0.73046875 493.450195312 55.177734375 464.489257812 104.322265625 c 1
 443.374023438 124.45703125 432.88671875 156.672851562 419.922851562 183.328125 c 1
 413.39453125 212.921875 369.874023438 216.614257812 358.2890625 244.904296875 c 1
 329.333007812 264.782226562 294.91796875 275.771484375 260.712890625 281.423828125 c 0
 225.077148438 291.614257812 221.34375 330.374023438 249.220703125 352.064453125 c 1
 277.6015625 383.522460938 310.913085938 410.267578125 340.275390625 440.5625 c 1
 373.373046875 446.559570312 399.298828125 408.469726562 388.763671875 377.420898438 c 1
 385.59765625 350.166992188 384.78515625 323.111328125 402.8125 301.681640625 c 1
 417.7265625 299.319335938 440.676757812 265.96875 457.247070312 291.4453125 c 1
 446.668945312 317.421875 479.288085938 343.2734375 480.0546875 370.677734375 c 1
 467.012695312 400.163085938 480.254882812 436.115234375 458.720703125 462.517578125 c 0
 444.715820312 481.6875 426.3359375 498.05078125 401.098632812 497.588867188 c 2
 401.09765625 497.588867188 l 2
368.017578125 134.634765625 m 1
 396.30859375 125.592773438 398.828125 85.6103515625 415.979492188 64.080078125 c 0
 444.682617188 15.34375 468.866210938 -45.1796875 448.509765625 -101.458007812 c 0
 435.384765625 -134.836914062 398.959960938 -152.146484375 364.763671875 -152.997070312 c 1
 331.01171875 -159.734375 294.91796875 -165.556640625 266.901367188 -186.934570312 c 1
 235.684570312 -191.64453125 202.942382812 -175.73046875 170.620117188 -174.564453125 c 1
 145.783203125 -168.797851562 103.708007812 -168.795898438 104.549804688 -133.547851562 c 0
 101.770507812 -97.578125 136.62890625 -77.412109375 153.435546875 -50.0419921875 c 1
 181.864257812 -18.171875 209.939453125 16.4033203125 247.420898438 37.708984375 c 1
 286.978515625 70.3701171875 319.840820312 114.1171875 368.017578125 134.635742188 c 1
 368.017578125 134.634765625 l 1
EndSplineSet
Validated: 524329
EndChar

StartChar: h
Encoding: 7 104 7
Width: 627
Flags: W
HStem: 74.6191 56.4297<441.47 566.403>
VStem: 95.8926 57.0918<226.875 425.008>
LayerCount: 2
Fore
SplineSet
64.2802734375 9.0712890625 m 1
 50.658203125 39.6396484375 60.2578125 74.927734375 60.642578125 107.33203125 c 0
 65.3076171875 164.104492188 74.0859375 220.41796875 79.591796875 277.123046875 c 0
 86.0361328125 325.834960938 100.923828125 374.403320312 95.892578125 423.9140625 c 0
 93.5966796875 448.741210938 121.408203125 478.720703125 114.049804688 508.715820312 c 1
 132.190429688 571.219726562 143.3046875 635.4921875 157.655273438 698.840820312 c 1
 159.0859375 728.37109375 204.5234375 754.349609375 217.6328125 718.615234375 c 0
 226.845703125 704.758789062 217.759765625 651.241210938 205.490234375 685.008789062 c 1
 196.653320312 672.477539062 165.469726562 683.2109375 182.228515625 662.1796875 c 1
 194.091796875 659.19140625 225.163085938 669.979492188 202.89453125 651.426757812 c 1
 220.401367188 627.053710938 210.331054688 591.411132812 201.036132812 564.775390625 c 1
 191.458984375 507.224609375 176.438476562 450.6328125 170.884765625 392.415039062 c 0
 167.01953125 361.486328125 151.94921875 333.358398438 152.984375 301.49609375 c 1
 149.544921875 268.811523438 151.102539062 233.369140625 137.076171875 203.637695312 c 1
 148.942382812 177.39453125 131.815429688 152.004882812 135.139648438 127.704101562 c 1
 159.540039062 138.750976562 171.49609375 170.114257812 193.958007812 186.317382812 c 1
 223.469726562 199.852539062 225.129882812 232.211914062 257.046875 239.421875 c 1
 294.088867188 260.59375 321.436523438 295.192382812 358.36328125 316.021484375 c 1
 391.4296875 316.623046875 408.088867188 288.963867188 413.451171875 260.241210938 c 1
 435.90625 222.205078125 418.284179688 170.848632812 452.256835938 138.1171875 c 0
 475.963867188 114.235351562 511.6875 128.626953125 540.76953125 131.048828125 c 1
 581.095703125 149.985351562 590.390625 83.375 553.55859375 74.619140625 c 1
 511.272460938 51.0869140625 455.02734375 42.69921875 411.204101562 66.703125 c 1
 374.709960938 96.435546875 354.141601562 142.522460938 352.008789062 189.25 c 1
 356.715820312 225.666015625 324.6328125 230.065429688 303.936523438 206.266601562 c 1
 252.35546875 167.415039062 221.333984375 108.361328125 173.545898438 66.0244140625 c 1
 143.610351562 52.3427734375 136.565429688 8.7890625 101.248046875 2.9775390625 c 0
 89.3388671875 0.3603515625 72.7001953125 -0.6484375 64.287109375 9.0703125 c 1
 64.2802734375 9.0712890625 l 1
EndSplineSet
Validated: 524321
EndChar

StartChar: i
Encoding: 8 105 8
Width: 247
Flags: W
HStem: 452.615 41.4697<70.875 97.9863>
LayerCount: 2
Fore
SplineSet
98.515625 440.612304688 m 1
 87.412109375 456.643554688 64.0673828125 441.55859375 49.7412109375 452.615234375 c 0
 39.3056640625 464.754882812 53.84375 481.107421875 55.4609375 491.833984375 c 1
 60.767578125 498.830078125 75.31640625 508.301757812 70.875 494.084960938 c 1
 90.5419921875 497.020507812 109.643554688 485.416015625 122.578125 471.336914062 c 0
 130.551757812 462.748046875 122.859375 457.02734375 116.450195312 455.279296875 c 1
 113.608398438 444.9921875 136.4375 444.2265625 120.46484375 433.08203125 c 0
 112.895507812 429.92578125 101.6640625 432.509765625 98.5166015625 440.612304688 c 1
 98.515625 440.612304688 l 1
151.056640625 5.3076171875 m 1
 138.212890625 6.046875 136.122070312 20.912109375 122.654296875 20.486328125 c 1
 119.010742188 39.216796875 94.73046875 43.42578125 93.111328125 63.525390625 c 1
 82.216796875 79.16015625 74.537109375 96.8193359375 71.8662109375 115.807617188 c 0
 67.125 129.606445312 70.91796875 144.841796875 75.82421875 154.00390625 c 1
 74.408203125 168.514648438 71.392578125 201.176757812 93.1923828125 199.314453125 c 0
 103.038085938 198.326171875 137.137695312 190.810546875 115.173828125 205.685546875 c 0
 95.013671875 220.787109375 154.693359375 207.829101562 128.98828125 193.252929688 c 0
 120.426757812 185.791992188 110.703125 179.840820312 101.515625 173.198242188 c 1
 112.53515625 161.200195312 129.96875 149.362304688 126.622070312 130.970703125 c 0
 126.522460938 100.961914062 148.654296875 76.81640625 167.3203125 55.6123046875 c 0
 179.537109375 41.814453125 194.703125 29.4609375 202.056640625 12.22265625 c 1
 195.458984375 -0.712890625 170.504882812 6.431640625 157.15625 4.6201171875 c 0
 155.186523438 3.8251953125 153.015625 5.9033203125 151.057617188 5.3037109375 c 2
 151.056640625 5.3076171875 l 1
EndSplineSet
Validated: 524321
EndChar

StartChar: j
Encoding: 9 106 9
Width: 258
Flags: W
VStem: 62.9326 42.3574<-10.7484 234.357>
LayerCount: 2
Fore
SplineSet
88.2958984375 418.163085938 m 0
 79.70703125 428.99609375 75.3984375 435.491210938 87.439453125 436.185546875 c 1
 77.47265625 442.870117188 79.521484375 458.483398438 61.8759765625 458.155273438 c 1
 33.99609375 478.6953125 80.087890625 506.907226562 86.884765625 472.392578125 c 1
 97.513671875 453.80859375 108.30078125 417.223632812 110.021484375 409.296875 c 1
 100.244140625 399.702148438 93.583984375 410.609375 88.2958984375 418.163085938 c 0
101.700195312 386.440429688 m 1
 114.561523438 402.631835938 106.43359375 372.705078125 101.69140625 386.440429688 c 1
 101.700195312 386.440429688 l 1
183.458007812 -240.922851562 m 1
 156.678710938 -218.846679688 138.23828125 -189.241210938 123.754882812 -158.13671875 c 1
 105.708007812 -134.41796875 103.096679688 -102.862304688 94.77734375 -74.880859375 c 0
 75.21484375 8.435546875 63.703125 93.9443359375 62.9326171875 179.55078125 c 0
 61.462890625 205.1875 68.9443359375 234.20703125 97.8466796875 239.793945312 c 0
 121.756835938 243.627929688 97.0302734375 201.913085938 105.290039062 186.455078125 c 1
 108.866210938 126.126953125 112.411132812 65.4970703125 122.084960938 5.8037109375 c 0
 133.094726562 -38.189453125 139.0234375 -83.525390625 155.805664062 -125.982421875 c 0
 164.654296875 -154.866210938 179.470703125 -181.141601562 193.573242188 -207.563476562 c 0
 202.693359375 -220.920898438 236.751953125 -248.176757812 197.806640625 -245.581054688 c 0
 192.869140625 -244.864257812 187.524414062 -244.09375 183.458007812 -240.922851562 c 1
EndSplineSet
Validated: 524321
EndChar

StartChar: k
Encoding: 10 107 10
Width: 694
Flags: W
HStem: 35.2461 50.2676<517.369 631.045> 405.167 67.7578<291.145 403.409>
VStem: 53.1934 82.499<425.619 734.215> 69.7676 85.0391<28.9902 262.99>
LayerCount: 2
Fore
SplineSet
91.9599609375 21.8037109375 m 1xd0
 64.919921875 50.111328125 72.9716796875 90.654296875 69.767578125 126.048828125 c 0xd0
 63.5380859375 308.63671875 55.646484375 491.21875 53.193359375 673.899414062 c 1
 46.4345703125 710.141601562 69.017578125 741.748046875 104.864257812 748.423828125 c 1
 145.75390625 770.208984375 130.6015625 712.3046875 135.34375 688.890625 c 1
 136.62109375 633.897460938 141.991210938 578.493164062 135.692382812 523.692382812 c 1xe0
 117.595703125 510.895507812 150.357421875 487.985351562 141.963867188 464.143554688 c 1
 142.590820312 428.672851562 144.439453125 393.239257812 146.90234375 357.852539062 c 1
 184.250976562 393.07421875 219.0625 436.580078125 271.4765625 448.458007812 c 1
 302.915039062 467.092773438 338.720703125 474.694335938 375.268554688 472.924804688 c 0
 398.369140625 472.576171875 438.607421875 478.470703125 431.963867188 447.717773438 c 1
 468.184570312 452.4609375 490.936523438 397.282226562 477.534179688 369.034179688 c 1
 457.119140625 345.202148438 449.637695312 312.157226562 420.916015625 295.879882812 c 1
 385.78515625 282.65234375 365.41015625 248.520507812 333.948242188 229.42578125 c 1
 301.750976562 220.040039062 283.76953125 184.786132812 269.013671875 157.165039062 c 1
 280.017578125 127.741210938 320.147460938 127.251953125 346.088867188 117.76171875 c 0
 438.015625 96.62890625 532.403320312 84.4296875 626.793945312 85.513671875 c 0
 641.208984375 88.5732421875 664.934570312 64.0908203125 638.668945312 73.017578125 c 1
 637.0859375 43.625 601.662109375 56.37890625 584.133789062 39.95703125 c 1
 509.549804688 29.41015625 433.422851562 29.080078125 358.412109375 35.24609375 c 1
 324.963867188 44.384765625 288.4140625 42.625 257.28125 59.1416015625 c 0
 220.375976562 80.5859375 183.13671875 115.079101562 179.166015625 159.951171875 c 1
 184.920898438 201.90234375 221.936523438 232.584960938 257.563476562 251.037109375 c 1
 293.573242188 256.19140625 317.76953125 277.895507812 335.66015625 307.942382812 c 1
 363.146484375 327.920898438 377.389648438 363.451171875 403.05859375 387.78125 c 1
 411.5703125 418.0703125 352.891601562 401.283203125 333.387695312 405.166992188 c 1
 305.795898438 395.030273438 278.34375 375.946289062 252.120117188 359.06640625 c 0
 184.528320312 316.67578125 151.69921875 234.504882812 154.806640625 156.776367188 c 0
 153.689453125 113.025390625 165.12109375 70.158203125 168.040039062 26.9658203125 c 1
 153.540039062 0.970703125 107.306640625 -12.9697265625 91.9794921875 21.802734375 c 1
 91.9599609375 21.8037109375 l 1xd0
EndSplineSet
Validated: 524321
EndChar

StartChar: l
Encoding: 11 108 11
Width: 413
Flags: W
VStem: 40.9189 47.7051<648.174 733.222>
LayerCount: 2
Fore
SplineSet
270.686523438 9.4736328125 m 1
 213.29296875 26.056640625 178.700195312 80.3349609375 152.952148438 130.578125 c 0
 134.178710938 166.772460938 125.170898438 206.663085938 117.754882812 246.413085938 c 1
 106.174804688 274.708984375 102.002929688 304.927734375 96.767578125 334.892578125 c 0
 89.9580078125 382.529296875 89.849609375 431.004882812 79.474609375 478.155273438 c 0
 70.154296875 531.126953125 65.7275390625 584.754882812 54.609375 637.454101562 c 1
 44.4423828125 666.09375 64.0712890625 694.412109375 40.9189453125 719.690429688 c 1
 32.267578125 751.57421875 87.509765625 748.754882812 88.6240234375 717.990234375 c 1
 113.484375 654.56640625 123.8515625 586.45703125 132.247070312 519.1796875 c 0
 137.266601562 470.435546875 138.141601562 420.9453125 151.92578125 373.573242188 c 1
 163.673828125 315.1953125 170.654296875 255.669921875 185.452148438 198.071289062 c 0
 192.88671875 172.428710938 201.099609375 142.0390625 211.72265625 115.283203125 c 0
 225.280273438 89.71484375 239.8125 57.2177734375 269.767578125 48.537109375 c 1
 294.936523438 32.763671875 323.395507812 42.08984375 350.79296875 46.0888671875 c 0
 368.73046875 51.3955078125 379.85546875 29.609375 357.622070312 33.142578125 c 1
 344.091796875 13.001953125 315.184570312 20.37890625 299.74609375 2.7607421875 c 1
 289.809570312 3.5615234375 280.31640625 7.1962890625 270.686523438 9.47265625 c 1
 270.686523438 9.4736328125 l 1
EndSplineSet
Validated: 524321
EndChar

StartChar: m
Encoding: 12 109 12
Width: 930
Flags: W
VStem: 92.0947 58.751<249.807 449.82> 422.499 65.9746<221.059 394.441>
LayerCount: 2
Fore
SplineSet
71.9765625 20.01953125 m 1
 44.9345703125 46.06640625 62.80078125 87.6943359375 62.6552734375 120.48828125 c 0
 65.0869140625 151.037109375 82.0751953125 177.70703125 81.7421875 208.892578125 c 0
 90.478515625 296.095703125 88.5224609375 383.857421875 92.0947265625 471.315429688 c 1
 127.439453125 493.541015625 154.435546875 447.125 150.845703125 414.978515625 c 1
 154.106445312 351.75 156.362304688 287.90625 149.658203125 224.846679688 c 1
 136.752929688 202.715820312 143.638671875 178.524414062 147.936523438 155.697265625 c 1
 186.133789062 150.89453125 200.028320312 189.896484375 213.162109375 216.623046875 c 1
 214.724609375 240.928710938 249.053710938 266.592773438 259.037109375 293.65625 c 1
 288.756835938 345.864257812 318.749023438 399.375 364.893554688 439.157226562 c 0
 391.05859375 462.756835938 422.916992188 497.030273438 461.967773438 485.140625 c 0
 494.947265625 473.577148438 490.2421875 430.099609375 494.116210938 401.828125 c 0
 496.3203125 340.216796875 480.84765625 278.765625 488.473632812 217.209960938 c 1
 508.063476562 206.350585938 535.095703125 249.760742188 554.822265625 262.803710938 c 1
 612.23046875 316.85546875 665.092773438 378.020507812 733.913085938 417.978515625 c 0
 765.991210938 434.696289062 805.3984375 437.5234375 839.73828125 426.94921875 c 1
 867.3359375 407.936523438 870.126953125 367.161132812 867.1640625 336.422851562 c 0
 858.764648438 283.362304688 847.537109375 229.845703125 826.0234375 180.540039062 c 1
 843.388671875 180.5703125 872.76171875 158.967773438 846.188476562 145.040039062 c 1
 834.524414062 117.650390625 804.638671875 81.4580078125 771.1484375 90.8310546875 c 1
 731.19140625 93.41796875 741.01171875 139.365234375 744.592773438 166.728515625 c 1
 760.836914062 195.3359375 770.716796875 225.702148438 778.819335938 258.248046875 c 0
 788.551757812 291.8125 802.178710938 326.390625 798.370117188 361.86328125 c 1
 776.690429688 382.77734375 745.7265625 342.916015625 723.740234375 334.297851562 c 0
 694.697265625 318.62890625 673.727539062 290.151367188 648.758789062 268.549804688 c 0
 615.427734375 237.771484375 584.590820312 204.58984375 557.484375 168.170898438 c 0
 534.677734375 141.752929688 503.283203125 117.140625 467.654296875 114.639648438 c 1
 431.640625 129.008789062 420.966796875 169.6875 422.499023438 204.922851562 c 0
 420.125 269.076171875 418.709960938 333.796875 428.368164062 397.424804688 c 1
 404.573242188 405.381835938 378.787109375 355.010742188 359.010742188 338.032226562 c 0
 334.538085938 311.97265625 317.787109375 280.884765625 299.834960938 250.668945312 c 1
 278.55859375 225.333984375 261.288085938 197.34375 247.538085938 167.627929688 c 1
 215.38671875 127.919921875 179.9296875 90.619140625 153.74609375 46.3740234375 c 0
 138.225585938 18.1845703125 99.50390625 -14.0263671875 71.9892578125 20.0986328125 c 1
 71.9765625 20.01953125 l 1
EndSplineSet
Validated: 524321
EndChar

StartChar: n
Encoding: 13 110 13
Width: 591
Flags: W
VStem: 64.0244 80.293<181.408 423.245> 66.877 37.9785<433.409 481.834> 434.045 79.5586<167.262 389.672> 437.191 61.585<134.529 386.691>
LayerCount: 2
Fore
SplineSet
483.940429688 21.8974609375 m 1x10
 457.038085938 43.9208984375 440.161132812 76.2861328125 437.19140625 110.859375 c 0x10
 429.729492188 185.977539062 434.223632812 261.584960938 434.044921875 336.942382812 c 0
 434.235351562 354.518554688 434.364257812 372.094726562 434.5546875 389.671875 c 1
 378.79296875 332.094726562 327.678710938 270.309570312 274.16796875 210.700195312 c 0
 260.353515625 192.63671875 239.736328125 181.948242188 225.791015625 164.38671875 c 0
 194.533203125 127.663085938 171.546875 80.58203125 126.772460938 58.1630859375 c 0
 97.53515625 44.0068359375 63.2109375 72.1416015625 64.0244140625 102.7578125 c 0xa0
 59.0908203125 179.301757812 61.8486328125 256.123046875 61.1591796875 332.783203125 c 0
 62.109375 380.075195312 59.927734375 427.770507812 66.876953125 474.68359375 c 0
 67.3876953125 502.588867188 112.6328125 504.2265625 104.85546875 472.845703125 c 1x40
 92.974609375 446.3671875 118.670898438 438.418945312 134.38671875 425.286132812 c 1
 141.265625 381.748046875 138.802734375 337.153320312 139.223632812 293.13671875 c 0
 139.90625 255.928710938 137.706054688 218.076171875 144.317382812 181.408203125 c 1
 164.935546875 186.21484375 172.991210938 214.005859375 189.346679688 227.57421875 c 0
 245.076171875 289.579101562 302.458984375 350.225585938 353.65234375 416.146484375 c 0
 377.110351562 444.161132812 401.916015625 478.251953125 441.5234375 481.602539062 c 0
 480.514648438 487.359375 513.069335938 450.069335938 513.603515625 413.032226562 c 0xa0
 519.091796875 332.774414062 510.38671875 252.295898438 498.776367188 172.953125 c 0
 496.01953125 157.797851562 503.040039062 142.139648438 491.60546875 134.1484375 c 1
 501.373046875 114.280273438 512.653320312 94.22265625 514.541015625 71.5146484375 c 1
 511.248046875 47.853515625 550.928710938 33.9228515625 528.153320312 13.3935546875 c 1
 514.893554688 -7.0703125 495.874023438 10.646484375 483.96484375 21.8994140625 c 1
 483.940429688 21.8974609375 l 1x10
EndSplineSet
Validated: 524321
EndChar

StartChar: o
Encoding: 14 111 14
Width: 657
Flags: W
LayerCount: 2
Fore
SplineSet
306.27734375 490.166015625 m 2
 282.321289062 489.306640625 257.149414062 489.174804688 234.12109375 483.4296875 c 1
 236.279296875 461.916015625 198.739257812 466.881835938 190.440429688 445.196289062 c 1
 171.9140625 436.475585938 189.022460938 408.3984375 165.563476562 415.560546875 c 1
 134.83203125 398.013671875 116.26953125 365.669921875 97.8193359375 336.533203125 c 0
 80.9306640625 309.204101562 70.0908203125 278.858398438 62.83984375 247.744140625 c 1
 47.5126953125 215.51953125 52.2041015625 178.05859375 54.576171875 143.541015625 c 0
 60.4990234375 95.4970703125 83.390625 44.58984375 130.30859375 24.3916015625 c 0
 171.69921875 6.1630859375 218.712890625 -6.6328125 263.62109375 6.134765625 c 0
 331.029296875 22.5244140625 401.129882812 44.4033203125 450.955078125 95.265625 c 1
 500.201171875 136.141601562 551.758789062 177.149414062 586.202148438 231.970703125 c 0
 602.611328125 263.943359375 597.149414062 301.921875 582.030273438 333.263671875 c 0
 569.67578125 354.123046875 563.436523438 390.053710938 537.291992188 395.772460938 c 1
 516.348632812 405.700195312 498.844726562 424.53125 473.591796875 424.169921875 c 1
 450.547851562 429.4453125 424.984375 424.00390625 422.650390625 396.91015625 c 1
 405.6953125 413.495117188 401.220703125 441.1640625 381.736328125 456.881835938 c 0
 361.7578125 476.732421875 334.370117188 488.657226562 306.280273438 490.166015625 c 2
 306.27734375 490.166015625 l 2
302.036132812 422.272460938 m 2
 328.098632812 419.178710938 353.833007812 400.569335938 363.232421875 375.826171875 c 1
 363.733398438 358.401367188 380.84765625 359.063476562 379.020507812 341.173828125 c 1
 387.291015625 318.465820312 434.822265625 283.041015625 437.857421875 324.723632812 c 1
 420.350585938 333.341796875 429.125976562 376.5859375 437.543945312 393.280273438 c 1
 463.153320312 387.904296875 482.831054688 367.331054688 503.028320312 351.6875 c 0
 524.517578125 333.383789062 547.811523438 303.24609375 534.07421875 273.874023438 c 0
 521.985351562 254.598632812 511.275390625 235.891601562 491.188476562 220.028320312 c 0
 450.40234375 181.672851562 406.873046875 146.2421875 363.788085938 110.603515625 c 1
 329.813476562 87.935546875 290.665039062 72.4365234375 249.423828125 71.677734375 c 0
 220.20703125 71.1767578125 184.9453125 64.7744140625 162.559570312 88.501953125 c 0
 139.307617188 109.234375 121.776367188 140.077148438 129.229492188 172.10546875 c 0
 137.673828125 221.399414062 151.045898438 270.94140625 174.748046875 315.204101562 c 1
 193.389648438 337.67578125 216.201171875 357.551757812 228.204101562 384.685546875 c 1
 246.975585938 404.958007812 274.418945312 419.767578125 302.049804688 422.272460938 c 2
 302.036132812 422.272460938 l 2
EndSplineSet
Validated: 524325
EndChar

StartChar: p
Encoding: 15 112 15
Width: 390
Flags: W
VStem: 76.1123 45.4971<-148.114 211.948>
LayerCount: 2
Fore
SplineSet
52.1630859375 -247.05078125 m 1
 32.92578125 -224.6875 54.2578125 -200.03125 50.3037109375 -176.162109375 c 1
 53.994140625 -146.198242188 59.1513671875 -116.251953125 65.89453125 -87.55078125 c 1
 67.2041015625 -51.0400390625 77.1640625 -15.5126953125 76.1123046875 21.2001953125 c 0
 76.978515625 87.208984375 79.701171875 153.66015625 72.7626953125 219.385742188 c 1
 64.5478515625 256.495117188 68.4052734375 294.977539062 61.4677734375 332.27734375 c 0
 59.107421875 346.778320312 83.0986328125 367.77734375 87.3359375 356.331054688 c 1
 72.05078125 338.44140625 108.076171875 368.198242188 109.03125 377.564453125 c 0
 120.872070312 401.958984375 130.579101562 427.926757812 148.323242188 449.400390625 c 0
 172.490234375 477.12109375 205.583984375 506.966796875 245.439453125 498.19921875 c 0
 271.25 494.338867188 290.5859375 474.282226562 304.254882812 452.490234375 c 0
 320.958984375 430.497070312 325.510742188 403.638671875 330.99609375 377.939453125 c 1
 332.1875 335.271484375 328.87890625 290.983398438 309.72265625 252.266601562 c 1
 290.31640625 232.469726562 283.440429688 202.6328125 261.790039062 185.421875 c 1
 260.08984375 165.177734375 232.475585938 164.161132812 224.130859375 153.127929688 c 1
 201.254882812 161.321289062 237.6640625 194.541015625 243.890625 209.920898438 c 0
 257.657226562 239.443359375 277.37109375 266.54296875 285.276367188 298.779296875 c 0
 293.516601562 326.1953125 295.822265625 355.08984375 285.78125 382.107421875 c 1
 284.815429688 415.837890625 263.74609375 454.935546875 226.418945312 456.6484375 c 1
 198.34765625 444.85546875 175.268554688 421.3125 162.904296875 393.108398438 c 0
 149.865234375 370.688476562 137.28125 347.399414062 134.864257812 320.963867188 c 0
 121.205078125 215.616210938 128.477539062 108.963867188 121.609375 3.14453125 c 0
 118.83203125 -30.607421875 120.145507812 -65.947265625 107.987304688 -97.7890625 c 1
 103.907226562 -130.383789062 106.745117188 -163.932617188 95.634765625 -195.359375 c 1
 94.373046875 -221.950195312 86.8095703125 -255.299804688 52.1650390625 -247.05078125 c 1
 52.1630859375 -247.05078125 l 1
EndSplineSet
Validated: 524321
EndChar

StartChar: q
Encoding: 16 113 16
Width: 513
Flags: W
VStem: 48.3623 41.4033<234.191 289.298> 388.672 49.6162<-201.971 95.3727>
LayerCount: 2
Fore
SplineSet
209.802734375 499.34765625 m 0
 180.275390625 499.379882812 169.225585938 470.104492188 141.524414062 467.514648438 c 1
 115.309570312 447.275390625 100.577148438 413.989257812 80.630859375 387.09375 c 0
 60.4150390625 352.681640625 45.455078125 314.034179688 48.3623046875 273.446289062 c 0
 47.09765625 246.118164062 52.6171875 215.28515625 79.8271484375 206.665039062 c 1
 100.87109375 184.065429688 133.469726562 199.501953125 158.840820312 204.625976562 c 0
 186.141601562 213.163085938 215.46484375 220.196289062 236.919921875 240.033203125 c 1
 278.505859375 255.658203125 307.744140625 299.036132812 355.015625 299.732421875 c 1
 379.045898438 292.541992188 384.913085938 262.883789062 386.8515625 239.88671875 c 0
 401.4296875 121.553710938 386.489257812 2.458984375 388.671875 -116.181640625 c 1
 393.77734375 -141.221679688 402.736328125 -163.142578125 399.630859375 -190.022460938 c 0
 393.58984375 -221.18359375 418.543945312 -255.34765625 452.159179688 -246.499023438 c 0
 487.791015625 -238.360351562 428.858398438 -229.38671875 439.3125 -204.720703125 c 1
 433.057617188 -146.072265625 432.270507812 -86.80859375 433.20703125 -27.869140625 c 1
 441.109375 35.451171875 438.241210938 99.71875 438.288085938 163.462890625 c 0
 436.556640625 202.397460938 438.9921875 244.509765625 419.22265625 279.327148438 c 1
 417.510742188 311.147460938 389.870117188 336.330078125 362.233398438 346.840820312 c 1
 347.60546875 378.438476562 346.494140625 419.953125 313.600585938 442.032226562 c 0
 297.986328125 447.727539062 298.108398438 448.247070312 306.293945312 457.6796875 c 1
 283.200195312 476.8359375 255.751953125 499.145507812 223.655273438 495.030273438 c 0
 218.315429688 494.357421875 214.21484375 497.197265625 209.802734375 499.34765625 c 0
211.784179688 462.69921875 m 1
 232.196289062 459.0625 270.728515625 464.209960938 268.294921875 437.264648438 c 1
 288.520507812 423.184570312 298.033203125 393.828125 316.095703125 378.569335938 c 0
 335.393554688 363.873046875 337.673828125 333.297851562 308.8203125 325.831054688 c 0
 279.534179688 315.348632812 257.357421875 292.267578125 229.736328125 280.014648438 c 0
 208.529296875 271.879882812 193.90625 245.821289062 165.716796875 245.075195312 c 1
 139.70703125 232.7578125 101.63671875 220.336914062 89.765625 254.260742188 c 1
 83.2353515625 259.787109375 104.5 294.3828125 75.6259765625 289.078125 c 1
 62.8623046875 304.041992188 67.00390625 354.825195312 92.66796875 333.084960938 c 1
 114.06640625 345.485351562 122.043945312 375.329101562 131.303710938 398.241210938 c 1
 135.540039062 426.90234375 164.19140625 419.836914062 171.477539062 445.712890625 c 1
 185.939453125 444.452148438 195.349609375 464.180664062 211.783203125 462.698242188 c 1
 211.784179688 462.69921875 l 1
EndSplineSet
Validated: 524329
EndChar

StartChar: r
Encoding: 17 114 17
Width: 449
Flags: W
LayerCount: 2
Fore
SplineSet
158.009765625 21.1494140625 m 1
 135.083984375 47.2744140625 122.192382812 80.5595703125 106.7734375 111.3671875 c 0
 88.55078125 151.833007812 70.48828125 192.950195312 61.853515625 236.6796875 c 0
 54.9033203125 253.60546875 33.533203125 275.854492188 52.9599609375 292.599609375 c 1
 75.4638671875 288.89453125 87.1357421875 317.931640625 64.7412109375 327.927734375 c 0
 49.6650390625 336.701171875 69.0654296875 350.442382812 74.3818359375 339.58203125 c 1
 81.2060546875 348.168945312 91.4814453125 365.106445312 89.7958984375 342.708007812 c 1
 99.9228515625 313.463867188 131.865234375 298.592773438 142.314453125 269.791015625 c 0
 146.51171875 252.255859375 148.553710938 229.702148438 164.147460938 218.487304688 c 1
 185.409179688 225.750976562 181.327148438 256.83203125 185.270507812 275.288085938 c 0
 197.534179688 327.572265625 221.00390625 376.711914062 247.041015625 423.431640625 c 0
 264.216796875 453.836914062 292.586914062 484.861328125 329.9453125 485.578125 c 1
 343.592773438 479.90234375 355.1015625 482.571289062 360.47265625 495.396484375 c 1
 377.528320312 503.192382812 412.91015625 487.297851562 399.505859375 466.069335938 c 0
 385.583984375 450.973632812 361.524414062 452.655273438 348.740234375 435.896484375 c 0
 333.280273438 421.270507812 327.137695312 397.190429688 306.844726562 388.147460938 c 1
 287.23046875 358.548828125 278.8125 323.080078125 269.8125 289.1171875 c 0
 263.045898438 258.915039062 259.10546875 227.169921875 243.516601562 199.942382812 c 1
 230.537109375 145.603515625 247.649414062 86.615234375 223.109375 34.57421875 c 0
 215.232421875 11.9794921875 187.166015625 -0.05859375 166.950195312 14.9658203125 c 0
 163.879882812 16.830078125 160.583984375 18.7587890625 158.010742188 21.146484375 c 2
 158.009765625 21.1494140625 l 1
EndSplineSet
Validated: 524321
EndChar

StartChar: s
Encoding: 18 115 18
Width: 546
Flags: W
HStem: 7.37109 65.7246<183.129 333.342> 428.688 64.374<136.278 313.073>
LayerCount: 2
Fore
SplineSet
183.12890625 7.3662109375 m 5
 158.345703125 13.015625 137.475585938 28.1953125 110.953125 26.7734375 c 5
 100.951171875 37.376953125 86.9716796875 32.3603515625 76.568359375 37.3212890625 c 5
 76.744140625 56.5126953125 38.6171875 65.6767578125 61.251953125 85.943359375 c 4
 76.3544921875 101.448242188 105.818359375 106.084960938 118.685546875 85.2431640625 c 5
 136.76953125 69.482421875 163.875976562 75.529296875 186.04296875 73.095703125 c 4
 235.891601562 73.2509765625 286.23046875 70.701171875 335.66015625 78.2919921875 c 5
 356.840820312 89.642578125 318.19140625 110.3046875 308.936523438 119.952148438 c 4
 254.842773438 161.313476562 193.962890625 193.431640625 143.868164062 240.051757812 c 4
 113.73046875 267.71484375 81.7197265625 294.779296875 59.357421875 329.409179688 c 5
 51.7431640625 351.973632812 46.4921875 376.416015625 48.3896484375 400.299804688 c 5
 55.8798828125 423.940429688 76.6728515625 440.36328125 93.5576171875 457.451171875 c 5
 112.560546875 470.665039062 130.629882812 483.952148438 154.994140625 485.598632812 c 4
 192.688476562 490.887695312 231.079101562 496.896484375 269.13671875 493.061523438 c 5
 293.974609375 486.118164062 313.737304688 468.358398438 339.02734375 464.489257812 c 4
 366.986328125 455.763671875 377.1484375 422.36328125 404.77734375 415.08203125 c 5
 428.206054688 398.725585938 444.52734375 372.723632812 453.818359375 346.015625 c 4
 460.201171875 333.33984375 435.92578125 328.330078125 457.557617188 327.51953125 c 4
 472.544921875 323.642578125 483.50390625 305.627929688 470.918945312 301.86328125 c 5
 483.922851562 296.784179688 484.837890625 286.33203125 472.494140625 279.96875 c 5
 476.256835938 272.220703125 509.392578125 267.516601562 484.78515625 264.633789062 c 4
 471.135742188 265.560546875 453.797851562 257.923828125 457.625976562 247.379882812 c 5
 436.924804688 256.231445312 429.536132812 275.461914062 419.374023438 292.036132812 c 5
 399.053710938 309.24609375 396.62890625 338.384765625 374.069335938 354.502929688 c 5
 342.928710938 384.973632812 310.043945312 418.881835938 266.025390625 428.6875 c 5
 232.46875 430.9765625 198.934570312 423.94921875 165.98828125 418.240234375 c 4
 143.098632812 415.529296875 114.506835938 399.413085938 123.28125 372.135742188 c 4
 131.8515625 349.385742188 150.3828125 332.573242188 161.881835938 311.385742188 c 5
 175.783203125 294.375976562 191.41015625 278.450195312 211.721679688 269.806640625 c 5
 236.624023438 252.565429688 256.934570312 229.223632812 282.45703125 213.05078125 c 5
 306.098632812 211.966796875 317.229492188 190.084960938 335.703125 178.209960938 c 4
 353.702148438 163.02734375 374.34375 151.360351562 393.025390625 137.309570312 c 4
 412.25390625 118.250976562 424.940429688 91.1826171875 418.083007812 63.9716796875 c 5
 419.200195312 36.1611328125 388.0078125 25.72265625 366.364257812 19.2119140625 c 4
 308.692382812 4.3037109375 248.315429688 4.7998046875 189.1875 6.6533203125 c 4
 187.159179688 6.8095703125 185.13671875 7.0537109375 183.12890625 7.37109375 c 6
 183.12890625 7.3662109375 l 5
EndSplineSet
Validated: 524321
EndChar

StartChar: t
Encoding: 19 116 19
Width: 630
Flags: W
VStem: 43.5518 57.7617<591.374 736.691>
LayerCount: 2
Fore
SplineSet
221.000976562 20.8359375 m 1
 209.301757812 56.8671875 201.985351562 94.3095703125 185.016601562 128.416015625 c 1
 167.357421875 183.565429688 144.295898438 236.69921875 125.208984375 291.313476562 c 0
 108.934570312 347.397460938 99.1025390625 405.227539062 81.9794921875 461.15234375 c 0
 71.6767578125 503.870117188 60.1943359375 546.681640625 54.6416015625 590.279296875 c 1
 62.8056640625 613.552734375 35.3369140625 641.869140625 43.5517578125 670.73046875 c 1
 44.05078125 697.203125 40.232421875 740.114257812 75.0859375 738.471679688 c 1
 109.669921875 727.60546875 81.12890625 684.255859375 101.313476562 665.1640625 c 1
 105.32421875 627.5625 100.936523438 587.814453125 113.856445312 551.796875 c 1
 117.833007812 523.8046875 132.34765625 493.55859375 136.974609375 463.81640625 c 0
 142.280273438 429.612304688 156.111328125 397.228515625 162.856445312 363.967773438 c 0
 171.936523438 333.006835938 181.3125 301.1875 188.986328125 268.977539062 c 1
 207.217773438 224.546875 223.67578125 179.233398438 235.763671875 132.732421875 c 1
 261.717773438 130.615234375 257.209960938 187.665039062 280.126953125 202.780273438 c 1
 310.139648438 235.82421875 356.833007812 244.073242188 398.741210938 251.598632812 c 0
 426.440429688 256.258789062 445.909179688 234.571289062 470.111328125 235.840820312 c 1
 476.3515625 219.03125 498.301757812 233.23046875 505.8125 221.611328125 c 1
 533.791992188 236.578125 559.42578125 213.704101562 574.9375 197.036132812 c 1
 583.98828125 163.994140625 523.6796875 189.827148438 504.83984375 192.283203125 c 1
 473.866210938 210.520507812 435.579101562 208.908203125 400.643554688 210.791015625 c 0
 356.881835938 211.302734375 308.3984375 192.711914062 286.4453125 153.065429688 c 0
 267.819335938 121.734375 274.736328125 81.931640625 261.619140625 50.7861328125 c 1
 273.368164062 27.5361328125 233.924804688 -11.5556640625 221.000976562 20.8359375 c 1
EndSplineSet
Validated: 524321
EndChar

StartChar: u
Encoding: 20 117 20
Width: 720
Flags: W
HStem: 23.8184 23.3857<609.747 667.422> 41.1045 32.7236<252.289 320.805> 471.941 20G<107.514 133.809>
VStem: 464.579 70.3594<242.755 345.987>
LayerCount: 2
Fore
SplineSet
186.265625 10.720703125 m 1x70
 161.280273438 20.828125 136.963867188 34.9443359375 118.532226562 54.8349609375 c 1
 106.537109375 81.7978515625 80.3994140625 99.7119140625 68.365234375 127.028320312 c 1
 52.744140625 150.4375 67.603515625 177.736328125 59.6083984375 203.166015625 c 0
 49.7783203125 263.405273438 49.8642578125 325.34765625 57.619140625 385.822265625 c 0
 63.0185546875 405.26171875 72.4130859375 416.103515625 69.5126953125 437.376953125 c 1
 72.5830078125 465.826171875 99.58203125 474.225585938 115.4453125 491.94140625 c 1
 152.171875 487.145507812 139.500976562 449.1640625 136.026367188 424.681640625 c 0
 129.537109375 353.326171875 124.913085938 281.318359375 129.979492188 209.741210938 c 0
 136.556640625 166.006835938 153.794921875 123.415039062 178.887695312 87.083984375 c 1
 198.27734375 69.6015625 227.947265625 74.1044921875 252.2890625 73.828125 c 0x70
 283.541992188 72.3740234375 301.469726562 101.655273438 331.672851562 106.614257812 c 1
 350.932617188 123.119140625 362.8828125 150.372070312 384.173828125 167.543945312 c 0
 420.26953125 206.235351562 457.265625 249.634765625 464.579101562 304.01171875 c 0
 465.147460938 334.282226562 491.97265625 344.466796875 499.94921875 368.7578125 c 1
 518.331054688 386.427734375 563.139648438 382.170898438 551.061523438 348.05078125 c 1
 545.922851562 304.004882812 534.223632812 260.811523438 534.938476562 216.14453125 c 0
 535.854492188 183.072265625 527.8828125 145.375976562 549.831054688 117.13671875 c 0
 566.001953125 94.734375 583.634765625 71.0625 608.79296875 58.341796875 c 1
 629.37109375 59 634.803710938 22.88671875 652.849609375 47.2041015625 c 1
 673.2421875 50.513671875 689.131835938 30.9951171875 661.845703125 23.818359375 c 1xb0
 637.120117188 28.8046875 614.520507812 3.9892578125 589.31640625 14.6494140625 c 0
 547.702148438 26.517578125 513.395507812 56.55859375 486.62109375 89.544921875 c 0
 477.598632812 106.159179688 467.328125 155.443359375 441.206054688 130.854492188 c 0
 424.35546875 111.141601562 409.7734375 94.0908203125 385.514648438 82.18359375 c 1
 365.38671875 65.896484375 347.986328125 41.7421875 320.8046875 41.1044921875 c 1
 307.959960938 15.0029296875 275.196289062 25.021484375 255.013671875 8.83203125 c 1
 232.573242188 3.490234375 208.17578125 4.123046875 186.268554688 10.7197265625 c 2
 186.265625 10.720703125 l 1x70
EndSplineSet
Validated: 524321
EndChar

StartChar: v
Encoding: 21 118 21
Width: 531
Flags: W
HStem: 470.604 20G<447.165 472.624>
VStem: 49.0596 82.3291<188.057 321.586> 418.433 56.1787<385.523 480.396>
LayerCount: 2
Fore
SplineSet
149.235351562 22.001953125 m 1
 100.68359375 55.228515625 81.283203125 114.586914062 66.5234375 168.747070312 c 0
 57.2158203125 206.015625 48.1767578125 244.126953125 49.0595703125 282.752929688 c 1
 54.3203125 306.84765625 78.28125 339.482421875 103.077148438 337.888671875 c 1
 117.044921875 318.690429688 122.500976562 294.02734375 131.388671875 272.036132812 c 0
 140.383789062 237.634765625 145.22265625 201.870117188 160.83203125 169.541015625 c 0
 171.65625 148.571289062 172.977539062 107.213867188 204.0546875 109.15625 c 1
 238.944335938 117.883789062 259.797851562 149.963867188 283.677734375 174.264648438 c 0
 299.78515625 189.557617188 310.426757812 208.302734375 322.34765625 226.66015625 c 0
 350.240234375 260.166015625 360.783203125 303.561523438 378.358398438 342.645507812 c 0
 392.639648438 374.91015625 406.854492188 407.16015625 418.432617188 440.522460938 c 0
 428.09765625 458.58984375 435.66796875 487.5703125 458.661132812 490.604492188 c 1
 486.586914062 480.12109375 471.049804688 443.520507812 474.611328125 420.973632812 c 0
 474.206054688 378.616210938 463.08984375 337.274414062 445.188476562 299.078125 c 0
 408.34375 210.754882812 362.8515625 121.650390625 288.37109375 59.0810546875 c 0
 267.970703125 43.7294921875 248.926757812 25.935546875 226.43359375 13.7685546875 c 0
 201.46484375 3.1142578125 171.771484375 7.6357421875 149.23828125 22.0009765625 c 1
 149.235351562 22.001953125 l 1
EndSplineSet
Validated: 524321
EndChar

StartChar: w
Encoding: 22 119 22
Width: 895
Flags: W
HStem: 24.2988 54.4219<530.421 604.231>
VStem: 54.9111 70.9248<109.618 310.3>
LayerCount: 2
Fore
SplineSet
141.787109375 9.896484375 m 1
 83.50390625 45.708984375 47.736328125 115.155273438 54.9111328125 183.513671875 c 1
 52.755859375 264.48828125 67.0517578125 344.4921875 83.646484375 423.354492188 c 1
 84.607421875 454.4609375 99.1552734375 496.905273438 138.413085938 489.03515625 c 1
 175.271484375 469.62109375 138.865234375 421.840820312 134.430664062 392.103515625 c 1
 136.850585938 360.193359375 100.739257812 338.33984375 104.571289062 310.583007812 c 1
 121.702148438 304.833007812 111.782226562 280.2109375 125.8359375 274.954101562 c 1
 133.163085938 216.576171875 115.020507812 150.958007812 152.979492188 99.875 c 1
 176.796875 54.650390625 231.328125 85.2353515625 257.8515625 110.794921875 c 0
 289.528320312 140.96484375 329.788085938 162.22265625 353.518554688 199.16015625 c 1
 382.657226562 227.514648438 399.98046875 263.581054688 422.140625 297.03125 c 1
 431.0703125 324.874023438 469.1171875 351.0390625 483.147460938 311.286132812 c 0
 495.224609375 265.396484375 490.329101562 216.791992188 499.129882812 170.177734375 c 0
 504.919921875 133.58984375 523.442382812 94.5478515625 558.68359375 78.720703125 c 1
 601.853515625 78.47265625 624.110351562 126.688476562 649.360351562 155.326171875 c 0
 684.668945312 203.114257812 736.5703125 239.986328125 756.578125 298.147460938 c 1
 773.333007812 331.752929688 778.4296875 377.755859375 747.497070312 405.234375 c 1
 730.719726562 452.076171875 816.502929688 447.989257812 816.204101562 404.345703125 c 1
 834.828125 369.80859375 848.9453125 326.588867188 826.006835938 290.57421875 c 1
 807.783203125 245.58984375 780.201171875 205.328125 750.025390625 167.751953125 c 0
 716.85546875 119.587890625 670.318359375 83.0478515625 631.190429688 40.1201171875 c 1
 607.73046875 21.783203125 574.602539062 18.7783203125 548.068359375 24.298828125 c 1
 518.116210938 40.1513671875 489.188476562 49.666015625 469.580078125 80.5634765625 c 1
 447.680664062 106.053710938 443.935546875 140.65625 428.904296875 169.546875 c 1
 408.884765625 178.403320312 387.653320312 138.11328125 367.345703125 128.296875 c 1
 338.201171875 95.6533203125 315.807617188 55.7685546875 274.706054688 35.46875 c 1
 236.864257812 8.859375 187.069335938 -4.1171875 141.766601562 8.6201171875 c 1
 141.807617188 9.8984375 l 1
 141.787109375 9.896484375 l 1
EndSplineSet
Validated: 524321
EndChar

StartChar: x
Encoding: 23 120 23
Width: 517
Flags: W
HStem: 435.492 24.6768<75.775 113.71>
VStem: 92.9902 10.0557<42.1133 50.0948>
LayerCount: 2
Fore
SplineSet
420.372070312 8.177734375 m 1
 394.1953125 36.248046875 360.666992188 58.7548828125 343.299804688 93.9873046875 c 1
 324.890625 109.99609375 316.573242188 132.649414062 300.786132812 150.651367188 c 0
 274.376953125 181.748046875 242.46875 210.01953125 227.614257812 249.041992188 c 1
 211.756835938 252.596679688 200.200195312 220.6484375 185.569335938 211.323242188 c 1
 170 193.131835938 151.51171875 176.379882812 140.079101562 155.32421875 c 1
 130.962890625 127.201171875 108.22265625 104.5859375 103.045898438 75.30078125 c 0
 103.155273438 66.908203125 98.95703125 30.3193359375 92.990234375 42.11328125 c 0
 88.0625 63.80859375 44.4189453125 51.6767578125 50.59765625 81.5888671875 c 1
 77.3388671875 77.6787109375 48.5615234375 115.508789062 56.748046875 130.920898438 c 1
 57.4169921875 157.256835938 81.806640625 172.518554688 87.826171875 196.432617188 c 1
 104.021484375 217.643554688 117.858398438 240.659179688 136.2734375 259.940429688 c 1
 145.346679688 280.778320312 174.703125 302.188476562 160.561523438 325.490234375 c 0
 146.354492188 347.978515625 120.372070312 362.548828125 111.926757812 388.397460938 c 1
 116.921875 406.830078125 122.575195312 437.919921875 92.3720703125 435.4921875 c 1
 70.9375 423.571289062 64.607421875 451.7734375 84.0751953125 460.168945312 c 0
 111.046875 474.981445312 133.07421875 440.47265625 155.037109375 428.6171875 c 1
 178.064453125 410.262695312 200.234375 390.590820312 225.526367188 375.321289062 c 1
 251.845703125 381.184570312 272.143554688 400.676757812 295.278320312 413.479492188 c 0
 339.748046875 441.564453125 382.921875 473.890625 433.243164062 490.686523438 c 0
 458.811523438 502.737304688 483.348632812 473.846679688 460.294921875 453.953125 c 0
 442.41015625 439.443359375 423.219726562 424.65625 404.618164062 412.431640625 c 0
 384.55078125 403.723632812 374.022460938 384.401367188 353.13671875 376.891601562 c 1
 324.862304688 354.600585938 297.682617188 330.947265625 270.850585938 306.932617188 c 1
 308.774414062 260.544921875 342.505859375 210.853515625 375.4296875 160.870117188 c 0
 393.053710938 129.497070312 405.887695312 95.4765625 425.431640625 65.2236328125 c 1
 425.657226562 48.97265625 451.212890625 32.876953125 434.913085938 23.4365234375 c 1
 444.75390625 20.4990234375 460.994140625 11.7080078125 443.974609375 3.0166015625 c 0
 436.245117188 0.244140625 425.529296875 1.0126953125 420.374023438 8.177734375 c 1
 420.372070312 8.177734375 l 1
EndSplineSet
Validated: 524321
EndChar

StartChar: y
Encoding: 24 121 24
Width: 427
Flags: W
HStem: -257.774 4.39355<330.52 331.655>
VStem: 48.4707 319.142
LayerCount: 2
Fore
SplineSet
332.1171875 -253.391601562 m 1
 335.649414062 -231.7890625 313.547851562 -269.70703125 306.428710938 -244.717773438 c 1
 295.603515625 -225.1796875 283.390625 -201.909179688 281.665039062 -181.34375 c 1
 271.189453125 -146.939453125 273.178710938 -110.034179688 267.166015625 -74.98046875 c 1
 284.108398438 -1.3203125 279.801757812 75.0693359375 287.471679688 149.92578125 c 0
 292.184570312 194.1953125 293.278320312 239.931640625 308.629882812 282.069335938 c 1
 302.0234375 321.952148438 280.52734375 261.435546875 264.411132812 254 c 1
 239.907226562 232.146484375 216.122070312 204.498046875 181.98046875 199.23046875 c 1
 157.53125 190.059570312 130.6015625 196.578125 106.013671875 202.145507812 c 1
 65.1416015625 223.404296875 54.9033203125 274.022460938 48.470703125 315.717773438 c 0
 46.1064453125 346.538085938 43.6083984375 378.580078125 50.412109375 408.829101562 c 1
 64.8369140625 433.734375 62.5791015625 466.223632812 85.6025390625 487.002929688 c 1
 101.2578125 522.397460938 142.358398438 494.072265625 132.725585938 464.95703125 c 1
 103.905273438 454.337890625 111.3125 419.384765625 101.955078125 397.270507812 c 1
 99.384765625 359.97265625 98.072265625 321.563476562 106.088867188 284.865234375 c 0
 113.237304688 257.091796875 140.0546875 227.084960938 170.4765625 245.908203125 c 1
 239.09375 274.629882812 278.870117188 340.959960938 322.875 396.956054688 c 1
 336.71875 427.211914062 380.552734375 415.900390625 367.612304688 381.602539062 c 1
 366.581054688 351.938476562 349.59375 326.161132812 351.8828125 295.568359375 c 1
 346.495117188 239.923828125 339.625976562 184.405273438 335.094726562 128.713867188 c 0
 331.397460938 69.1005859375 332.682617188 8.439453125 318.723632812 -49.9150390625 c 1
 316.479492188 -103.674804688 317.192382812 -158.015625 325.030273438 -211.30859375 c 0
 324.370117188 -228.767578125 355.625 -252.436523438 330.51953125 -257.774414062 c 1
 332.038085938 -253.380859375 l 1
 332.1171875 -253.391601562 l 1
EndSplineSet
Validated: 524321
EndChar

StartChar: z
Encoding: 25 122 25
Width: 586
Flags: W
HStem: -0.800781 44.1748<438.07 501.143> 215.103 45.5518<401.6 522.516> 439.72 57.6484<98.3387 208.413>
LayerCount: 2
Fore
SplineSet
424.075195312 10.2646484375 m 1
 398.993164062 18.16796875 374.936523438 30.1337890625 355.7734375 48.37890625 c 1
 336.432617188 53.8408203125 323.387695312 76.548828125 308.973632812 91.427734375 c 0
 291.112304688 109.809570312 282.197265625 134.248046875 279.870117188 159.458007812 c 0
 276.037109375 182.094726562 275.317382812 205.671875 286.075195312 225.9140625 c 1
 293.782226562 260.716796875 256.720703125 235.764648438 239.081054688 236.123046875 c 0
 214.916992188 231.591796875 190.451171875 228.591796875 166.025390625 226.338867188 c 0
 154.12109375 222.608398438 159.668945312 189.708984375 142.069335938 208.638671875 c 0
 130.991210938 219.162109375 140.358398438 224.05078125 130.362304688 235.033203125 c 1
 136.024414062 265.025390625 168.901367188 276.961914062 194.493164062 285.762695312 c 0
 227.262695312 295.463867188 261.958984375 294.669921875 295.381835938 299.600585938 c 1
 309.15234375 323.552734375 289.787109375 353.143554688 277.408203125 374.467773438 c 0
 262.38671875 398.327148438 232.984375 404.461914062 209.879882812 417.615234375 c 1
 178.614257812 428.932617188 145.802734375 440.467773438 112.21875 439.719726562 c 0
 82.64453125 438.202148438 113.158203125 390.225585938 78.359375 403.004882812 c 1
 51.1591796875 408.201171875 32.23828125 441.25390625 49.8037109375 465.411132812 c 0
 60.587890625 485.876953125 80.2890625 503.865234375 105.206054688 497.368164062 c 1
 170.349609375 495.619140625 233.586914062 474.521484375 289.418945312 441.528320312 c 0
 313.334960938 431.661132812 336.2265625 417.473632812 344.37109375 391.213867188 c 1
 363.223632812 374.125 359.828125 345.987304688 365.3515625 322.913085938 c 0
 366.3671875 302.356445312 373.41015625 280.520507812 398.063476562 284.453125 c 1
 422.864257812 267.591796875 455.302734375 272.694335938 482.293945312 260.654296875 c 0
 498.802734375 250.940429688 533.298828125 245.752929688 526.287109375 219.35546875 c 0
 516.857421875 192.810546875 487.59375 220.341796875 466.596679688 215.102539062 c 1
 430.396484375 218.649414062 395.790039062 235.646484375 358.879882812 231.827148438 c 1
 351.444335938 213.602539062 347.252929688 190.859375 347.073242188 170.140625 c 0
 346.481445312 125.240234375 384.224609375 93.689453125 420.477539062 74.4384765625 c 0
 448.818359375 58.2314453125 479.815429688 45.6220703125 512.666992188 43.3740234375 c 1
 542.986328125 27.103515625 498.509765625 -1.9013671875 477.71484375 -0.80078125 c 1
 459.372070312 -4.4892578125 441.520507812 6.216796875 424.07421875 10.2646484375 c 1
 424.075195312 10.2646484375 l 1
EndSplineSet
Validated: 524321
EndChar

StartChar: A
Encoding: 26 65 26
Width: 712
Flags: W
HStem: 223.905 33.9043<602.307 652.255> 225.337 53.875<321.351 509.13>
VStem: 603.925 18.6279<21.0178 40.9156>
LayerCount: 2
Fore
SplineSet
63.4033203125 9.376953125 m 1x60
 38.4404296875 48.560546875 59.958984375 97.7724609375 75.7705078125 136.318359375 c 0
 106.032226562 210.544921875 132.329101562 286.5703125 169.728515625 357.697265625 c 0
 204.916015625 432.80078125 231.220703125 513.036132812 278.438476562 581.809570312 c 1
 296.614257812 592.13671875 347.998046875 602.010742188 313.499023438 629.122070312 c 0
 279.178710938 659.44921875 347.354492188 647.015625 359.010742188 667.083007812 c 1
 385.875976562 691.97265625 433.620117188 713.092773438 463.987304688 682.083984375 c 0
 486.641601562 657.399414062 495.036132812 624.237304688 510.479492188 595.373046875 c 1
 530.43359375 503.817382812 554.16796875 413.043945312 576.849609375 322.084960938 c 1
 571.786132812 284.774414062 611.083984375 264.984375 641.744140625 257.809570312 c 1
 682.384765625 254.104492188 648.12890625 213.048828125 621.77734375 223.905273438 c 1xa0
 576.365234375 226.717773438 608.82421875 170.920898438 609.694335938 146.373046875 c 0
 614.149414062 115.090820312 611.284179688 80.9833984375 622.552734375 51.8056640625 c 1
 624.576171875 32.5244140625 623.8203125 1.4052734375 603.924804688 28.62890625 c 0
 583.166015625 57.8583984375 562.734375 85.857421875 558.916015625 122.876953125 c 1
 546.09375 158.614257812 554.4296875 216.966796875 505.62890625 225.336914062 c 1
 466.715820312 226.102539062 427.38671875 220.243164062 388.538085938 215.530273438 c 0
 351.723632812 211.404296875 314.885742188 200.096679688 278.645507812 197.224609375 c 1
 259.913085938 207.568359375 227.6015625 203.5234375 238.999023438 176.364257812 c 1
 230.635742188 162.430664062 179.20703125 161.6875 207.131835938 182.009765625 c 1
 176.80859375 196.305664062 229.424804688 223.875976562 230.560546875 245.099609375 c 0
 229.768554688 261.880859375 248.071289062 276.657226562 253.03515625 276.11328125 c 1
 241.438476562 292.6328125 274.048828125 313.627929688 267.677734375 285.860351562 c 1
 271.692382812 272.774414062 251.762695312 248.129882812 279.030273438 255.868164062 c 0
 325.815429688 264.219726562 371.505859375 280.106445312 419.618164062 279.211914062 c 0
 450.068359375 280.189453125 481.361328125 279.556640625 510.497070312 289.8046875 c 1
 516.50390625 324.256835938 492.466796875 355.190429688 491.78515625 389.547851562 c 1
 483.961914062 430.135742188 479.655273438 471.409179688 470.741210938 511.666015625 c 0
 460.268554688 546.740234375 437.490234375 577.409179688 432.233398438 613.951171875 c 1
 416.604492188 659.4375 373.907226562 613.501953125 364.418945312 587.9765625 c 0
 352.098632812 562.813476562 337.828125 529.034179688 327.6484375 514.1640625 c 1
 334.454101562 483.924804688 313.364257812 455.711914062 292.767578125 435.8359375 c 1
 333.390625 441.999023438 300.611328125 397.696289062 276.508789062 410.393554688 c 1
 249.34375 396.7421875 234.760742188 362.405273438 226.541992188 330.845703125 c 1
 199.225585938 274.442382812 171.627929688 218.041992188 149.486328125 159.346679688 c 0
 133.471679688 124.387695312 112.8671875 90.7958984375 105.418945312 52.587890625 c 1
 137.0703125 27.4541015625 134.455078125 114.774414062 174.700195312 82.2470703125 c 1
 161.276367188 64.3974609375 144.676757812 44.9521484375 139.00390625 20.87109375 c 1
 122.4140625 -2.013671875 84.560546875 -15.3134765625 63.4033203125 9.37890625 c 1
 63.4033203125 9.376953125 l 1x60
EndSplineSet
Validated: 524321
EndChar

StartChar: B
Encoding: 27 66 27
Width: 782
Flags: W
HStem: -16.7871 92.9053<263.904 468.851> 634.604 60.3779<160.566 324.434>
VStem: 47.1309 54.9863<422.317 591.186>
LayerCount: 2
Fore
SplineSet
295.05859375 694.983398438 m 1
 242.166992188 693.239257812 182.16015625 697.263671875 139.3203125 660.280273438 c 1
 103.1875 641.235351562 50.8681640625 625.387695312 47.130859375 577.271484375 c 1
 53.0234375 530.822265625 29.3759765625 479.88671875 60.384765625 438.170898438 c 1
 80.2177734375 396.41796875 87.013671875 350.037109375 108.782226562 309.3203125 c 1
 131.338867188 238.171875 154.029296875 166.862304688 166.185546875 93 c 0
 180.359375 24.0419921875 192.138671875 -47.826171875 226.516601562 -109.966796875 c 1
 270.939453125 -149.884765625 301.727539062 -67.49609375 274.766601562 -34.630859375 c 0
 259.87890625 -10.810546875 263.830078125 38.5791015625 300.188476562 9.84765625 c 1
 353.354492188 -12.234375 412.27734375 -12.30078125 468.850585938 -16.787109375 c 0
 505.158203125 -15.8505859375 541.930664062 -13.4638671875 577.650390625 -8.0439453125 c 1
 619.3515625 8.5146484375 667.424804688 19.1943359375 698.465820312 53.6826171875 c 0
 737.485351562 103.826171875 729.487304688 177.41796875 691.48828125 225.724609375 c 1
 663.23046875 270.267578125 622.256835938 303.564453125 583.1796875 338.032226562 c 1
 557.428710938 353.610351562 482.807617188 396.877929688 544.057617188 416.767578125 c 1
 585.8359375 435.875976562 628.737304688 461.595703125 654.090820312 500.818359375 c 1
 674.46875 548.545898438 635.697265625 596.259765625 594.676757812 617.09765625 c 0
 508.935546875 668.305664062 409.262695312 696.229492188 309.239257812 694.79296875 c 0
 304.510742188 694.92578125 299.784179688 694.939453125 295.05859375 694.981445312 c 1
 295.05859375 694.983398438 l 1
325.981445312 638.673828125 m 1
 411.361328125 630.462890625 499.177734375 612.328125 572.465820312 566.163085938 c 1
 606.758789062 525.665039062 557.481445312 469.349609375 513.7421875 464.666992188 c 0
 475.772460938 464.440429688 453.505859375 434.440429688 437.126953125 408.745117188 c 1
 425.077148438 443.065429688 398.3671875 410.11328125 419.388671875 390.360351562 c 0
 446.301757812 358.251953125 488.658203125 344.275390625 515.59765625 311.668945312 c 1
 547.514648438 281.474609375 579.551757812 251.158203125 615.200195312 225.337890625 c 1
 644.560546875 189.231445312 677.53125 140.474609375 641.373046875 96.486328125 c 0
 613.223632812 56.357421875 559.874023438 59.5498046875 518.000976562 44.619140625 c 0
 476.264648438 32.6083984375 431.294921875 33.0009765625 390.875 49.5302734375 c 1
 349.325195312 61.3095703125 307.668945312 76.5029296875 263.904296875 76.1181640625 c 1
 296.984375 56.5205078125 250.78125 62.646484375 253.296875 86.53515625 c 1
 243.993164062 117.138671875 220.876953125 140.9765625 219.280273438 173.952148438 c 1
 202.677734375 266.221679688 185 359.408203125 189.388671875 453.625 c 1
 219.420898438 478.749023438 164.690429688 535.015625 144.891601562 488.083007812 c 1
 125.479492188 463.434570312 115.061523438 432.225585938 142.592773438 409.333007812 c 1
 111.107421875 419.325195312 107.004882812 461.078125 102.1171875 489.586914062 c 1
 101.474609375 520.965820312 98.5087890625 556.614257812 116.176757812 584.005859375 c 0
 143.450195312 616.956054688 188.989257812 619.104492188 226.028320312 634.603515625 c 1
 259.329101562 636.020507812 293.045898438 632.010742188 325.978515625 638.674804688 c 1
 325.981445312 638.673828125 l 1
EndSplineSet
Validated: 524329
EndChar

StartChar: C
Encoding: 28 67 28
Width: 926
HStem: 3.46387 69.3369<292.509 600.78> 100.548 29.7666<832.016 864.68>
LayerCount: 2
Fore
SplineSet
292.508789062 3.400390625 m 1
 251.413085938 11.486328125 210.9375 26.080078125 175.309570312 48.228515625 c 0
 147.619140625 66.8095703125 118.938476562 87.6640625 97.8857421875 115.438476562 c 0
 66.78515625 149.376953125 57.271484375 194.674804688 47.5 237.918945312 c 0
 40.4951171875 256.840820312 60.33984375 273.163085938 59.470703125 283.470703125 c 0
 57.0400390625 319.6796875 77.4755859375 356.724609375 89.6103515625 391.28515625 c 0
 100.360351562 417.717773438 119.619140625 435.66015625 115.212890625 460.33984375 c 1
 135.055664062 499.853515625 167.565429688 530.76953125 203.331054688 555.836914062 c 1
 234.528320312 590.86328125 278.072265625 612.147460938 313.53125 642.615234375 c 1
 342.3203125 653.290039062 362.0859375 672.895507812 393.163085938 681.434570312 c 1
 429.421875 705.282226562 476.151367188 695.250976562 516.876953125 692.805664062 c 0
 568.975585938 685.440429688 625.821289062 679.06640625 665.328125 640.454101562 c 0
 693.438476562 617.8828125 719.946289062 587.950195312 715.727539062 549.288085938 c 1
 725.294921875 517.28125 711.221679688 452.029296875 669.322265625 494.05078125 c 0
 647.670898438 519.985351562 652.94140625 562.725585938 619.533203125 583.040039062 c 1
 557.997070312 640.44921875 461.579101562 645.926757812 388.465820312 608.259765625 c 1
 364.362304688 591.09765625 326.9375 603.405273438 326.973632812 569.178710938 c 1
 310.438476562 541.6015625 256.689453125 529.654296875 263.440429688 493.950195312 c 1
 231.889648438 497.903320312 211.348632812 456.3125 193.254882812 433.588867188 c 0
 167.786132812 391.340820312 141.84765625 346.672851562 136.124023438 296.876953125 c 1
 125.020507812 249.2734375 141.720703125 199.245117188 164.330078125 157.44140625 c 1
 192.055664062 120.197265625 238.119140625 102.54296875 279.103515625 83.6611328125 c 1
 332.997070312 65.8603515625 390.936523438 73.9443359375 446.763671875 72.80078125 c 0
 541.770507812 71.896484375 633.73046875 101.08984375 728.022460938 107.415039062 c 1
 759.89453125 121.400390625 803.518554688 122.098632812 831.90625 130.314453125 c 1
 858.0390625 164.828125 895.861328125 119.545898438 855.252929688 100.547851562 c 1
 827.123046875 82.3525390625 802.3125 67.640625 767.767578125 67.384765625 c 1
 733.764648438 56.7109375 706.411132812 40.0712890625 671.344726562 38.0712890625 c 0
 604.013671875 28.435546875 538.49609375 6.322265625 470.088867188 3.3115234375 c 0
 411.018554688 0.4443359375 351.48046875 -2.12109375 292.508789062 3.4638671875 c 1
 292.508789062 3.400390625 l 1
EndSplineSet
Validated: 524321
EndChar

StartChar: D
Encoding: 29 68 29
Width: 819
Flags: W
HStem: -0.996094 51.8262<136.566 191.807>
VStem: 231.815 44.6172<63.4794 310.465> 712.542 52.8398<349.165 516.479>
LayerCount: 2
Fore
SplineSet
262.178710938 -10.033203125 m 1
 238.501953125 13.7626953125 199.809570312 -8.7587890625 169.807617188 -0.99609375 c 1
 138.581054688 -4.5546875 92.8388671875 24.0478515625 133.686523438 50.830078125 c 1
 152.581054688 51.1748046875 170.814453125 28.841796875 192.836914062 43.70703125 c 1
 237.928710938 29.4931640625 240.786132812 70.876953125 231.815429688 102.359375 c 1
 227.541992188 186.14453125 225.533203125 270.056640625 217.041992188 353.551757812 c 1
 223.091796875 385.41796875 196.360351562 427.650390625 219.965820312 451.978515625 c 1
 267.38671875 474.330078125 257.641601562 405.297851562 261.120117188 378.118164062 c 0
 262.655273438 323.022460938 267.43359375 268.172851562 273.08203125 213.44140625 c 1
 269.806640625 187.647460938 282.556640625 147.446289062 276.432617188 131.142578125 c 0
 272.55859375 103.774414062 271.345703125 52.1201171875 313.817382812 63.439453125 c 0
 336.474609375 69.8525390625 362.58984375 70.5048828125 383.6875 89.05078125 c 1
 416.677734375 95.3388671875 445.008789062 111.267578125 471.971679688 130.33984375 c 0
 496.407226562 147.01171875 512.504882812 169.3203125 540.904296875 181.59375 c 1
 564.814453125 209.62109375 601.610351562 223.092773438 625.504882812 252.452148438 c 0
 648.719726562 277.833984375 671.395507812 304.448242188 683.370117188 337.099609375 c 1
 701.919921875 364.94140625 713.7421875 398.43359375 712.541992188 431.983398438 c 0
 712.126953125 475.640625 700.409179688 524.052734375 659.948242188 547.686523438 c 1
 636.19140625 569.606445312 611.23046875 590.072265625 582.305664062 601.000976562 c 0
 542.759765625 612.315429688 504.93359375 629.90234375 463.657226562 635.041992188 c 0
 386.59375 647.7734375 305.514648438 654.0390625 230.415039062 627.827148438 c 0
 170.50390625 610.90234375 113.010742188 578.264648438 72.3173828125 530.767578125 c 1
 69.5791015625 512.728515625 43.044921875 503.62890625 46.171875 529.5703125 c 1
 24.0009765625 554.521484375 67.4775390625 583.61328125 83.478515625 601.7890625 c 0
 138.96875 652.140625 212.319335938 680.458984375 285.795898438 690.98828125 c 0
 368.596679688 698.66015625 453.963867188 697.122070312 534.388671875 674.297851562 c 1
 563.9609375 656.774414062 600.0859375 659.241210938 629.427734375 641.19140625 c 0
 664.647460938 620.328125 692.09375 588.668945312 722.190429688 561.313476562 c 0
 760.713867188 523.782226562 766.862304688 465.797851562 765.381835938 414.935546875 c 1
 757.75390625 364.944335938 734.10546875 317.68359375 703.697265625 277.762695312 c 0
 672.4140625 242.654296875 642.090820312 205.575195312 604.895507812 176.62890625 c 0
 576.81640625 155.060546875 548.139648438 132.500976562 517.1484375 114.267578125 c 0
 489.263671875 95.1015625 463.580078125 72.515625 429.466796875 64.40625 c 0
 390.537109375 58.8857421875 364.311523438 23.9755859375 323.96875 19.783203125 c 1
 291.05078125 21.3349609375 302.862304688 -39.4111328125 267.206054688 -15.2705078125 c 1
 262.165039062 -10.04296875 l 1
 262.178710938 -10.033203125 l 1
EndSplineSet
Validated: 524321
EndChar

StartChar: E
Encoding: 30 69 30
Width: 754
Flags: W
HStem: 649.055 45.2324<426.665 680.718>
VStem: 115.852 75.877<497.889 534.179>
LayerCount: 2
Fore
SplineSet
95.2626953125 551.586914062 m 0
 64.4521484375 584.1953125 127.833007812 596.483398438 148.776367188 610.48046875 c 1
 230.463867188 646.9140625 317.864257812 668.580078125 405.032226562 687.290039062 c 1
 481.811523438 697.495117188 560.124023438 702.326171875 637.314453125 694.287109375 c 1
 654.110351562 683.561523438 675.267578125 678.572265625 691.862304688 665.037109375 c 1
 700.751953125 650.629882812 703.989257812 649.958984375 683.51171875 647.549804688 c 1
 664.321289062 631.9375 630.426757812 653.833007812 604.743164062 649.0546875 c 1
 546.977539062 652.275390625 487.264648438 655.106445312 431.889648438 635.797851562 c 1
 351.18359375 624.395507812 273.220703125 599.07421875 193.299804688 584.001953125 c 0
 161.725585938 577.001953125 135.723632812 548.513671875 108.944335938 539.541992188 c 1
 103.701171875 542.713867188 99.6533203125 547.44921875 95.2626953125 551.586914062 c 0
301.8046875 3.9345703125 m 2
 265.279296875 14.5458984375 224.912109375 16.4091796875 195.4296875 43.05859375 c 1
 165.997070312 54.3076171875 144.57421875 80.125 122.307617188 101.69140625 c 1
 103.9765625 126.161132812 87.4501953125 152.161132812 76.8583984375 182.313476562 c 1
 73.8701171875 203.475585938 53.5498046875 225.57421875 54.7314453125 239.786132812 c 1
 65.90625 253.716796875 30.4072265625 255.822265625 52.26953125 272.493164062 c 1
 61.6220703125 313.028320312 57.2900390625 356.1640625 74.087890625 395.19921875 c 0
 86.2666015625 423.118164062 93.107421875 453.384765625 106.870117188 480.459960938 c 1
 126.5546875 487.256835938 117.791992188 492.177734375 115.8515625 507.790039062 c 1
 136.984375 524.42578125 144.348632812 562.329101562 175.764648438 555.6328125 c 1
 192.395507812 559.7578125 195.487304688 551.25 191.728515625 536.353515625 c 1
 202.998046875 496.720703125 150.081054688 504.5234375 151.25390625 469.14453125 c 0
 153.202148438 435.0078125 131.677734375 407.728515625 128.016601562 374.470703125 c 0
 127.764648438 351.659179688 106.501953125 304.793945312 126.173828125 295.147460938 c 1
 145.370117188 309.107421875 187.658203125 315.516601562 196.305664062 310.73046875 c 1
 208.715820312 336.888671875 255.869140625 334.692382812 282.265625 347.340820312 c 1
 329.338867188 362.399414062 377.899414062 375.327148438 427.744140625 374.00390625 c 1
 440.078125 363.42578125 438.46484375 364.337890625 450.137695312 378.235351562 c 1
 459.009765625 364.274414062 500.739257812 343.346679688 473.744140625 371.517578125 c 1
 460.569335938 397.237304688 507.877929688 371.517578125 515.944335938 369.713867188 c 1
 505.55078125 333.584960938 454.545898438 351.028320312 428.633789062 335.076171875 c 1
 396.959960938 327.858398438 365.663085938 317.875976562 333.860351562 312.002929688 c 1
 272.393554688 289.935546875 207.456054688 277.015625 148.1484375 249.311523438 c 1
 113.796875 227.612304688 143.40625 185.733398438 158.189453125 160.956054688 c 1
 190.418945312 121.259765625 230.53515625 85.6611328125 280.865234375 71.7119140625 c 1
 352.748046875 44.4833984375 431.059570312 52.59765625 505.633789062 60.8232421875 c 1
 539.833007812 73.4208984375 577.203125 74.58203125 611.73828125 86.77734375 c 1
 635.29296875 80.91015625 652.49609375 114.57421875 669.140625 95.2001953125 c 1
 679.447265625 118.489257812 732.184570312 79.3662109375 690.732421875 77.1630859375 c 0
 669.5234375 77.4501953125 671.56640625 48.732421875 646.091796875 53.2001953125 c 1
 607.107421875 33.9638671875 566.041992188 18.4326171875 522.586914062 13.142578125 c 1
 474.282226562 -1.056640625 424.061523438 -7.6328125 373.677734375 -4.8662109375 c 0
 349.619140625 -3.9326171875 324.965820312 -2.1455078125 301.810546875 3.93359375 c 2
 301.8046875 3.9345703125 l 2
EndSplineSet
Validated: 524321
EndChar

StartChar: F
Encoding: 31 70 31
Width: 964
Flags: W
HStem: 258.333 51.8066<474.432 708.866> 275.724 31.8643<537.495 761.1> 641.476 53.501<487.078 716.473>
LayerCount: 2
Fore
SplineSet
513.966796875 -1.4404296875 m 1xa0
 495.444335938 23.4453125 462.0234375 48.89453125 463.932617188 81.185546875 c 1
 438.833984375 114.254882812 420.786132812 155.06640625 419.645507812 197.206054688 c 1
 424.366210938 253.5859375 367.432617188 249.259765625 330.270507812 234.489257812 c 1
 295.77734375 227.643554688 251.79296875 213.375976562 235.529296875 256.053710938 c 1
 248.498046875 261.639648438 268.524414062 285.549804688 281.302734375 263.221679688 c 1
 294.001953125 285.869140625 333.577148438 287.813476562 359.313476562 287.368164062 c 1
 370.51171875 304.388671875 415.400390625 296.763671875 406.891601562 333.869140625 c 1
 414.859375 399.482421875 409.529296875 466.642578125 419.662109375 532.234375 c 1
 405.134765625 558.1953125 413.778320312 603.435546875 436.66015625 621.588867188 c 1
 439.3125 650.934570312 379.873046875 630.60546875 357.651367188 633.0859375 c 1
 269.40234375 621.349609375 180.94140625 602.936523438 98.423828125 568.87890625 c 1
 86.546875 556.5703125 66.18359375 549.223632812 58.314453125 540.469726562 c 0
 51.6669921875 535.981445312 23.4697265625 594.047851562 57.3759765625 597.088867188 c 1
 75.2177734375 629.140625 120.194335938 633.501953125 151.33984375 648.553710938 c 0
 201.271484375 666.3515625 253.190429688 678.354492188 305.485351562 685.51953125 c 0
 392.637695312 700.548828125 481.797851562 695.33203125 569.869140625 694.9765625 c 0
 658.241210938 693.295898438 745.856445312 679.060546875 831.458007812 657.818359375 c 1
 868.126953125 657.137695312 904.631835938 640.430664062 920.887695312 606.186523438 c 1
 904.311523438 586.994140625 880.599609375 627.013671875 855.297851562 616.01171875 c 1
 737.002929688 629.1796875 618.291992188 643.366210938 499.03515625 641.475585938 c 1
 467.64453125 618.106445312 482.318359375 563.716796875 475.196289062 527.716796875 c 1
 472.063476562 455.193359375 472.374023438 382.451171875 465.450195312 310.139648438 c 1xa0
 547.87890625 311.2890625 630.514648438 314.076171875 712.719726562 307.587890625 c 1
 732.260742188 314.297851562 787.211914062 312.366210938 761.251953125 284.081054688 c 1
 758.303710938 269.479492188 736.088867188 304.033203125 734.279296875 275.723632812 c 1x60
 658.71484375 263.741210938 581.453125 265.715820312 505.31640625 258.333007812 c 0
 450.759765625 257.033203125 481.787109375 192.106445312 485.819335938 159.466796875 c 1
 498.55859375 119.188476562 504.543945312 77.0126953125 523.055664062 38.6943359375 c 0
 525.508789062 29.05859375 520.428710938 -3.212890625 513.970703125 -1.4384765625 c 2
 513.966796875 -1.4404296875 l 1xa0
EndSplineSet
Validated: 524321
EndChar

StartChar: G
Encoding: 32 71 32
Width: 941
Flags: W
HStem: 231.649 30.6104<565.223 605.701> 628.573 61.6123<428.614 616.272>
VStem: 799.597 48.7295<-125.36 25.7172>
LayerCount: 2
Fore
SplineSet
835.73828125 -152.407226562 m 1
 822.005859375 -129.999023438 818.01171875 -112.690429688 799.596679688 -93.7353515625 c 1
 788.15234375 -34.5107421875 807.137695312 25.404296875 810.81640625 84.4580078125 c 1
 770.907226562 110.89453125 745.530273438 48.400390625 703.229492188 54.9951171875 c 1
 660.227539062 37.87109375 614.209960938 30.6103515625 571.3828125 12.66796875 c 1
 470.537109375 -17.2529296875 363.096679688 -14.083984375 259.583984375 -2.794921875 c 1
 205.7265625 10.3046875 157.733398438 40.9404296875 115.2109375 75.5234375 c 0
 84.501953125 98.9833984375 73.4326171875 140.495117188 57.2509765625 174.536132812 c 0
 37.01953125 227.525390625 53.5576171875 286.639648438 72.5830078125 337.608398438 c 1
 90.28125 366.67578125 101.022460938 402.201171875 126.993164062 421.959960938 c 1
 109.258789062 438.140625 149.70703125 436.09375 147.305664062 459.31640625 c 1
 175.541992188 489.513671875 195.543945312 527.610351562 235.348632812 543.614257812 c 1
 259.030273438 574.057617188 300.661132812 587.004882812 330.395507812 612.745117188 c 1
 387.684570312 649.56640625 448.5234375 690.0078125 519.29296875 690.185546875 c 0
 555.927734375 690.501953125 602.62890625 707.685546875 628.580078125 672.220703125 c 1
 662.35546875 646.63671875 672.715820312 601.784179688 661.610351562 562.442382812 c 1
 626.666992188 574.979492188 619.444335938 628.358398438 575.10546875 628.573242188 c 1
 522.534179688 639.458007812 465.115234375 631.853515625 419.865234375 602.03125 c 1
 381.592773438 589.497070312 355.885742188 553.645507812 318.612304688 537.404296875 c 1
 276.725585938 504.751953125 239.653320312 466.278320312 200.333007812 430.704101562 c 1
 180.479492188 393.756835938 156.3984375 358.094726562 138.8671875 319.5390625 c 0
 120.9375 272.21484375 109.204101562 214.977539062 138.075195312 169.372070312 c 1
 154.99609375 125.268554688 192.735351562 95.5498046875 236.262695312 79.861328125 c 0
 311.287109375 47.1015625 395.684570312 52.5673828125 475.505859375 57.146484375 c 1
 520.911132812 55.2431640625 557.041015625 84.4755859375 600.908203125 89.5224609375 c 0
 652.954101562 99.8603515625 706.89453125 100.188476562 756.931640625 119.383789062 c 1
 816.15234375 115.828125 803.416015625 192.438476562 758.793945312 203.330078125 c 1
 719.797851562 227.563476562 672.807617188 237.250976562 626.797851562 231.649414062 c 1
 605.37109375 218.734375 534.288085938 236.201171875 568.51171875 262.259765625 c 1
 609.618164062 280.47265625 652.870117188 296.676757812 698.716796875 284.590820312 c 1
 748.90234375 278.388671875 804.036132812 269.04296875 836.052734375 225.20703125 c 1
 871.40234375 194.01953125 884.45703125 148.021484375 879.307617188 102.333007812 c 1
 880.2578125 65.18359375 871.549804688 29.3671875 861.930664062 -5.7802734375 c 0
 854.4453125 -52.54296875 861.046875 -101.18359375 848.326171875 -147.014648438 c 0
 846.774414062 -152.14453125 840.484375 -154.840820312 835.737304688 -152.407226562 c 2
 835.73828125 -152.407226562 l 1
EndSplineSet
Validated: 524321
EndChar

StartChar: H
Encoding: 33 72 33
Width: 619
Flags: W
HStem: 218.771 55.5664<216.852 346.179> 259.031 20.3867<513.852 549.854>
VStem: 65.416 51.4023<242.043 424.266> 342.866 66.4873<561.229 683.823> 347.933 64.1543<3.21144 217.354 321.323 556.705>
LayerCount: 2
Fore
SplineSet
415.548828125 -72.6708984375 m 1x68
 377.28125 -53.9501953125 371.102539062 -6.8349609375 365.013671875 30.6845703125 c 1
 364.47265625 62.734375 348.177734375 91.03515625 350.971679688 123.745117188 c 1
 347.456054688 155.123046875 351.487304688 188.607421875 344.15625 218.770507812 c 1
 313.126953125 223.55859375 281.579101562 211.986328125 250.84375 207.084960938 c 0
 210.483398438 198.491210938 170.424804688 188.557617188 130.233398438 179.221679688 c 1
 133.654296875 137.204101562 142.217773438 95.8642578125 147.0390625 54.0634765625 c 1
 159.322265625 41.7138671875 171.14453125 5.578125 140.267578125 14.4775390625 c 1
 120.891601562 36.2138671875 101.024414062 59.9248046875 93.1181640625 88.859375 c 0
 83.0068359375 115.76953125 83.6611328125 152.201171875 54.0185546875 165.22265625 c 1
 38.0849609375 179.392578125 75.34765625 187.91796875 65.416015625 209.45703125 c 1
 58.78515625 326.880859375 55.1025390625 444.461914062 52.865234375 562.060546875 c 1
 56.7333984375 573.2890625 69.8896484375 581.05859375 77.5458984375 590.69921875 c 0
 89.9775390625 609.616210938 135.317382812 603.044921875 107.043945312 632.748046875 c 1
 71.8837890625 638.481445312 90.205078125 682.939453125 121.489257812 677.177734375 c 1
 163.583984375 662.000976562 133.22265625 618.002929688 121.853515625 591.506835938 c 1
 112.926757812 529.41796875 118.318359375 466.21875 116.818359375 403.669921875 c 0
 118.228515625 349.000976562 113.57421875 293.713867188 121.046875 239.500976562 c 1
 145.203125 233.766601562 178.700195312 248.4140625 206.62890625 250.466796875 c 0
 247.873046875 259.225585938 288.251953125 273.513671875 330.788085938 274.336914062 c 1
 359.421875 287.044921875 340.34375 334.46875 347.932617188 361.15234375 c 1xa8
 350.525390625 427.33984375 349.139648438 493.825195312 355.252929688 559.797851562 c 1
 369.481445312 590.409179688 341.025390625 616.412109375 342.866210938 643.913085938 c 1
 326.327148438 665.462890625 357.916992188 714.853515625 384.4765625 686.493164062 c 1
 414.409179688 668.513671875 404.103515625 628.545898438 409.353515625 599.1875 c 0xb0
 411.915039062 540.95703125 417.0078125 482.314453125 412.086914062 424.161132812 c 0
 406.147460938 389.161132812 411.169921875 353.090820312 422.45703125 319.758789062 c 1
 407.506835938 305.150390625 410.76953125 281.188476562 438.563476562 285.709960938 c 1
 462.23046875 264.912109375 489.728515625 294.90234375 513.484375 285.833984375 c 1
 521.153320312 266.014648438 540.58984375 309.502929688 549.2734375 279.41796875 c 1
 561.55859375 279.293945312 580.400390625 270.28125 562.305664062 259.03125 c 1
 530.73046875 254.233398438 496.900390625 259.03125 468.809570312 241.232421875 c 1
 439.223632812 238.548828125 394.186523438 228.465820312 413.8359375 188.939453125 c 1
 417.204101562 138.158203125 406.28515625 86.7978515625 418.463867188 36.552734375 c 0
 426.340820312 9.0009765625 422.432617188 -24.0390625 438.765625 -47.8173828125 c 0
 455.7734375 -66.8046875 439.080078125 -93.1064453125 415.557617188 -72.625 c 1
 415.548828125 -72.6708984375 l 1x68
EndSplineSet
Validated: 524321
EndChar

StartChar: I
Encoding: 34 73 34
Width: 201
Flags: W
VStem: 61.8818 60.9775<73.4899 630.378> 95.5029 4.41016<1.90234 7.90639>
LayerCount: 2
Fore
SplineSet
82.400390625 72.615234375 m 1x80
 66.8076171875 91.138671875 72.36328125 118.46875 60.9365234375 138.094726562 c 1
 60.595703125 215.638671875 58.970703125 293.265625 53.7958984375 370.642578125 c 0
 50.2685546875 410.876953125 59.46875 451.17578125 61.8818359375 491.365234375 c 0
 67.2333984375 550.719726562 65.5068359375 612.04296875 88.486328125 668.205078125 c 0
 91.2822265625 674.717773438 101.15625 704.98828125 105.55859375 685.5546875 c 1
 111.484375 694.115234375 114.649414062 713.565429688 118.784179688 693.786132812 c 1
 127.39453125 674.208007812 147.341796875 657.361328125 136.086914062 633.8359375 c 1
 128.892578125 560.080078125 130.310546875 485.758789062 122.859375 411.991210938 c 0
 116.838867188 305.14453125 113.631835938 197.899414062 119.0390625 90.9697265625 c 0
 121.419921875 72.74609375 95.4404296875 61.5146484375 82.3994140625 72.615234375 c 1
 82.400390625 72.615234375 l 1x80
95.50390625 11.2373046875 m 1
 94.25 26.3671875 80.4697265625 35.1884765625 94.9736328125 44.0478515625 c 1
 73.869140625 35.30859375 79.2216796875 69.6552734375 91.2802734375 57.0556640625 c 1
 100.637695312 38.1240234375 106.240234375 79.69140625 123.794921875 58.9580078125 c 1
 122.970703125 45.1953125 126.44921875 33.6015625 134.115234375 25.916015625 c 1
 125.936523438 16.224609375 110.185546875 20.943359375 127.53515625 9.33203125 c 1
 125.470703125 -4.2197265625 102.146484375 22.1083984375 99.9130859375 1.90234375 c 1
 93.5634765625 -0.96484375 93.5029296875 7.9296875 95.5029296875 11.2373046875 c 2x40
 95.50390625 11.2373046875 l 1
108.232421875 -25.080078125 m 1
 81.263671875 -13.2177734375 122.204101562 -11.9072265625 125.733398438 -20.212890625 c 1
 137.974609375 3.6943359375 147.086914062 -32.5869140625 124.743164062 -28.2783203125 c 0
 119.137695312 -27.8427734375 113.668945312 -26.455078125 108.239257812 -25.080078125 c 2
 108.232421875 -25.080078125 l 1
EndSplineSet
Validated: 524321
EndChar

StartChar: J
Encoding: 35 74 35
Width: 460
Flags: W
VStem: 98.8604 31.6504<-163.103 -139.048> 347.479 34.7217<15.8379 414.357>
LayerCount: 2
Fore
SplineSet
122.951171875 603.743164062 m 1
 144.586914062 616.35546875 115.846679688 590.50390625 122.951171875 603.743164062 c 1
100.173828125 592.873046875 m 1
 88.1865234375 602.443359375 69.703125 608.026367188 96.494140625 612.03515625 c 0
 115.16015625 618.39453125 122.668945312 587.360351562 100.173828125 592.873046875 c 1
120.991210938 36.65625 m 1
 118 59.314453125 104.338867188 7.3623046875 120.991210938 36.65625 c 1
84.708984375 -112.74609375 m 0
 69.1240234375 -78.0869140625 70.091796875 -37.494140625 74.416015625 -0.2646484375 c 1
 90.7138671875 50.7255859375 120.517578125 101.0703125 168.43359375 127.887695312 c 1
 189.443359375 133.568359375 180.877929688 156.756835938 211.315429688 155.387695312 c 1
 235.795898438 158.84375 195.486328125 120.37890625 187.874023438 112.6796875 c 0
 162.604492188 85.421875 140.45703125 54.138671875 124.483398438 20.38671875 c 1
 107.802734375 -3.0595703125 113.586914062 -24.072265625 104.390625 -47.556640625 c 1
 104.575195312 -68.6533203125 92.958984375 -88.8857421875 93.55859375 -114.01953125 c 1
 101.771484375 -123.799804688 85.1015625 -115.978515625 84.708984375 -112.74609375 c 0
352.709960938 689.59375 m 1
 335.206054688 700.263671875 325.251953125 673.352539062 352.709960938 689.59375 c 1
357.029296875 629.458007812 m 1
 384.1484375 651.088867188 353.420898438 690.006835938 335.490234375 651.905273438 c 0
 331.081054688 637.595703125 338.9453125 608.80859375 357.029296875 629.458007812 c 1
195.135742188 -211.311523438 m 1
 178.625976562 -212.56640625 183.59765625 -227.729492188 195.135742188 -211.311523438 c 1
176.215820312 -242.420898438 m 1
 143.344726562 -222.80078125 107.510742188 -197.620117188 98.8603515625 -158.219726562 c 1
 83.7119140625 -135.658203125 123.040039062 -139.819335938 130.510742188 -124.984375 c 1
 136.760742188 -153.9921875 154.409179688 -182.555664062 179.196289062 -199.494140625 c 0
 212.419921875 -228.80859375 249.19921875 -202.942382812 263.508789062 -168.751953125 c 1
 286.155273438 -133.717773438 300.969726562 -94.0673828125 313.08984375 -54.419921875 c 0
 322.076171875 -18.1064453125 330.952148438 17.509765625 339.775390625 53.9677734375 c 1
 339.451171875 85.9814453125 346.6328125 115.78515625 347.478515625 147.626953125 c 0
 351.028320312 197.827148438 355.331054688 248.091796875 348.853515625 298.263671875 c 1
 345.038085938 381.678710938 340.405273438 465.609375 322.84765625 547.427734375 c 1
 305.494140625 567.616210938 263.5859375 542.724609375 238.45703125 539.162109375 c 0
 186.8828125 527.651367188 131.822265625 529.998046875 81.0498046875 544.716796875 c 1
 60.47265625 557.702148438 27.0302734375 584.734375 45.248046875 609.983398438 c 1
 63.8720703125 616.44921875 63.203125 565.904296875 84.88671875 571.698242188 c 1
 108.599609375 596.099609375 135.346679688 560.305664062 155.71875 573.546875 c 1
 203.16015625 571.306640625 250.5703125 580.758789062 296.672851562 591.119140625 c 1
 319.658203125 606.501953125 315.633789062 643.254882812 301.090820312 662.254882812 c 1
 308.155273438 685.033203125 350.59765625 721.212890625 360.161132812 681.18359375 c 1
 385.916992188 715.466796875 419.598632812 661.875 403.065429688 635.623046875 c 0
 388.594726562 604.431640625 344.797851562 580.389648438 367.024414062 540.563476562 c 1
 387.858398438 433.682617188 379.983398438 324.209960938 382.200195312 216.018554688 c 0
 381.064453125 152.640625 384.526367188 88.533203125 372.625 25.9365234375 c 1
 360.784179688 -9.6953125 358.38671875 -48.494140625 341.6328125 -82.78125 c 1
 334.387695312 -120.514648438 316.848632812 -155.108398438 299.883789062 -189.091796875 c 0
 275.903320312 -230.290039062 223.901367188 -262.005859375 176.21484375 -242.420898438 c 1
 176.215820312 -242.420898438 l 1
EndSplineSet
Validated: 524321
EndChar

StartChar: K
Encoding: 36 75 36
Width: 764
Flags: W
HStem: 81.3545 42.7227<505.883 690.476>
VStem: 58.5029 63.9883<43.2452 121.053 272.611 304.186 557.802 599.583> 71.2168 58.1602<272.611 304.186 557.802 601.659>
LayerCount: 2
Fore
SplineSet
114.223632812 -31.111328125 m 1xc0
 130.756835938 -13.0244140625 78.1259765625 -14.744140625 90.9580078125 15.34765625 c 1
 82.45703125 44.2255859375 65.4443359375 65.6806640625 67.7763671875 98.1396484375 c 1
 61.8876953125 138.20703125 51.107421875 178.372070312 58.5029296875 218.983398438 c 1xc0
 60.837890625 271.836914062 64.466796875 324.641601562 71.216796875 377.044921875 c 1
 74.326171875 443.943359375 65.8056640625 510.615234375 63.68359375 577.319335938 c 1
 57.494140625 608.084960938 136.682617188 604.0390625 104.5546875 636.0078125 c 1
 71.00390625 638.03125 44.0234375 679.303710938 80.7392578125 699.233398438 c 1
 125.682617188 703.946289062 122.5546875 652.938476562 124.037109375 622.249023438 c 0
 134.748046875 516.67578125 135.481445312 410.065429688 129.376953125 304.185546875 c 1xa0
 120.853515625 288.34765625 126.8125 246.458007812 143.73046875 273.844726562 c 1
 186.485351562 313.536132812 235.8125 345.530273438 282.337890625 380.604492188 c 0
 320.067382812 408.66796875 359.9609375 433.881835938 396.815429688 462.974609375 c 1
 420.467773438 492.419921875 459.514648438 504.280273438 478.438476562 533.087890625 c 1
 516.241210938 553.594726562 540.126953125 591.364257812 573.149414062 618.103515625 c 0
 595.306640625 636.72265625 633.245117188 688.709960938 647.138671875 636.188476562 c 0
 657.830078125 603.5390625 612.180664062 583.8125 595.615234375 560.99609375 c 1
 561.612304688 548.021484375 555.541992188 515.888671875 527.430664062 493.284179688 c 1
 497.358398438 475.727539062 479.973632812 453.7890625 453.4921875 431.673828125 c 1
 419.006835938 410.500976562 386.576171875 388.010742188 358.6171875 358.116210938 c 1
 327.991210938 331.262695312 290.080078125 314.592773438 260.6328125 286.115234375 c 1
 227.782226562 270.838867188 203.018554688 243.454101562 176.634765625 218.94140625 c 0
 164.25390625 207.834960938 133.42578125 178.397460938 169.634765625 185.39453125 c 1
 212.978515625 166.078125 262.198242188 170.3828125 308.407226562 164.08203125 c 0
 430.389648438 152.456054688 552.650390625 142.174804688 673.875976562 124.077148438 c 0
 703.810546875 123.197265625 656.344726562 99.0810546875 692.091796875 111.627929688 c 1
 703.390625 109.0546875 701.314453125 88.0322265625 718.971679688 92.322265625 c 1
 689.8984375 73.1416015625 651.4453125 83.1630859375 618.330078125 81.3544921875 c 0
 522.434570312 87.1904296875 426.258789062 91.2900390625 330.787109375 102.267578125 c 1
 270.032226562 113.51953125 207.31640625 109.568359375 146.452148438 121.174804688 c 1
 105.064453125 121.904296875 126.610351562 56.76171875 122.491210938 29.0498046875 c 1
 128.850585938 12.6748046875 125.998046875 3.6787109375 110.995117188 4.5234375 c 1
 116.102539062 -4.4423828125 145.1015625 -42.513671875 114.225585938 -31.111328125 c 1
 114.223632812 -31.111328125 l 1xc0
EndSplineSet
Validated: 524321
EndChar

StartChar: L
Encoding: 37 76 37
Width: 664
Flags: W
HStem: 66.1191 32.8311<557.662 612.311>
VStem: 83.0391 70.4395<436.513 585.049> 154.742 7.76465<641.043 643.724>
LayerCount: 2
Fore
SplineSet
154.7421875 642.76953125 m 1
 139.01953125 648.71484375 85.5908203125 639.815429688 100.522460938 672.04296875 c 0
 110.095703125 694.891601562 163.225585938 716.10546875 162.506835938 676.900390625 c 0
 162.506835938 671.392578125 169.8359375 622.225585938 154.7421875 642.768554688 c 1
 154.7421875 642.76953125 l 1
230.80859375 -2.4453125 m 1
 189.005859375 0.4580078125 147.56640625 16.4423828125 119.887695312 48.8984375 c 0
 100.857421875 70.2587890625 78.6748046875 91.5361328125 69.2587890625 119.0234375 c 1
 66.7568359375 138.775390625 54.638671875 169.180664062 55.5361328125 194.651367188 c 0
 48.4228515625 283.584960938 52.1884765625 373.173828125 65.513671875 461.34765625 c 1
 61.9267578125 493.245117188 78.78515625 520.391601562 83.0390625 548.9375 c 1
 69.3505859375 585.444335938 133.045898438 640.493164062 153.478515625 597.893554688 c 1
 145.120117188 568.848632812 146.180664062 538.698242188 140.36328125 509.137695312 c 0
 132.93359375 450.524414062 127.192382812 391.670898438 118.9921875 333.192382812 c 1
 114.91796875 266.862304688 123.977539062 200.26171875 135.44921875 135.379882812 c 1
 152.951171875 108.254882812 169.7890625 79.6015625 205.536132812 72.455078125 c 1
 259.138671875 48.81640625 318.079101562 60.91796875 374.138671875 64.96484375 c 1
 402.962890625 76.1748046875 432.999023438 71.7080078125 462.178710938 83.4931640625 c 0
 505.099609375 96.2685546875 550.856445312 102.926757812 595.517578125 98.9501953125 c 0
 625.618164062 94.8115234375 620.208007812 64.7177734375 593.17578125 66.119140625 c 1
 554.881835938 48.318359375 515.890625 31.8388671875 474.6484375 21.97265625 c 0
 433.534179688 9.0830078125 392.072265625 -3.9013671875 348.4921875 -4.1640625 c 0
 309.317382812 -6.34375 269.852539062 -6.8486328125 230.80859375 -2.4462890625 c 1
 230.80859375 -2.4453125 l 1
EndSplineSet
Validated: 524321
EndChar

StartChar: M
Encoding: 38 77 38
Width: 553
Flags: W
VStem: 65.96 28.1084<632.117 667.059> 127.938 49.9678<23.6985 297 469.675 469.969> 410.357 49.8281<60.6733 373.922> 452.215 43.5928<520.918 697.201>
LayerCount: 2
Fore
SplineSet
467.80859375 -48.8701171875 m 1xe0
 451.776367188 -26.12890625 443.626953125 1.201171875 433.428710938 26.814453125 c 0
 422.719726562 68.1796875 408.442382812 109.28515625 410.357421875 152.654296875 c 0xe0
 408.02734375 226.358398438 413.189453125 300.4765625 406.868164062 373.921875 c 1
 387.150390625 355.47265625 364.022460938 342.586914062 342.73828125 326.072265625 c 0
 297.095703125 293.32421875 237.635742188 294.197265625 184.080078125 297.921875 c 1
 174.477539062 278.49609375 173.703125 243.8515625 177.905273438 223.678710938 c 1
 171.581054688 193.306640625 183.872070312 159.560546875 180.384765625 126.231445312 c 1
 183.82421875 92.01171875 173.961914062 52.8603515625 192.671875 22.2578125 c 1
 209.330078125 38.4951171875 210.817382812 -17.095703125 181.881835938 -6.5986328125 c 1
 144.775390625 -3.9970703125 146.950195312 37.634765625 136.004882812 63.23046875 c 1
 126.57421875 119.537109375 132.534179688 176.853515625 127.9375 233.486328125 c 0
 123.75 258.397460938 134.477539062 289.365234375 130.743164062 316.896484375 c 0
 125.985351562 344.278320312 101.85546875 366.603515625 85.8544921875 387.049804688 c 1
 82.177734375 409.716796875 74.541015625 425.250976562 63.7001953125 442.823242188 c 1
 52.625 477.0703125 46.1884765625 513.763671875 44 549.912109375 c 0
 44.111328125 587.087890625 44 628.434570312 65.9599609375 660.215820312 c 0
 80.0546875 679.791992188 109.817382812 675.48828125 94.068359375 647.615234375 c 1
 81.1533203125 614.759765625 79.4384765625 580.557617188 85.203125 545.357421875 c 0
 86.6845703125 516.90625 100.451171875 491.184570312 107.881835938 463.517578125 c 1
 118.094726562 452.569335938 121.19921875 399.44921875 127.5 439.920898438 c 0
 127.352539062 454.623046875 126.758789062 497.111328125 145.258789062 469.115234375 c 1
 176.106445312 478.8515625 181.5703125 453.541992188 176.8046875 428.184570312 c 1
 176.313476562 399.297851562 169.008789062 356.434570312 205.040039062 345.622070312 c 0
 253.8359375 327.145507812 308.911132812 349.376953125 344.349609375 384.291015625 c 1
 371.610351562 400.087890625 378.15234375 436.66015625 403.341796875 451.715820312 c 1
 420.076171875 481.447265625 432.440429688 514.215820312 434.677734375 548.85546875 c 0
 439.66796875 596.609375 438.9375 645.668945312 452.21484375 692.077148438 c 0
 460.448242188 720.299804688 479.54296875 692.615234375 485.419921875 697.146484375 c 0
 507.765625 699.165039062 495.353515625 646.4375 495.807617188 626.416015625 c 0xd0
 493.36328125 568.580078125 488.575195312 510.521484375 473.7890625 454.366210938 c 1
 466.807617188 395.357421875 462.908203125 335.91015625 460.185546875 276.555664062 c 0
 459.545898438 214.29296875 458.048828125 151.666992188 465.029296875 89.7138671875 c 1
 473.166015625 62.0703125 473.875 32.310546875 486.1875 5.77734375 c 1
 488.060546875 -10.6591796875 508.456054688 -41.5556640625 490.881835938 -42.1298828125 c 1
 500.578125 -67.759765625 478.174804688 -63.466796875 467.809570312 -48.8701171875 c 1
 467.80859375 -48.8701171875 l 1xe0
EndSplineSet
Validated: 524321
EndChar

StartChar: N
Encoding: 39 78 39
Width: 501
Flags: W
VStem: 75.0645 24.4414<239.484 380.465 382.493 583.41> 143.946 40.7139<421.956 535.889>
LayerCount: 2
Fore
SplineSet
61.794921875 -2.83203125 m 1
 46.642578125 18.490234375 66.3583984375 48.3857421875 63.2275390625 73.6298828125 c 1
 64.3564453125 105.696289062 69.666015625 137.400390625 73.1826171875 169.170898438 c 1
 86.6630859375 185.77734375 89.5693359375 143.405273438 102.286132812 168.740234375 c 1
 105.826171875 204.868164062 118.775390625 239.57421875 124.07421875 275.529296875 c 0
 128.947265625 289.208007812 135.348632812 292.618164062 129.438476562 298.231445312 c 1
 146.28515625 364.098632812 142.6171875 432.849609375 143.946289062 500.293945312 c 0
 146.311523438 529.853515625 140.587890625 559.461914062 123.46875 584.124023438 c 0
 108.885742188 604.524414062 105.525390625 555.98828125 103.934570312 545.375 c 0
 97.6396484375 512.166992188 99.32421875 478.16796875 96.451171875 444.532226562 c 0
 97.6611328125 421.798828125 102.353515625 397.321289062 99.505859375 373.375976562 c 0
 96.904296875 333.220703125 98.5 292.534179688 93.03515625 252.724609375 c 1
 80.0390625 232.770507812 91.125 216.094726562 82.03515625 196.876953125 c 1
 67.591796875 189.344726562 79.0771484375 239.598632812 75.064453125 254.696289062 c 1
 78.8876953125 271.852539062 62.4873046875 300.966796875 82.880859375 300.23046875 c 0
 91.5869140625 300.327148438 57.251953125 309.485351562 76.44921875 322.627929688 c 1
 66.2509765625 338.009765625 83.7001953125 361.803710938 70.169921875 381.385742188 c 1
 76.8212890625 405.115234375 71.7255859375 421.990234375 71.2861328125 448.233398438 c 0
 73.5830078125 505.415039062 65.560546875 565.662109375 89.015625 619.629882812 c 1
 94.5751953125 646.75 126.611328125 664.57421875 141.555664062 633.659179688 c 1
 158.388671875 612.047851562 164.666015625 583.077148438 180.65625 561.845703125 c 1
 192.323242188 564.831054688 196.017578125 563.244140625 187.810546875 553.618164062 c 1
 210.193359375 561.345703125 199.334960938 534.374023438 184.66015625 535.888671875 c 1
 181.263671875 508.657226562 192.862304688 480.9765625 195.948242188 453.618164062 c 1
 208.372070312 416.62109375 211.9140625 377.284179688 225.545898438 340.536132812 c 0
 233.708007812 315.46875 240.469726562 291.270507812 248.021484375 266.106445312 c 1
 260.787109375 241.095703125 266.5859375 214.22265625 277.693359375 188.420898438 c 0
 292.717773438 152.318359375 310.159179688 111.306640625 349.01953125 95.7763671875 c 1
 380.052734375 92.7578125 380.850585938 135.80859375 388.341796875 156.936523438 c 0
 404.603515625 191.387695312 398.020507812 230.420898438 398.607421875 267.213867188 c 1
 393.909179688 302.469726562 389.107421875 337.984375 382.66796875 373.049804688 c 0
 371.217773438 413.280273438 359.50390625 454.4609375 358.831054688 496.48828125 c 1
 347.774414062 510.53125 349.000976562 537.990234375 343.493164062 558.104492188 c 0
 334.610351562 589.1953125 334.948242188 622.110351562 328.700195312 653.75390625 c 1
 329.723632812 674.530273438 327.220703125 691.923828125 333.15625 708.327148438 c 0
 336.219726562 729.989257812 359.359375 695.611328125 354.258789062 682.41015625 c 1
 357.333984375 655.489257812 357.125 628.59765625 364.147460938 602.7578125 c 0
 372.064453125 546.651367188 389.810546875 492.716796875 402.186523438 437.553710938 c 0
 413.186523438 402.631835938 416.47265625 366.090820312 424.147460938 330.522460938 c 1
 436.873046875 307.125976562 432.1484375 278.288085938 435.209960938 252.48828125 c 0
 438.748046875 205.947265625 435.685546875 157.994140625 417.360351562 114.62109375 c 1
 417.360351562 90.380859375 396.57421875 67.1943359375 374.219726562 57.3662109375 c 0
 334.0703125 41.7216796875 295.443359375 74.2861328125 273.825195312 105.36328125 c 0
 253.3046875 134.298828125 237.8046875 167.106445312 231.139648438 201.936523438 c 1
 219.1953125 224.705078125 215.755859375 248.759765625 206.833984375 271.111328125 c 0
 197.8515625 288.927734375 192.708007812 315.975585938 192.9375 324.541015625 c 1
 186.270507812 337.5625 186.118164062 369.73046875 175.650390625 371.711914062 c 1
 170.987304688 357.016601562 161.830078125 350.7265625 168.959960938 339.69921875 c 1
 165.114257812 317.02734375 161.368164062 292.408203125 154.744140625 272.751953125 c 1
 154.291015625 248.454101562 141.463867188 216.15234375 137.712890625 188.416015625 c 0
 135.14453125 156.400390625 124.411132812 126.236328125 116.79296875 94.9736328125 c 1
 103.918945312 65.212890625 94.353515625 34.4560546875 88.83203125 2.359375 c 0
 83.69921875 -4.5888671875 69.3046875 -12.1435546875 61.7958984375 -2.83203125 c 1
 61.794921875 -2.83203125 l 1
EndSplineSet
Validated: 524321
EndChar

StartChar: O
Encoding: 40 79 40
Width: 813
Flags: W
HStem: 675.503 20G<444.318 455.729>
LayerCount: 2
Fore
SplineSet
455.733398438 695.502929688 m 1
 432.90234375 681.381835938 397.662109375 690.416015625 370.231445312 684.002929688 c 0
 340.009765625 680.690429688 309.749023438 666.868164062 286.486328125 651.373046875 c 1
 259.567382812 640.880859375 234.4765625 617.791015625 207.604492188 604.020507812 c 1
 191.490234375 573.325195312 155.571289062 557.885742188 140.489257812 526.458984375 c 1
 124.5 503.330078125 101.256835938 478.434570312 93.23046875 454.448242188 c 0
 79.5126953125 427.458984375 64.5947265625 393.850585938 55.771484375 362.529296875 c 0
 40.732421875 297.63671875 47.6357421875 227.184570312 75.48046875 166.666015625 c 1
 92.8662109375 144.303710938 104.587890625 114.396484375 129.3515625 95.3232421875 c 1
 172.798828125 49.7841796875 227.81640625 14.6337890625 290.08203125 2.0908203125 c 0
 346.919921875 -11.5654296875 405.973632812 -3.548828125 463.61328125 -0.580078125 c 1
 533.234375 8.3857421875 595.728515625 46.4873046875 650.15234375 88.93359375 c 0
 677.407226562 109.491210938 702.563476562 133.26171875 714.970703125 165.782226562 c 0
 730.100585938 196.735351562 759.321289062 224.412109375 751.01953125 262.0234375 c 1
 749.733398438 309.418945312 732.180664062 353.94921875 722.07421875 399.767578125 c 1
 704.995117188 426.319335938 739.779296875 455.845703125 722.607421875 486.330078125 c 1
 712.258789062 519.341796875 700.266601562 552.521484375 670.956054688 573.83203125 c 1
 636.978515625 607.543945312 603.86328125 644.133789062 562.235351562 668.30859375 c 1
 528.08984375 681.14453125 492.14453125 692.276367188 455.728515625 695.500976562 c 1
 455.733398438 695.502929688 l 1
383.854492188 650.666015625 m 1
 384.953125 629.873046875 433.271484375 655.569335938 454.497070312 646.095703125 c 1
 480.03515625 646.793945312 514.291015625 637.046875 532.28125 631.030273438 c 1
 518.0859375 659.448242188 551.528320312 624.998046875 561.432617188 623.338867188 c 1
 592.73046875 580.008789062 638.427734375 548.341796875 666.534179688 502.649414062 c 1
 674.692382812 479.387695312 648.268554688 467.149414062 641.368164062 485.778320312 c 1
 622.852539062 470.2890625 650.75390625 455.807617188 663.247070312 450.140625 c 1
 667.822265625 414.67578125 686.388671875 383.775390625 692.313476562 348.572265625 c 0
 697.432617188 315.23828125 713.072265625 276.591796875 691.6015625 246.140625 c 1
 691.87890625 214.060546875 674.657226562 182.12109375 654.352539062 157.689453125 c 0
 623.724609375 120.168945312 580.62890625 97.7958984375 539.427734375 74.259765625 c 0
 525.708007812 66.490234375 518.749023438 51.453125 509.23828125 63.748046875 c 1
 477.8203125 57.0888671875 455.290039062 42.0224609375 422.665039062 43.271484375 c 1
 390.512695312 40.34765625 357.786132812 39.30078125 326.69140625 49.232421875 c 1
 293.064453125 51.4921875 262.09765625 64.5556640625 232.244140625 76.1103515625 c 1
 206.051757812 93.6474609375 169.473632812 108.178710938 157.485351562 136.358398438 c 1
 148.215820312 145.936523438 121.9765625 177.012695312 146.283203125 179.721679688 c 1
 112.139648438 189.586914062 105.296875 226.693359375 101.087890625 257.350585938 c 0
 97.5732421875 289.799804688 92.99609375 325.07421875 108.557617188 355.137695312 c 1
 112.89453125 386.259765625 127.66796875 418.302734375 145.349609375 444.614257812 c 0
 160.180664062 470.47265625 179.046875 499.994140625 197.3125 519.493164062 c 1
 228.676757812 533.95703125 239.950195312 573.36328125 271.5546875 585.012695312 c 1
 302.58984375 612.303710938 343.69140625 623.224609375 376.779296875 647.510742188 c 1
 383.856445312 650.669921875 l 1
 383.854492188 650.666015625 l 1
EndSplineSet
Validated: 524325
EndChar

StartChar: P
Encoding: 41 80 41
Width: 554
Flags: W
VStem: 250.731 25.8105<-1.69883 34.8955> 345.416 34.2051<275.128 288.37>
LayerCount: 2
Fore
SplineSet
309.20703125 258.451171875 m 2
 308.729492188 280.34375 345.98828125 273.443359375 345.416015625 278.861328125 c 0
 345.892578125 297.255859375 376.2109375 283.651367188 379.62109375 298.708984375 c 1
 385.349609375 273.63671875 355.590820312 274.577148438 343.349609375 266.001953125 c 1
 328.411132812 276.787109375 316.900390625 246.267578125 309.20703125 258.450195312 c 1
 309.20703125 258.451171875 l 2
288.720703125 255.720703125 m 1
 291.771484375 273.235351562 290.637695312 250.10546875 300.01953125 267.235351562 c 1
 313.532226562 271.161132812 294.5859375 241.3125 288.720703125 255.720703125 c 1
250.731445312 4.4580078125 m 1
 234.112304688 37.7763671875 227.498046875 75.0771484375 211.368164062 108.602539062 c 1
 208.52734375 130.701171875 193.958984375 151.326171875 183.005859375 172.434570312 c 0
 162.056640625 219.15234375 140.162109375 265.973632812 109.87890625 307.424804688 c 0
 96.2568359375 332.405273438 84.2158203125 356.349609375 73.2119140625 382.431640625 c 0
 59.154296875 426.254882812 45.5078125 471.208007812 44 517.59375 c 0
 44.150390625 548.258789062 45.9052734375 578.35546875 60.5458984375 605.12109375 c 0
 75.4931640625 631.81640625 96.9287109375 656.666992188 124.084960938 671.231445312 c 0
 145.208984375 685.865234375 172.5078125 692.24609375 198.780273438 695.979492188 c 0
 230.752929688 697.293945312 264.90234375 696.051757812 293.513671875 680.404296875 c 1
 321.51171875 678.729492188 342.975585938 656.911132812 367.995117188 645.765625 c 1
 393.794921875 628.80859375 422.817382812 614.549804688 442.602539062 590.290039062 c 0
 455.864257812 568.125976562 477.947265625 550.358398438 487.577148438 524.706054688 c 1
 504.107421875 495.971679688 504.631835938 460.467773438 498.52734375 428.772460938 c 1
 486.551757812 400.874023438 473.873046875 372.181640625 454.057617188 348.889648438 c 1
 439.693359375 344.68359375 436.6796875 327.046875 417.631835938 328.260742188 c 1
 429.841796875 304.822265625 383.122070312 312.594726562 394.233398438 295.5859375 c 1
 368.564453125 307.418945312 412.5546875 320.959960938 412.356445312 336.087890625 c 1
 420.024414062 345.46484375 431.038085938 319.390625 421.67578125 340.3046875 c 0
 416.958007812 359.6953125 437.212890625 330.76953125 427.922851562 354.01171875 c 1
 441.768554688 379.37890625 465.600585938 405.553710938 468.53125 437.723632812 c 1
 477.21875 469.939453125 462.229492188 501.982421875 446.490234375 529.311523438 c 0
 429.5703125 552.95703125 408.192382812 574.1640625 385.40234375 592.8671875 c 0
 348.290039062 620.48046875 305.59765625 640.559570312 261.875 655.2890625 c 1
 227.483398438 660.783203125 190.342773438 664.526367188 157.928710938 649.201171875 c 0
 128.143554688 635.430664062 99.6865234375 613.750976562 90.9033203125 580.576171875 c 1
 78.70703125 551.204101562 79.537109375 519.944335938 86.0087890625 489.276367188 c 0
 92.0185546875 444.274414062 102.716796875 399.868164062 124.041015625 359.577148438 c 0
 137.981445312 329.095703125 156.649414062 301.341796875 172.416015625 271.899414062 c 1
 182.684570312 261.412109375 197.8671875 221.12109375 195.748046875 258.916992188 c 0
 194.920898438 290.168945312 186.8125 320.150390625 183.921875 351.28125 c 0
 182.412109375 387.475585938 171.463867188 422.463867188 164.44140625 457.58203125 c 0
 163.448242188 480.952148438 147.784179688 519.365234375 178.983398438 529.084960938 c 0
 205.348632812 534.129882812 182.380859375 507.395507812 173.893554688 502.413085938 c 1
 184.813476562 490.997070312 196.784179688 487.1328125 199.842773438 467.6640625 c 0
 207.765625 441.723632812 208.088867188 413.803710938 213.947265625 387.213867188 c 0
 226.8984375 309.756835938 236.49609375 231.724609375 251.383789062 154.619140625 c 0
 261.342773438 114.403320312 272.30859375 74.2900390625 276.541992188 32.958984375 c 1
 291.28125 14.845703125 268.637695312 -18.6640625 250.731445312 4.4580078125 c 1
EndSplineSet
Validated: 524321
EndChar

StartChar: Q
Encoding: 42 81 42
Width: 807
Flags: W
HStem: 231.126 13.8945<348.209 361.504>
LayerCount: 2
Fore
SplineSet
436.2890625 696.291992188 m 1
 413.081054688 701.891601562 411.663085938 668.163085938 393.353515625 678.561523438 c 1
 370.961914062 663.31640625 343.845703125 685.020507812 316.442382812 668.78515625 c 1
 280.96875 664.6171875 253.185546875 644.715820312 225.416015625 624.5390625 c 1
 187.372070312 605.345703125 160.6328125 569.397460938 132.735351562 538.1015625 c 0
 111.178710938 508.494140625 94.6005859375 475.537109375 81.974609375 440.969726562 c 0
 74.455078125 410.12109375 64.630859375 385.470703125 56.615234375 355.640625 c 0
 41.0244140625 303.288085938 49.25390625 247.181640625 60.375 194.782226562 c 0
 70.232421875 159.633789062 85.1025390625 133.06640625 105.4375 102.5390625 c 0
 125.916015625 72.9892578125 157.943359375 53.72265625 184.700195312 30.0400390625 c 1
 213.405273438 19.0556640625 244.764648438 10.041015625 275.844726562 4.123046875 c 0
 333.0859375 -6.4150390625 393.06640625 4.7744140625 444.426757812 31.451171875 c 1
 476.939453125 37.3408203125 493.883789062 70.384765625 523.861328125 82.98046875 c 0
 536.248046875 89.3037109375 546.8203125 109.811523438 560.3984375 94.74609375 c 1
 582.36328125 83.8916015625 599.889648438 66.63671875 621.920898438 57.0390625 c 0
 651.314453125 40.2802734375 682.393554688 25.0712890625 714.09765625 12.3505859375 c 0
 730.987304688 6.935546875 773.090820312 -20.431640625 761.918945312 16.8662109375 c 1
 741.828125 46.3916015625 710.189453125 63.0927734375 677.9453125 76.0263671875 c 0
 646.620117188 91.052734375 616.310546875 108.34375 591.532226562 132.970703125 c 1
 560.16796875 144.739257812 612.108398438 180.958984375 615.217773438 204.009765625 c 1
 655.684570312 274.91796875 658.65234375 362.250976562 634.71484375 439.153320312 c 0
 619.396484375 495.125976562 602.54296875 552.010742188 568.904296875 600.068359375 c 1
 546.709960938 650.083984375 496.63671875 685.006835938 443.805664062 695.650390625 c 1
 436.2890625 696.280273438 l 1
 436.2890625 696.291992188 l 1
355.333984375 638.24609375 m 2
 398.74609375 640.567382812 442.951171875 631.512695312 479.293945312 607.080078125 c 1
 511.876953125 602.177734375 528.452148438 573.860351562 547.291015625 549.623046875 c 1
 558.563476562 521.028320312 570.484375 488.288085938 585.026367188 465.750976562 c 1
 577.138671875 437.912109375 605.458984375 411.23046875 610.548828125 395.036132812 c 1
 583.072265625 400.857421875 611.348632812 353.861328125 601.973632812 336.65625 c 1
 602.268554688 306.07421875 592.5703125 280.142578125 596.586914062 253.021484375 c 1
 580.424804688 222.108398438 560.921875 192.020507812 535.522460938 167.928710938 c 1
 505.711914062 169.868164062 492.39453125 200.455078125 463.590820312 208.014648438 c 1
 436.788085938 234.673828125 397.94140625 228.46875 366.736328125 245.020507812 c 1
 347.513671875 262.416015625 333.676757812 246.553710938 355.317382812 231.125976562 c 0
 372.7109375 214.57421875 404.739257812 175.7265625 416.434570312 203.672851562 c 1
 434.185546875 175.205078125 460.591796875 151.77734375 489.4296875 134.569335938 c 1
 522.408203125 124.491210938 457.866210938 98.6123046875 452.353515625 81.9384765625 c 1
 399.305664062 56.2744140625 339.56640625 41.447265625 280.497070312 43.6552734375 c 1
 239.88671875 56.9130859375 192.491210938 63.12109375 165.012695312 99.8115234375 c 1
 135.069335938 128.412109375 114.05078125 164.762695312 96.458984375 201.633789062 c 1
 95.0908203125 222.498046875 81.5771484375 237.643554688 92.5595703125 256.509765625 c 1
 75.015625 280.958007812 90.96875 317.775390625 94.4169921875 346.19921875 c 1
 105.650390625 383.637695312 114.235351562 422.114257812 128.6875 458.455078125 c 1
 146.372070312 484.3359375 161.9375 512.995117188 183.963867188 536.424804688 c 0
 211.7265625 569.35546875 243.919921875 600.455078125 282.953125 619.411132812 c 0
 305.877929688 629.38671875 328.694335938 639.109375 355.3359375 638.24609375 c 2
 355.333984375 638.24609375 l 2
EndSplineSet
Validated: 524325
EndChar

StartChar: R
Encoding: 43 82 43
Width: 752
Flags: W
HStem: -23.6631 26.6299<643.856 707.119>
LayerCount: 2
Fore
SplineSet
50.1533203125 321.323242188 m 1
 38.01171875 343.498046875 47.5771484375 411.543945312 76.173828125 376.026367188 c 1
 56.2041015625 383.452148438 63.6455078125 368.061523438 76.6572265625 365.637695312 c 1
 64.7158203125 358.365234375 44.734375 352.919921875 69.744140625 354.485351562 c 0
 94.771484375 358.473632812 67.8857421875 303.798828125 50.1591796875 321.322265625 c 1
 50.1533203125 321.323242188 l 1
325.372070312 406.762695312 m 1
 320.088867188 423.27734375 312.580078125 388.1953125 325.372070312 406.762695312 c 1
318.23046875 388.360351562 m 2
 299.87890625 410.34765625 301.865234375 369.212890625 322.982421875 381.78515625 c 1
 322.076171875 384.16796875 l 1
 318.23046875 388.360351562 l 2
642.87109375 -24.6630859375 m 1
 604.862304688 -16.6806640625 563.590820312 -21.375 527.247070312 -5.2822265625 c 0
 508.028320312 2.6943359375 478.262695312 11.1064453125 454.962890625 21.12109375 c 0
 416.680664062 35.404296875 376.249023438 43.396484375 340.663085938 64.4482421875 c 0
 306.5625 83.9814453125 267.57421875 95.125 242.662109375 127.698242188 c 0
 223.033203125 153.325195312 194.78125 169.552734375 188.883789062 205.073242188 c 0
 183.901367188 237.995117188 191.309570312 275.544921875 214.739257812 300.663085938 c 0
 238.096679688 323.172851562 244.418945312 358.577148438 273.181640625 376.359375 c 0
 283.573242188 383.33203125 285.0703125 398.783203125 296.606445312 396.008789062 c 1
 306.833984375 418.165039062 330.553710938 442.16015625 344.692382812 454.126953125 c 0
 365.547851562 477.08203125 378.5 505.830078125 396.973632812 530.782226562 c 0
 416.131835938 554.631835938 446.23046875 586.557617188 427.590820312 618.37109375 c 1
 402.47265625 644.138671875 365.989257812 655.447265625 330.46875 651.59375 c 0
 297.078125 650.501953125 261.70703125 653.455078125 231.563476562 636.638671875 c 1
 185.744140625 621.893554688 153.565429688 581.962890625 122.93359375 546.935546875 c 1
 106.912109375 536.057617188 86.4697265625 479.444335938 120.678710938 509.158203125 c 1
 138.500976562 505.4296875 159.823242188 545.298828125 156.520507812 510.313476562 c 1
 140.2578125 477.791015625 148.302734375 439.909179688 141.219726562 405.08984375 c 0
 138.893554688 381.0703125 149.33984375 353.13671875 149.109375 325.82421875 c 0
 151.790039062 276.379882812 166.66796875 228.934570312 177.31640625 180.986328125 c 0
 181.404296875 151.19921875 183.045898438 116.673828125 202.001953125 93.8525390625 c 1
 201.752929688 77.8095703125 215.80078125 72.2646484375 208.475585938 58.1005859375 c 1
 238.668945312 54.7490234375 235.521484375 -11.833984375 203.282226562 -0.884765625 c 1
 173.915039062 21.4521484375 153.72265625 56.4365234375 147.94140625 92.82421875 c 1
 130.684570312 133.165039062 129.045898438 178.002929688 113.19140625 218.846679688 c 1
 109.850585938 246.484375 99.3369140625 274.017578125 99.6962890625 305.958007812 c 1
 94.9658203125 339.297851562 100.999023438 374.416015625 92.0029296875 406.75390625 c 0
 86.5380859375 418.959960938 96.533203125 483.146484375 82.20703125 441.862304688 c 1
 92.666015625 417.143554688 33.6904296875 373.26171875 55.505859375 413.975585938 c 1
 38.830078125 444.412109375 57.5859375 475.930664062 64.86328125 505.293945312 c 1
 65.4345703125 537.854492188 83.921875 565.734375 99.888671875 592.5625 c 1
 125.036132812 603.9921875 136.030273438 636.788085938 162.756835938 650.729492188 c 0
 189.306640625 665.159179688 211.508789062 680.787109375 241.900390625 688.048828125 c 0
 301.946289062 702.461914062 368.150390625 707.265625 426 682.237304688 c 0
 455.309570312 667.536132812 490.743164062 642.206054688 486.260742188 604.650390625 c 0
 479.817382812 578.139648438 474.857421875 551.499023438 459.306640625 529.4765625 c 1
 433.833984375 472.096679688 377.944335938 436.331054688 345.139648438 383.916992188 c 1
 323.565429688 376.54296875 309.4453125 343.763671875 290.259765625 326.647460938 c 1
 273.430664062 298.938476562 252.624023438 274.880859375 244.3671875 242.46875 c 1
 230.813476562 211.665039062 253.602539062 182.497070312 276.60546875 164.2265625 c 0
 299.29296875 140.956054688 326.46875 123.962890625 354.552734375 108.486328125 c 0
 382.685546875 93.05859375 415.307617188 78.16796875 444.201171875 74.625 c 1
 455.828125 59.0244140625 485.842773438 61.3916015625 504.2890625 49.611328125 c 1
 561.403320312 28.3740234375 622.80078125 21.7373046875 680.568359375 2.966796875 c 1
 698.49609375 7.3603515625 721.615234375 -6.572265625 703.950195312 -23.6630859375 c 1
 684.094726562 -20.4560546875 663.90625 -33.60546875 642.870117188 -24.6611328125 c 1
 642.87109375 -24.6630859375 l 1
EndSplineSet
Validated: 524321
EndChar

StartChar: S
Encoding: 44 83 44
Width: 568
Flags: W
HStem: -0.181641 39.3604<154.651 333.487>
LayerCount: 2
Fore
SplineSet
378.598632812 -3.3857421875 m 1
 368.51171875 3.3984375 345.885742188 -6.7529296875 334.231445312 5.640625 c 1
 318.569335938 -7.7919921875 289.321289062 -0.298828125 267.046875 -0.181640625 c 0
 221.827148438 4.0439453125 177.33203125 14.36328125 133.005859375 23.884765625 c 0
 107.559570312 31.6005859375 66.1953125 45.388671875 74.96875 79.4716796875 c 1
 73.30078125 111.139648438 133.452148438 100.56640625 107.141601562 74.904296875 c 1
 136.250976562 51.4912109375 175.009765625 49.7353515625 209.49609375 39.1787109375 c 1
 237.994140625 35.3359375 266.819335938 45.509765625 295.348632812 37.9169921875 c 1
 322.24609375 36.6103515625 346.58984375 22.8212890625 367.462890625 11.0986328125 c 1
 379.065429688 43.3369140625 416.478515625 27.927734375 441.37109375 40.0908203125 c 1
 479.006835938 45.9423828125 472.256835938 80.724609375 445.604492188 97.0400390625 c 1
 415.803710938 129.723632812 373.448242188 146.782226562 339.477539062 174.549804688 c 0
 318.051757812 191.9140625 298.068359375 201.836914062 273.831054688 216.999023438 c 0
 233.521484375 245.3984375 198.254882812 280.427734375 161.3203125 313.020507812 c 0
 140.19921875 332.538085938 118.7578125 352.041992188 104.967773438 377.55078125 c 0
 78.5703125 414.96875 56.615234375 456.817382812 45.244140625 501.297851562 c 1
 42.8408203125 533.271484375 43.3515625 566.579101562 51.8984375 597.591796875 c 1
 67.6796875 618.603515625 79.7998046875 639.202148438 97.1826171875 655.602539062 c 0
 123.721679688 676.614257812 156.31640625 687.272460938 189.733398438 690.142578125 c 1
 214.461914062 707.1640625 245.072265625 694.546875 270.427734375 689.672851562 c 0
 296.404296875 686.482421875 320.85546875 668.373046875 344.231445312 656.7734375 c 1
 355.243164062 635.443359375 388.221679688 639.373046875 399.267578125 613.37890625 c 1
 414.064453125 589.134765625 434.310546875 568.31640625 446.71875 542.763671875 c 0
 462.020507812 502.44921875 468.9296875 453.84375 446.903320312 414.671875 c 1
 436.268554688 408.267578125 402.034179688 387.3828125 404.193359375 408.936523438 c 1
 425.387695312 412.069335938 432.788085938 430.856445312 422.107421875 446.868164062 c 1
 417.34375 480.782226562 413.017578125 515.572265625 395.4296875 545.650390625 c 0
 384.310546875 565.989257812 366.764648438 587.452148438 348.923828125 605.254882812 c 0
 331.762695312 624.885742188 305.720703125 635.232421875 287.076171875 648.659179688 c 1
 257.48046875 660.809570312 223.09375 665.931640625 191.80078125 657.591796875 c 0
 169.380859375 650.258789062 139.142578125 635.349609375 118.528320312 617.158203125 c 0
 77.4892578125 582.529296875 74.029296875 518.375 98.2119140625 473.045898438 c 0
 117.922851562 429.78125 143.112304688 388.877929688 177.31640625 355.501953125 c 0
 198.467773438 338.727539062 208.982421875 308.758789062 232.772460938 298.280273438 c 1
 254.09765625 273.629882812 285.55078125 261.42578125 310.7734375 241.04296875 c 0
 336.970703125 223.237304688 360.146484375 200.874023438 390.189453125 189.412109375 c 1
 413.171875 166.962890625 445.137695312 156.000976562 467.466796875 132.095703125 c 1
 477.159179688 109.099609375 512.881835938 105.541992188 515.2734375 75.84375 c 1
 528.274414062 57.3525390625 516.405273438 36.3095703125 498.032226562 25.4443359375 c 0
 473.420898438 13.34375 447.192382812 -0.16015625 419.572265625 -3.5751953125 c 0
 408.337890625 -1.80078125 383.765625 -12.7880859375 378.58203125 -3.388671875 c 1
 378.598632812 -3.3857421875 l 1
EndSplineSet
Validated: 524321
EndChar

StartChar: T
Encoding: 45 84 45
Width: 778
Flags: W
VStem: 306.442 41.6445<307.769 601.413>
LayerCount: 2
Fore
SplineSet
59.0029296875 591.453125 m 1
 39.310546875 626.91015625 82.400390625 642.651367188 107.7734375 653.163085938 c 0
 158.456054688 677.728515625 215.838867188 673.01171875 269.9609375 681.235351562 c 0
 317.9609375 688.840820312 367.064453125 687.65625 414.92578125 696.38671875 c 1
 496.162109375 697.931640625 577.841796875 694.1640625 658.305664062 682.645507812 c 1
 670.1875 674.833007812 686.171875 680.993164062 683.26171875 667.969726562 c 1
 708.515625 653.1953125 709.638671875 689.798828125 731.162109375 666.217773438 c 0
 746.649414062 648.514648438 713.815429688 667.557617188 720.8828125 648.9921875 c 1
 693.344726562 655.245117188 662.592773438 644.872070312 631.670898438 645.180664062 c 0
 520.291992188 639.212890625 408.409179688 642.6640625 297.310546875 632.318359375 c 1
 261.055664062 623.37890625 223.583984375 623.008789062 186.942382812 617.15625 c 1
 153.647460938 605.172851562 117.97265625 600.27734375 83.3759765625 592.364257812 c 0
 75.7236328125 590.875 66.3720703125 587.229492188 59.0029296875 591.44921875 c 1
 59.0029296875 591.453125 l 1
43.5654296875 593.651367188 m 2
 29.134765625 623.39453125 64.2041015625 576.541992188 48.6923828125 585.631835938 c 1
 46.150390625 589.2421875 l 1
 43.5654296875 593.651367188 l 2
396.673828125 4.4267578125 m 1
 374.442382812 32.7119140625 371.3828125 67.271484375 358.520507812 99.859375 c 1
 346.399414062 187.895507812 308.595703125 270.877929688 306.442382812 360.509765625 c 0
 303.548828125 424.690429688 297.479492188 489.108398438 301.469726562 553.3203125 c 1
 309.743164062 574.120117188 303.16015625 608.274414062 339.048828125 600.448242188 c 1
 381.938476562 595.938476562 337.552734375 542.309570312 348.086914062 515.22265625 c 1
 344.314453125 432.578125 357.477539062 350.547851562 373.831054688 269.845703125 c 0
 379.073242188 236.248046875 383.185546875 202.084960938 392.994140625 169.502929688 c 0
 406.518554688 136.041015625 396.762695312 97.0517578125 409.483398438 62.4736328125 c 0
 417.138671875 51.66015625 427.185546875 -18.138671875 396.674804688 4.4267578125 c 1
 396.673828125 4.4267578125 l 1
EndSplineSet
Validated: 524321
EndChar

StartChar: U
Encoding: 46 85 46
Width: 612
Flags: W
VStem: 58.4971 35.7402<165.961 567.57> 75.1289 37.1445<463.035 608.466> 477.216 46.2051<292.566 366.294 455.473 686.401> 482.998 65.0352<99.7832 136.972>
LayerCount: 2
Fore
SplineSet
191.504882812 -0.5712890625 m 1x10
 167.868164062 7.7607421875 134.05078125 15.1455078125 121.821289062 40.78515625 c 1
 95.5869140625 56.0341796875 94.7421875 90.6923828125 74.3681640625 110.670898438 c 1
 66.39453125 136.793945312 63.041015625 164.1171875 58.4970703125 190.939453125 c 0x90
 52.25 298.243164062 52.4267578125 406.095703125 59.5595703125 513.349609375 c 0
 66.0224609375 552.985351562 62.228515625 594.499023438 75.12890625 632.87109375 c 1
 89.8974609375 652.004882812 95.083984375 607.713867188 112.2734375 608.465820312 c 1x40
 93.4365234375 529.653320312 103.498046875 447.619140625 94.2373046875 367.721679688 c 1
 97.2861328125 340.3203125 93.4697265625 311.997070312 97.990234375 283.524414062 c 0
 101.555664062 233.486328125 102.520507812 182.3359375 115.717773438 133.744140625 c 0
 122.669921875 106.7578125 139.767578125 87.6875 154.709960938 65.099609375 c 1
 175.732421875 42.4560546875 207.479492188 37.6552734375 237.387695312 40.15625 c 1
 291.94921875 53.9208984375 331.401367188 98.7138671875 366.465820312 140.077148438 c 0
 387.12109375 163.779296875 403.291992188 190.927734375 420.067382812 217.161132812 c 0
 433.9921875 239.700195312 440.157226562 272.41015625 457.181640625 294.684570312 c 1
 470.623046875 326.858398438 478.123046875 361.078125 477.215820312 396.086914062 c 0
 479.334960938 487.74609375 472.049804688 579.36328125 473.709960938 670.9921875 c 0
 471.735351562 713.857421875 527.627929688 700.670898438 522.995117188 663.549804688 c 1
 530.061523438 601.01953125 540.864257812 538.30078125 538.8046875 475.219726562 c 1
 523.689453125 369.984375 520.927734375 263.416992188 523.420898438 157.255859375 c 0xa0
 524.5390625 130.4453125 534.056640625 115.209960938 548.033203125 93.1689453125 c 0
 564.483398438 74.5908203125 547.100585938 41.27734375 525.961914062 67.6123046875 c 1
 510.958984375 94.3623046875 488.288085938 115.615234375 482.998046875 148.026367188 c 1
 475.313476562 164.579101562 480.791015625 205.930664062 459.897460938 205.895507812 c 1
 432.821289062 138.940429688 384.5546875 81.1025390625 327.377929688 37.318359375 c 0
 289.80859375 9.388671875 242.151367188 -9.603515625 194.827148438 -2.8681640625 c 1
 191.461914062 -0.568359375 l 1
 191.504882812 -0.5712890625 l 1x10
EndSplineSet
Validated: 524321
EndChar

StartChar: W
Encoding: 47 87 47
Width: 757
Flags: W
LayerCount: 2
Fore
SplineSet
198.236328125 -2.8212890625 m 1
 167.907226562 1.5361328125 142.97265625 18.740234375 121.6015625 38.99609375 c 0
 104.168945312 55.37890625 89.8486328125 77.12109375 81.7119140625 95.1220703125 c 0
 63.8212890625 133.326171875 62.033203125 176.029296875 56.908203125 217.11328125 c 1
 46.767578125 247.8828125 52.7294921875 281.885742188 52.84765625 313.900390625 c 1
 58.6181640625 345.481445312 54.9501953125 373.275390625 59.650390625 404.8203125 c 0
 65.6513671875 439.025390625 66.44140625 476.064453125 84.5625 506.650390625 c 0
 96.4267578125 524.40234375 103.630859375 549.754882812 121.704101562 553.9609375 c 1
 123.612304688 580.3984375 153.12890625 540.6796875 133.009765625 546.474609375 c 1
 140.68359375 519.651367188 114.954101562 492.618164062 113.3515625 466.268554688 c 1
 98.3291015625 408.86328125 96.943359375 348.801757812 89.8173828125 290.122070312 c 0
 85.7890625 265.275390625 102.11328125 236.6015625 99.376953125 209.25 c 0
 99.130859375 177.079101562 102.229492188 145.66796875 114.668945312 116.188476562 c 0
 129.477539062 87.5908203125 149.36328125 61.080078125 177.540039062 43.9443359375 c 0
 230.483398438 16.859375 295.147460938 48.90625 326.908203125 94.2509765625 c 0
 344.876953125 118.794921875 362.758789062 142.827148438 354.654296875 174.41015625 c 1
 378.809570312 198.311523438 334.657226562 218.30078125 350.765625 248.499023438 c 1
 348.129882812 271.815429688 370.436523438 322.125 395.390625 296.088867188 c 1
 400.286132812 242.674804688 390.37109375 187.331054688 404.817382812 135.052734375 c 1
 420.609375 108.8203125 439.703125 84.6064453125 465.3671875 72.4599609375 c 0
 489.784179688 57.1826171875 534.622070312 51.3291015625 556.728515625 65.763671875 c 1
 584.03125 76.796875 611.49609375 96.0302734375 622.318359375 125.638671875 c 1
 663.639648438 195.262695312 651.7421875 279.4765625 634.999023438 354.622070312 c 1
 632.549804688 385.368164062 621.041015625 415.071289062 611.009765625 442.193359375 c 1
 613.641601562 474.293945312 590.342773438 502.5078125 587.588867188 534.081054688 c 1
 569.163085938 557.81640625 570.252929688 595.579101562 549.234375 620.33984375 c 1
 549.584960938 645.26171875 530.094726562 657.1171875 509.501953125 648.06640625 c 1
 492.376953125 666.225585938 515.012695312 716.524414062 544.370117188 690.838867188 c 0
 581.466796875 661.393554688 592.408203125 612.265625 608.624023438 570.081054688 c 1
 617.272460938 536.423828125 633.423828125 504.891601562 643.229492188 471.181640625 c 0
 651.817382812 443.024414062 652.552734375 413.690429688 665.725585938 387.280273438 c 1
 685.336914062 322.291015625 696.778320312 253.495117188 689.467773438 185.615234375 c 1
 679.719726562 140.564453125 661.001953125 96.681640625 628.477539062 63.1982421875 c 1
 585.072265625 9.599609375 499.44140625 -0.654296875 443.012695312 37.5732421875 c 1
 414.448242188 50.5146484375 398.407226562 80.4130859375 372.591796875 97.8193359375 c 1
 353.913085938 77.95703125 342.293945312 45.349609375 314.83984375 30.5478515625 c 1
 287.90234375 6.2275390625 248.337890625 -1.20703125 213.072265625 -3.7138671875 c 0
 208.118164062 -3.6201171875 203.163085938 -3.365234375 198.236328125 -2.82421875 c 1
 198.236328125 -2.8212890625 l 1
EndSplineSet
Validated: 524321
EndChar

StartChar: X
Encoding: 48 88 48
Width: 645
Flags: W
VStem: 55.2168 22.4023<6.69107 41.6184>
LayerCount: 2
Fore
SplineSet
59.931640625 5.796875 m 1
 56.5927734375 24.9638671875 40.244140625 38.234375 55.216796875 60.8271484375 c 1
 59.65234375 93.685546875 77.1494140625 123.489257812 91.25390625 153.177734375 c 0
 109.33984375 181.837890625 125.319335938 211.99609375 146.154296875 238.657226562 c 1
 176.791015625 299.001953125 223.978515625 348.283203125 262.543945312 403.368164062 c 1
 262.158203125 433.366210938 232.505859375 457.07421875 218.942382812 483.647460938 c 1
 199.3671875 511.029296875 187.524414062 543.728515625 163.508789062 567.763671875 c 1
 157.314453125 591.21484375 139.174804688 613.00390625 128.28125 636.4296875 c 0
 115.228515625 656.573242188 144.888671875 664.989257812 144.31640625 686.743164062 c 1
 170.713867188 660.727539062 192.713867188 627.834960938 210.364257812 594.549804688 c 1
 227.53125 574.737304688 235.364257812 548.677734375 253.153320312 526.859375 c 0
 271.9375 507.874023438 284.8359375 446.811523438 316.866210938 466.640625 c 1
 358.474609375 513.547851562 403.095703125 557.796875 446.315429688 603.243164062 c 1
 469.896484375 622.09375 486.740234375 649.034179688 513.112304688 664.110351562 c 1
 535.262695312 665.963867188 551.643554688 706.21484375 576.865234375 693.928710938 c 1
 571.043945312 674.249023438 537.430664062 654.775390625 526.616210938 630.71875 c 1
 476.58984375 570.564453125 417.577148438 518.2421875 371.822265625 454.452148438 c 0
 351.241210938 431.736328125 325.0078125 402.051757812 354.7421875 375.087890625 c 1
 371.728515625 352.665039062 384.176757812 326.815429688 401.763671875 305.229492188 c 0
 420.672851562 285.2890625 437.584960938 265.912109375 455.625976562 245.3984375 c 0
 472.0234375 220.495117188 490.35546875 196.864257812 509.444335938 174.126953125 c 0
 529.26171875 151.403320312 556.151367188 135.852539062 567.732421875 107.0859375 c 1
 588.229492188 92.818359375 590.063476562 66.677734375 597.692382812 47.8525390625 c 1
 587.680664062 48.626953125 572.793945312 17.0400390625 570.481445312 38.9033203125 c 0
 570.947265625 75.0595703125 531.080078125 87.6240234375 511.859375 112.37890625 c 0
 483.051757812 141.35546875 452.995117188 169.836914062 429.646484375 203.301757812 c 1
 400.337890625 233.256835938 371.059570312 264.12890625 348.171875 299.284179688 c 0
 334.25390625 319.98046875 317.192382812 348.259765625 297.71875 359.2578125 c 1
 259.661132812 325.9921875 228.56640625 284.8828125 203.405273438 241.197265625 c 1
 186.362304688 220.524414062 168.568359375 195.609375 153.299804688 171.260742188 c 0
 137.267578125 143.630859375 114.108398438 119.909179688 106.938476562 87.8994140625 c 1
 96.322265625 61.2412109375 84.6552734375 34.8876953125 77.619140625 7.021484375 c 0
 75.0791015625 -3.9658203125 63.7314453125 -5.400390625 59.931640625 5.796875 c 1
EndSplineSet
Validated: 524321
EndChar

StartChar: Y
Encoding: 49 89 49
Width: 455
Flags: W
VStem: 317.965 46.125<14.005 143.48>
LayerCount: 2
Fore
SplineSet
348.4765625 3.5400390625 m 1
 328.360351562 22.1962890625 323.421875 51.171875 317.96484375 76.84765625 c 0
 298.205078125 152.811523438 302.1484375 232.162109375 312.1640625 309.26171875 c 0
 316.44140625 351.801757812 319.573242188 394.500976562 326.25390625 436.67578125 c 0
 329.685546875 450.370117188 329.80078125 477.372070312 311.091796875 458.293945312 c 1
 305.106445312 442.754882812 276.8203125 430.885742188 275.948242188 420.32421875 c 1
 267.2734375 408.602539062 239.052734375 388.485351562 223.467773438 372.732421875 c 1
 202.091796875 358.760742188 176.5546875 348.9296875 151.051757812 344.888671875 c 0
 109.849609375 339.064453125 68.234375 365.250976562 55.41015625 404.68359375 c 0
 42.8720703125 432.51953125 47.7783203125 464.1328125 46.3818359375 493.92578125 c 0
 47.3671875 502.891601562 44.1728515625 515.098632812 47.7294921875 522.076171875 c 1
 62.1591796875 524.801757812 63.283203125 525.603515625 49.3544921875 532.078125 c 1
 53.3935546875 547.481445312 56.755859375 549.811523438 52.1083984375 565.6875 c 1
 58.1474609375 595.65234375 65.9375 625.915039062 82.404296875 652.237304688 c 1
 87.09765625 668.724609375 93.548828125 676.6875 109.096679688 673.770507812 c 1
 102.295898438 694.563476562 122.88671875 668.708007812 126.403320312 687.30859375 c 1
 130.442382812 669.965820312 113.208984375 649.69140625 107.124023438 630.551757812 c 0
 98.345703125 608.202148438 90.353515625 583.068359375 84.7236328125 559.21875 c 0
 74.724609375 523.599609375 75.1630859375 485.923828125 81.31640625 449.74609375 c 0
 84.455078125 419.559570312 101.6171875 377.84375 137.358398438 378.205078125 c 0
 176.276367188 375.684570312 211.327148438 397.11328125 238.427734375 423.153320312 c 0
 272.286132812 456.26171875 306.919921875 489.48046875 334.73046875 527.918945312 c 0
 347.149414062 549.543945312 340.923828125 576.604492188 352.650390625 598.517578125 c 1
 349.434570312 618.166992188 356.828125 643.395507812 361.5234375 664.140625 c 1
 361.215820312 685.4921875 387.53515625 714.143554688 401.252929688 685.604492188 c 1
 410.956054688 678.018554688 404.499023438 664.739257812 405.922851562 654.235351562 c 0
 404.5 624.486328125 408.408203125 592.7421875 391.842773438 566.283203125 c 1
 390.794921875 555.6171875 383.025390625 542.045898438 384.1875 540.639648438 c 0
 395.22265625 530.793945312 367.631835938 532.069335938 374.963867188 514.559570312 c 1
 365.424804688 440.145507812 357.150390625 365.485351562 349.580078125 290.913085938 c 0
 342.1640625 242.934570312 344.548828125 193.80078125 344.387695312 145.315429688 c 0
 344.6953125 106.184570312 348.595703125 65.8984375 364.08984375 29.6865234375 c 1
 385.864257812 19.767578125 371.490234375 -7.451171875 348.4921875 3.5400390625 c 1
 348.4765625 3.5400390625 l 1
EndSplineSet
Validated: 524321
EndChar

StartChar: Z
Encoding: 50 90 50
Width: 749
Flags: W
HStem: 5.83301 46.2148<366.366 641.167>
LayerCount: 2
Fore
SplineSet
428.950195312 5.8330078125 m 1
 399.525390625 12.134765625 367.973632812 9.8642578125 340.998046875 25.6083984375 c 1
 310.240234375 37.74609375 293.75390625 64.626953125 280.15625 91.9091796875 c 0
 266.38671875 128.280273438 266.553710938 170.6171875 281.663085938 206.458007812 c 1
 299.044921875 223.102539062 307.065429688 246.640625 320.571289062 266.307617188 c 1
 273.302734375 262.201171875 225.400390625 254.5859375 178.178710938 261.885742188 c 1
 157.200195312 274.26953125 200.963867188 265.108398438 188.41796875 284.916992188 c 1
 212.560546875 301.924804688 246.80078125 304.115234375 275.4375 310.915039062 c 0
 308.76953125 316.28515625 349.653320312 309.076171875 375.461914062 333.791015625 c 1
 393.012695312 361.705078125 418.452148438 387.095703125 429.6796875 417.58203125 c 0
 438.435546875 446.79296875 463.592773438 467.798828125 454.63671875 501.16796875 c 1
 449.677734375 536.211914062 414.481445312 557.23046875 389.522460938 578.571289062 c 1
 346.362304688 606.828125 294.342773438 615.412109375 248.0078125 637.046875 c 1
 207.159179688 649.767578125 163.873046875 636.291992188 123.911132812 625.840820312 c 1
 87.0078125 623.3984375 78.89453125 592.290039062 84.7158203125 561.948242188 c 1
 43.396484375 560.020507812 25.271484375 613.069335938 57.50390625 639.209960938 c 0
 75.65234375 652.857421875 111.423828125 687.689453125 125.680664062 679.831054688 c 0
 133.372070312 671.03125 172.185546875 702.478515625 193.592773438 692.958984375 c 1
 238.434570312 693.056640625 283.232421875 686.525390625 324.459960938 668.188476562 c 0
 357.6015625 655.991210938 391.11328125 643.104492188 419.129882812 621.213867188 c 1
 457.892578125 600.208984375 494.786132812 566.922851562 507.1328125 523.423828125 c 1
 511.212890625 490.870117188 518.668945312 454.030273438 497.420898438 425.553710938 c 1
 478.81640625 391.348632812 457.036132812 359.124023438 433.994140625 327.790039062 c 1
 473.845703125 329.702148438 513.873046875 331.515625 553.409179688 335.853515625 c 1
 575.154296875 324.333984375 601.41015625 350.166015625 616.850585938 318.190429688 c 1
 587.713867188 325.452148438 621.13671875 299.737304688 593.805664062 307.287109375 c 1
 555.8828125 297.18359375 517.676757812 286.783203125 478.24609375 283.528320312 c 0
 445.665039062 277.986328125 410.146484375 280.299804688 380.05078125 265.6796875 c 1
 365.327148438 239.919921875 348.465820312 211.606445312 332.904296875 183.884765625 c 0
 309.865234375 150.686523438 321.184570312 100.262695312 355.788085938 79.109375 c 0
 383.701171875 63.34375 413.958984375 51.513671875 446.703125 52.0478515625 c 0
 512.512695312 49.0556640625 579.461914062 48.4091796875 644.203125 61.8837890625 c 0
 664.344726562 65.51171875 697.233398438 107.875 702.938476562 68.5390625 c 1
 682.05859375 43.568359375 663.446289062 16.91796875 626.416015625 13.375 c 1
 565.817382812 -4.3388671875 501.604492188 1.048828125 439.438476562 4.263671875 c 1
 440.418945312 -2.2060546875 429.420898438 9.478515625 428.96875 5.8330078125 c 2
 428.950195312 5.8330078125 l 1
EndSplineSet
Validated: 524321
EndChar

StartChar: OE
Encoding: 51 338 51
Width: 880
Flags: W
HStem: 651.44 22.9717<734.372 797.919>
VStem: 432.149 55.6084<281.162 459.57>
LayerCount: 2
Fore
SplineSet
176.249023438 31.521484375 m 1
 138.797851562 46.2578125 100.791992188 67.1142578125 85.2333984375 106.625 c 1
 37.763671875 199.58984375 46.0380859375 309.0625 65.0068359375 408.420898438 c 1
 77.70703125 445.994140625 86.6689453125 485.3671875 105.3203125 520.892578125 c 0
 125.866210938 556.7109375 143.685546875 594.956054688 177.791015625 620.166992188 c 1
 205.913085938 651.154296875 242.8828125 670.26953125 281.694335938 684.23828125 c 0
 312.44140625 697.15234375 350.786132812 695.388671875 383.119140625 689.654296875 c 1
 411.536132812 673.84375 446.930664062 659.274414062 449.770507812 620.90234375 c 0
 451.521484375 590.723632812 454.889648438 554.637695312 439.947265625 528.934570312 c 1
 417.098632812 529.666015625 422.85546875 589.5390625 415.798828125 612.721679688 c 1
 401.458984375 640.455078125 377.235351562 671.399414062 344.853515625 656.927734375 c 1
 308.28515625 660.344726562 274.639648438 643.584960938 245.390625 624.18359375 c 0
 200.319335938 595.807617188 165.294921875 552.653320312 146.098632812 503.25 c 1
 125.690429688 470.9453125 119.229492188 434.896484375 108.28515625 398.734375 c 1
 106.4375 368.44140625 82.8720703125 325.859375 106.418945312 305.065429688 c 1
 107.1171875 275.212890625 80.28515625 224.037109375 110.608398438 206.28515625 c 1
 116.196289062 195.090820312 133.359375 155.556640625 121.125 154.983398438 c 1
 107.931640625 179.810546875 120.07421875 125.838867188 130.680664062 118.620117188 c 1
 149.174804688 87.001953125 172.209960938 57.3798828125 203.627929688 37.7744140625 c 0
 224.754882812 20.48828125 182.514648438 30.6689453125 176.24609375 31.5205078125 c 2
 176.249023438 31.521484375 l 1
558.934570312 -1.341796875 m 1
 526.731445312 9.3193359375 492.196289062 26.84765625 477.87890625 60.0830078125 c 1
 460.038085938 75.7890625 458.220703125 128.0078125 435.453125 124.974609375 c 1
 403.47265625 99.873046875 371.618164062 74.6220703125 335.126953125 56.166015625 c 0
 306.409179688 38.1455078125 270.413085938 30.8583984375 237.072265625 35.4345703125 c 1
 222.665039062 43.0400390625 174.364257812 59.3388671875 184.021484375 73.4140625 c 1
 211.279296875 56.298828125 246.512695312 67.03125 276.493164062 72.408203125 c 0
 313.624023438 83.251953125 347.873046875 102.640625 377.540039062 127.513671875 c 1
 411.440429688 148.87109375 435.810546875 184.8671875 430.458984375 226.189453125 c 1
 430.96484375 285.48828125 433.6640625 345.078125 432.149414062 404.217773438 c 1
 417.974609375 451.215820312 392.387695312 493.522460938 370.7265625 537.052734375 c 0
 356.400390625 559.857421875 319.280273438 554.075195312 305.8984375 577.676757812 c 1
 336.723632812 610.955078125 376.940429688 568.38671875 398.450195312 543.33203125 c 1
 417.280273438 528.493164062 431.819335938 493.20703125 445.127929688 485.362304688 c 1
 456.130859375 526.275390625 454.369140625 570.239257812 477.609375 607.50390625 c 1
 483.423828125 627.684570312 496.96875 667.665039062 523.366210938 646.846679688 c 1
 480.455078125 634.37109375 543.059570312 613.571289062 555.30859375 643.129882812 c 1
 583.833007812 661.82421875 617.936523438 663.534179688 649.927734375 671.33984375 c 0
 684.716796875 675.525390625 720.038085938 680.0546875 754.483398438 674.412109375 c 1
 769.619140625 681.473632812 825.555664062 667.333984375 788.119140625 651.440429688 c 0
 747.287109375 635.051757812 701.283203125 642.466796875 659.325195312 629.35546875 c 1
 617.720703125 620.91796875 573.680664062 616.403320312 536.638671875 594.014648438 c 1
 493.03125 612.515625 504.534179688 545.129882812 489.663085938 520.970703125 c 1
 486.35546875 486.561523438 485.526367188 448.643554688 473.875 417.19140625 c 0
 467.2265625 395.147460938 486.663085938 366.8984375 487.7578125 340.315429688 c 0
 490.946289062 313.294921875 490.119140625 261.796875 529.885742188 288.572265625 c 1
 561.307617188 298.740234375 585.302734375 299.661132812 616.028320312 308.598632812 c 1
 639.302734375 308.499023438 664.373046875 332.17578125 696.475585938 320.983398438 c 1
 700.284179688 290.853515625 636.541992188 284.012695312 609.924804688 273.57421875 c 0
 571.372070312 261.912109375 532.124023438 251.815429688 494.7890625 236.6328125 c 1
 473.3046875 195.294921875 481.788085938 147.342773438 500.771484375 106.887695312 c 0
 519.630859375 64.3857421875 548.626953125 22.5888671875 592.55859375 3.4912109375 c 0
 595.890625 5.4423828125 541.869140625 39.9951171875 579.897460938 31.0517578125 c 1
 618.354492188 28.9375 656.331054688 36.3583984375 690.833007812 52.6044921875 c 0
 711.54296875 59.0712890625 740.196289062 73.5849609375 763.830078125 90.107421875 c 1
 791.1171875 97.921875 805.474609375 135.874023438 833.228515625 126.672851562 c 1
 821.877929688 102.364257812 799.484375 75.7255859375 776.5078125 61.896484375 c 1
 750.310546875 39.4873046875 715.55078125 24.2724609375 682.766601562 10.3125 c 1
 654.0703125 -12.8017578125 616.05078125 13.275390625 588.455078125 -3.525390625 c 0
 579.530273438 -4.404296875 565.91796875 -8.375 558.935546875 -1.3408203125 c 1
 558.934570312 -1.341796875 l 1
EndSplineSet
Validated: 524321
EndChar

StartChar: AE
Encoding: 52 198 52
Width: 821
Flags: W
HStem: 276.127 17.6191<485.914 490.928>
VStem: 54.8955 36.6377<22.3086 137.242> 319.692 39.2734<338.772 471.973> 738.271 20.127<213.654 245.057>
LayerCount: 2
Fore
SplineSet
419.747070312 685.59375 m 0
 415.330078125 694.940429688 436.830078125 680.995117188 425.06640625 695.365234375 c 1
 445.734375 709.586914062 471.088867188 678.74609375 435.310546875 683.116210938 c 1
 433.712890625 676.37109375 422.065429688 682.366210938 419.747070312 685.59375 c 0
459.755859375 630.172851562 m 2
 463.063476562 658.905273438 518.525390625 654.602539062 542.244140625 666.234375 c 0
 560.728515625 675.540039062 601.044921875 672.017578125 609.5234375 681.048828125 c 1
 598.130859375 684.423828125 647.185546875 685.995117188 657.796875 683.974609375 c 0
 686.0234375 679.797851562 739.430664062 680.475585938 749.5625 656.4609375 c 1
 722.080078125 645.194335938 690.462890625 646.163085938 659.413085938 648.630859375 c 0
 623.939453125 655.037109375 586.752929688 650.8671875 550.755859375 649.2265625 c 1
 520.579101562 643.11328125 490.706054688 629.665039062 459.755859375 630.173828125 c 1
 459.755859375 630.172851562 l 2
750.126953125 253.663085938 m 1
 742.783203125 272.56640625 771.356445312 235.5625 750.126953125 253.663085938 c 1
533.897460938 58.1474609375 m 1
 524.065429688 72.8603515625 525.302734375 43.9375 533.897460938 58.1474609375 c 1
571.704101562 685.365234375 m 1
 525.912109375 681.977539062 480.84375 669.495117188 435.94140625 662.081054688 c 1
 427.57421875 649.52734375 414.717773438 689.822265625 396.823242188 664.010742188 c 1
 372.06640625 646.513671875 348.385742188 623.381835938 329.662109375 597.975585938 c 0
 313.109375 568.790039062 298.2890625 552.140625 281.404296875 523.543945312 c 1
 244.086914062 485.526367188 219.297851562 438.245117188 194.922851562 391.46875 c 0
 175.513671875 361.024414062 161.565429688 327.39453125 143.5703125 296.8046875 c 1
 127.938476562 284.573242188 108.946289062 276.5625 121.021484375 254.901367188 c 1
 109.1328125 227.630859375 94.6708984375 198.4296875 85.0302734375 172.938476562 c 1
 68.2197265625 145.131835938 58.1591796875 113.8203125 54.8955078125 81.2998046875 c 0
 50.2255859375 50.7998046875 51.65625 4.0380859375 89.0244140625 -3.4990234375 c 0
 117.21484375 -9.0712890625 120.608398438 25.0751953125 91.533203125 22.30859375 c 1
 79.2490234375 74.4677734375 104.975585938 126.049804688 123.591796875 173.615234375 c 1
 144.350585938 197.782226562 144.006835938 245.134765625 181.44140625 250.64453125 c 0
 221.896484375 255.155273438 262.899414062 257.733398438 303.567382812 256.076171875 c 1
 333.846679688 240.650390625 313.389648438 191.611328125 332.368164062 164.08203125 c 1
 347.73828125 114.556640625 382.189453125 69.4130859375 427.705078125 44.333984375 c 1
 471.901367188 25.935546875 522.909179688 21.2626953125 567.5234375 41.0126953125 c 1
 586.245117188 53.7265625 632.190429688 58.4970703125 633.580078125 79.8515625 c 1
 642.625976562 92.7275390625 683.627929688 115.48828125 702.584960938 134.817382812 c 0
 727.864257812 157.052734375 753.12109375 184.934570312 758.3984375 218.311523438 c 0
 765.272460938 239.934570312 740.881835938 263.625 738.271484375 231.465820312 c 1
 721.87109375 196.125976562 697.0546875 165.051757812 665.469726562 142.303710938 c 1
 663.76171875 121.049804688 619.6796875 110.756835938 600.637695312 94.400390625 c 1
 569.250976562 79.966796875 535.731445312 65.220703125 502.056640625 60.1005859375 c 1
 465.864257812 69.509765625 425.647460938 77.7021484375 402.287109375 110.021484375 c 0
 383.46484375 138.407226562 366.245117188 169.145507812 362.185546875 204.001953125 c 1
 352.197265625 228.4296875 338.928710938 277.3359375 383.631835938 264.0234375 c 1
 419.526367188 265.896484375 455.78125 268.404296875 490.927734375 276.126953125 c 1
 499.379882812 286.034179688 468.688476562 288.485351562 494.653320312 293.74609375 c 1
 524.916992188 306.580078125 565.655273438 301.905273438 586.53125 331.291015625 c 1
 582.4921875 347.6796875 544.080078125 330.57421875 541.16796875 333.946289062 c 0
 521.725585938 332.293945312 478.262695312 327.801757812 451.071289062 317.631835938 c 0
 421.178710938 304.513671875 386.254882812 300.41796875 353.545898438 300.79296875 c 1
 346.5859375 332.354492188 358.00390625 366.668945312 358.965820312 399.245117188 c 1
 364.8515625 433.142578125 368.234375 466.624023438 380.990234375 498.963867188 c 0
 395.577148438 531.579101562 394.162109375 570.331054688 414.623046875 600.1484375 c 1
 414.329101562 630.059570312 460.638671875 614.373046875 450.201171875 647.345703125 c 1
 472.8515625 668.891601562 508.905273438 665.446289062 537.454101562 675.204101562 c 0
 548.979492188 678.04296875 560.794921875 680.806640625 571.703125 685.365234375 c 2
 571.704101562 685.365234375 l 1
366.331054688 588.229492188 m 1
 361.30859375 548.725585938 350.442382812 510.211914062 335.857421875 473.267578125 c 1
 336.87890625 445.647460938 320.431640625 417.676757812 319.692382812 388.765625 c 1
 311.860351562 358.842773438 317.78125 322.75 306.66015625 295.91015625 c 1
 284.26953125 288.140625 262.680664062 297.774414062 238.966796875 284.883789062 c 1
 221.080078125 282.552734375 169.887695312 263.357421875 189.087890625 302.45703125 c 1
 231.604492188 366.60546875 257.422851562 441.278320312 304.537109375 502.84765625 c 1
 320.922851562 531.387695312 336.608398438 560.801757812 361.446289062 583.139648438 c 0
 363.073242188 584.836914062 364.703125 586.532226562 366.331054688 588.229492188 c 1
EndSplineSet
Validated: 524325
EndChar

StartChar: Acircumflex
Encoding: 53 194 53
Width: 489
Flags: W
VStem: 129.333 55.9004<124.891 174.944>
LayerCount: 2
Fore
SplineSet
359.743164062 609 m 0
 324.2890625 621.395507812 300.759765625 654.458007812 290.705078125 689.353515625 c 1
 263.42578125 701.266601562 258.838867188 642.953125 238.041015625 628.798828125 c 1
 221.489257812 609.140625 230.364257812 638.30859375 214.419921875 647.95703125 c 1
 226.854492188 676.465820312 243.276367188 706.506835938 261.938476562 732.606445312 c 1
 282.631835938 780.588867188 331.440429688 730.064453125 327.668945312 695.673828125 c 1
 332.4921875 660.440429688 372.358398438 637.267578125 377.978515625 608.040039062 c 1
 372.451171875 604.466796875 365.219726562 606.4609375 359.743164062 609 c 0
304.012695312 597.984375 m 1
 278.8046875 596.418945312 318.407226562 543.494140625 285.245117188 559.227539062 c 0
 258.932617188 568.418945312 260.576171875 513.151367188 250.131835938 495.240234375 c 1
 228.20703125 419.0625 196.34765625 346.340820312 170.002929688 271.706054688 c 0
 161.528320312 242.21484375 144.856445312 212.044921875 129.333007812 190.276367188 c 1
 131.040039062 152.896484375 100.961914062 123.635742188 93.984375 87.6865234375 c 1
 74.4208984375 41.4091796875 50.69140625 -4.16015625 43.1953125 -54.2646484375 c 1
 27.5546875 -103.32421875 100.447265625 -96.7919921875 105.280273438 -55.98046875 c 1
 128.788085938 -25.4033203125 128.67578125 14.5078125 148.518554688 46.6748046875 c 0
 167.616210938 77.8857421875 170.55859375 117.448242188 185.233398438 147.18359375 c 1
 184.750976562 180.948242188 230.02734375 180.640625 256.595703125 176.879882812 c 1
 293.032226562 180.815429688 329.955078125 180.905273438 366.49609375 184.87890625 c 1
 390.140625 150.686523438 383.27734375 106.778320312 394.859375 68.568359375 c 0
 399.25390625 46.638671875 402.328125 -11.4921875 432.208007812 -1.83203125 c 1
 441.022460938 37.78125 426.47265625 78.310546875 423.059570312 117.938476562 c 0
 410.104492188 207.56640625 394.216796875 297.344726562 362.356445312 382.44140625 c 1
 352.430664062 423.833007812 332.427734375 461.548828125 321.224609375 502.548828125 c 1
 303.23046875 528.626953125 302.090820312 555.39453125 313.225585938 585.005859375 c 0
 313.512695312 590.821289062 309.692382812 596.405273438 304.013671875 597.984375 c 2
 304.012695312 597.984375 l 1
287.110351562 474.149414062 m 1
 309.254882812 443.478515625 312.408203125 404.0390625 327.526367188 370.069335938 c 0
 342.051757812 326.010742188 357.704101562 281.9609375 364.364257812 235.979492188 c 1
 376.15625 197.702148438 317.40234375 221.201171875 296.17578125 213.05078125 c 1
 265.758789062 212.903320312 234.412109375 207.966796875 204.541992188 212.022460938 c 1
 192.642578125 226.053710938 215.455078125 247.62890625 215.07421875 264.094726562 c 1
 228.474609375 297.870117188 233.774414062 334.329101562 247.670898438 368.068359375 c 0
 261.62109375 403.032226562 268.469726562 441.330078125 287.110351562 474.149414062 c 1
EndSplineSet
Validated: 524329
EndChar

StartChar: Edieresis
Encoding: 54 203 54
Width: 703
Flags: W
HStem: 490.828 21.8613<418.911 464.525>
VStem: 108.952 28.3223<397.962 449.79> 386.812 55.8818<599.344 722.887> 425.543 22.6279<729.778 739.365>
LayerCount: 2
Fore
SplineSet
391.602539062 600.2265625 m 0xe0
 362.16015625 625.97265625 386.356445312 661.452148438 386.811523438 693.021484375 c 1xe0
 393.734375 717.180664062 419.879882812 725.901367188 425.54296875 748.752929688 c 1
 426.678710938 737.186523438 464.508789062 743.901367188 448.170898438 715.954101562 c 1xd0
 444.698242188 684.748046875 435.126953125 659.272460938 442.693359375 636.172851562 c 1
 437.692382812 613.931640625 418.40234375 580.579101562 391.602539062 600.2265625 c 0xe0
216.6796875 587.877929688 m 1
 193.080078125 599.965820312 194.009765625 637.1171875 191.080078125 657.598632812 c 1
 213.076171875 686.5546875 189.624023438 724.504882812 218.333007812 750.666992188 c 1
 221.353515625 761.329101562 222.1484375 730.876953125 234.0546875 751.625 c 1
 249.138671875 758.208007812 259.5625 744.8046875 270.151367188 738.557617188 c 1
 267.327148438 706.885742188 280.735351562 669.479492188 268.8203125 641.997070312 c 1
 269.634765625 615.078125 249.528320312 573.703125 216.680664062 587.877929688 c 1
 216.6796875 587.877929688 l 1
168.989257812 402.618164062 m 1
 146.235351562 428.693359375 201.216796875 441.885742188 220.65625 452.454101562 c 0
 244.536132812 467.790039062 275.137695312 474.420898438 302.328125 484.412109375 c 0
 338.500976562 492.887695312 372.98046875 507.686523438 410.025390625 512.689453125 c 1
 428.865234375 522.224609375 486.2265625 521.328125 459.809570312 490.828125 c 1
 428.787109375 488.002929688 401.16015625 469.288085938 368.125976562 467.85546875 c 1
 334.178710938 457.65234375 300.213867188 448.166992188 265.995117188 436.688476562 c 1
 229.901367188 432.799804688 201.041992188 408.297851562 168.993164062 393.189453125 c 1
 168.991210938 396.333007812 168.993164062 399.475585938 168.993164062 402.618164062 c 2
 168.989257812 402.618164062 l 1
446.3671875 -48.7197265625 m 1
 368.680664062 -43.21875 290.29296875 -41.3974609375 213.440429688 -28.228515625 c 1
 183.46875 -16.31640625 147.728515625 -12.658203125 124.20703125 13.5009765625 c 1
 89.193359375 40.935546875 79.0361328125 85.5263671875 69.9775390625 126.717773438 c 0
 68.2431640625 144.432617188 21.0458984375 146.98046875 55.638671875 161.674804688 c 1
 70.759765625 187.265625 60.609375 220.450195312 66.9716796875 249.236328125 c 0
 72.6298828125 315.137695312 88.9423828125 379.615234375 108.952148438 442.362304688 c 0
 121.219726562 475.185546875 153.487304688 430.916015625 137.274414062 412.4375 c 1
 136.125976562 397.006835938 153.709960938 392.985351562 132.395507812 392.427734375 c 1
 112.455078125 339.747070312 111.34375 282.341796875 105.39453125 226.876953125 c 0
 99.80859375 200.49609375 103.844726562 169.040039062 138.598632812 182.477539062 c 1
 216.422851562 194.987304688 294.759765625 203.872070312 372.793945312 214.688476562 c 0
 393.520507812 215.103515625 419.822265625 230.049804688 417.288085938 198.033203125 c 1
 408.374023438 216.947265625 396.416015625 183.470703125 396.83203125 200.12890625 c 1
 367.568359375 180.608398438 329.845703125 179.719726562 295.672851562 174.087890625 c 0
 255.546875 163.758789062 213.776367188 162.294921875 173.12109375 154.459960938 c 1
 141.6640625 153.110351562 90.212890625 152.750976562 113.771484375 107.649414062 c 1
 121.923828125 73.7080078125 141.819335938 40.974609375 174.719726562 25.9990234375 c 0
 214.262695312 7.8779296875 258.953125 5.736328125 301.583007812 0.5263671875 c 0
 380.606445312 -11.2470703125 460.970703125 -14.83203125 540.770507812 -11.5419921875 c 1
 568.4296875 -15.0205078125 607.90625 2.900390625 639.8359375 11.84375 c 0
 687.268554688 19.162109375 638.134765625 -27.1630859375 618.813476562 -21.2724609375 c 1
 599.741210938 -30.994140625 572.521484375 -39.751953125 545.841796875 -42.1181640625 c 0
 512.868164062 -46.4541015625 479.27734375 -45.8017578125 446.3671875 -48.71875 c 1
 446.3671875 -48.7197265625 l 1
EndSplineSet
Validated: 524321
EndChar

StartChar: Ccedilla
Encoding: 55 199 55
Width: 866
Flags: W
LayerCount: 2
Fore
SplineSet
441.971679688 -240.111328125 m 1
 415.666015625 -224.107421875 445.017578125 -201.9453125 469.900390625 -203.52734375 c 1
 487.685546875 -177.173828125 560.19921875 -165.436523438 537.569335938 -125.044921875 c 1
 469.455078125 -88.2607421875 379.890625 -85.3486328125 328.83984375 -21.0146484375 c 1
 299.57421875 8.3173828125 376.853515625 68.62890625 314.185546875 62.15625 c 1
 227.084960938 64.3896484375 134.260742188 96.6103515625 81.1630859375 168.831054688 c 1
 54.5703125 223.572265625 40.107421875 287.224609375 50.2587890625 347.8515625 c 1
 68.1171875 411.98828125 96.2080078125 474.54296875 138.849609375 526.192382812 c 1
 165.044921875 568.756835938 206.3203125 599.703125 243.962890625 631.778320312 c 1
 281.58984375 650.583007812 311.364257812 674.713867188 349.459960938 688.611328125 c 0
 397.883789062 710.166992188 456.016601562 704.94140625 503.961914062 684.544921875 c 0
 554.543945312 665.803710938 504.131835938 623.90625 474.010742188 653.768554688 c 1
 426.143554688 672.803710938 374.145507812 656.677734375 330.2421875 635.782226562 c 1
 296.657226562 613.756835938 264.776367188 595.508789062 240.08203125 567.326171875 c 1
 205.5078125 535.649414062 174.48046875 500.186523438 149.876953125 460.322265625 c 1
 124.458984375 427.763671875 116.115234375 384.022460938 101.6953125 345.431640625 c 0
 86.6337890625 305.688476562 98.57421875 263.702148438 109.495117188 224.630859375 c 1
 129.901367188 173.854492188 175.698242188 139.036132812 227.138671875 123.6328125 c 1
 286.029296875 98.2119140625 351.68359375 110.357421875 413.48828125 113.998046875 c 1
 485.612304688 124.944335938 558.088867188 137.12109375 627.901367188 157.971679688 c 1
 658.215820312 178.0703125 694.708984375 173.443359375 724.704101562 199.3203125 c 1
 755.264648438 216.560546875 778.219726562 252.583007812 802.548828125 269.639648438 c 1
 822.8203125 228.4765625 773.140625 192.9375 741.467773438 174.14453125 c 0
 701.439453125 152.576171875 661.768554688 128.21875 617.387695312 117.362304688 c 1
 555.506835938 91.56640625 486.23046875 87.681640625 425.728515625 58.44140625 c 0
 392.750976562 39.388671875 348.063476562 -6.0537109375 408.393554688 -25.0517578125 c 0
 447.828125 -40.025390625 485.881835938 -58.0986328125 525.838867188 -71.4619140625 c 1
 565.951171875 -80.6376953125 604.484375 -125.633789062 584.323242188 -166.961914062 c 1
 551.549804688 -208.583007812 499.30859375 -230.529296875 449.579101562 -244.5234375 c 0
 447.485351562 -248.259765625 437.951171875 -243.91796875 441.971679688 -240.112304688 c 1
 441.971679688 -240.111328125 l 1
EndSplineSet
Validated: 524321
EndChar

StartChar: Idieresis
Encoding: 56 207 56
Width: 303
Flags: W
VStem: 42.7461 41.3467<628.777 752.601> 188.2 40.9346<2.60915 290.698>
LayerCount: 2
Fore
SplineSet
199.303710938 717.073242188 m 1
 207.236328125 724.958984375 207.83984375 704.428710938 199.303710938 717.073242188 c 1
187.501953125 643.223632812 m 0
 175.588867188 659.67578125 160.196289062 714.877929688 193.720703125 709.624023438 c 1
 218.75 695.81640625 204.668945312 660.134765625 202.500976562 637.81640625 c 1
 197.169921875 634.956054688 191.133789062 639.686523438 187.501953125 643.223632812 c 0
60.2265625 628.040039062 m 0
 43.45703125 643.52734375 40.263671875 674.748046875 42.74609375 697.587890625 c 1
 49.55078125 719.186523438 38.8505859375 753.077148438 71.212890625 753.809570312 c 1
 93.2041015625 746.51953125 73.3583984375 710.747070312 78.5146484375 692.068359375 c 1
 75.9267578125 672.456054688 91.771484375 645.625 84.0927734375 631.623046875 c 1
 83.890625 616.786132812 67.767578125 624.036132812 60.2265625 628.040039062 c 0
201.895507812 1.4609375 m 1
 188.5625 25.861328125 191.6796875 56.3740234375 188.200195312 83.533203125 c 0
 187.627929688 173.618164062 193.336914062 264.293945312 180.642578125 353.8046875 c 0
 180.524414062 378.842773438 175.134765625 403.071289062 171.265625 427.532226562 c 1
 162.350585938 452.940429688 184.245117188 475.85546875 200.659179688 446.345703125 c 0
 217.092773438 424.420898438 215.630859375 394.76171875 220.59375 368.78515625 c 0
 228.0078125 300.673828125 233.770507812 232.307617188 232.083007812 163.721679688 c 0
 231.104492188 111.416992188 234.483398438 58.8564453125 229.134765625 6.7431640625 c 0
 226.41796875 -5.1328125 209.709960938 -4.921875 201.895507812 1.4609375 c 1
EndSplineSet
Validated: 524321
EndChar

StartChar: Icircumflex
Encoding: 57 206 57
Width: 366
Flags: W
VStem: 208.747 38.21<147.545 522.075>
LayerCount: 2
Fore
SplineSet
307.020507812 580.96875 m 0
 274.893554688 593.666992188 264.928710938 632.569335938 261.782226562 663.829101562 c 0
 260.78125 682.634765625 260.647460938 725.701171875 233.32421875 697.59765625 c 0
 212.770507812 680.4921875 190.715820312 667.725585938 169.497070312 649.639648438 c 0
 145.892578125 630.751953125 117.3671875 620.249023438 93.6650390625 601.844726562 c 0
 81.0615234375 591.060546875 42.71875 583.991210938 39 595.428710938 c 1
 55.3212890625 595.637695312 68.34765625 596.776367188 69.2373046875 618.631835938 c 1
 80.2080078125 646.513671875 111.975585938 615.754882812 130.087890625 641.413085938 c 1
 145.787109375 656.046875 106.419921875 636.520507812 100.575195312 634.258789062 c 0
 80.7431640625 640.17578125 119.932617188 648.213867188 122.775390625 659.377929688 c 1
 166.89453125 687.454101562 202.951171875 727.426757812 251.674804688 748.234375 c 0
 283.577148438 760.3359375 298.14453125 732.151367188 293.401367188 704.987304688 c 1
 299.544921875 673.485351562 297.321289062 638.786132812 310.583984375 609.587890625 c 1
 324.756835938 600.881835938 325.5859375 573.55078125 307.020507812 580.96875 c 0
229.302734375 4.0146484375 m 1
 212.713867188 27.708984375 217.196289062 59.32421875 212.91796875 86.7626953125 c 0
 205.092773438 211.405273438 209.983398438 336.318359375 208.747070312 461.1015625 c 0
 211.690429688 485.08984375 202.482421875 515.39453125 215.051757812 535.403320312 c 1
 229.099609375 540.004882812 225.336914062 506.931640625 237.069335938 524.739257812 c 1
 244.524414062 514.203125 227.703125 516.74609375 240.73046875 504 c 1
 251.522460938 476.206054688 246.006835938 444.86328125 248.212890625 415.567382812 c 0
 252.10546875 392.203125 242.0078125 367.672851562 246.95703125 350.479492188 c 0
 252.450195312 252.360351562 242.755859375 153.255859375 257.71484375 55.73046875 c 1
 268.731445312 34.568359375 265.560546875 -15.486328125 232.110351562 1.0615234375 c 1
 229.28515625 4.0263671875 l 1
 229.302734375 4.0146484375 l 1
EndSplineSet
Validated: 524321
EndChar

StartChar: Ocircumflex
Encoding: 58 212 58
Width: 735
Flags: W
LayerCount: 2
Fore
SplineSet
376.619140625 654.4609375 m 1
 344.209960938 660.677734375 354.533203125 713.91796875 322.256835938 705.518554688 c 1
 294.165039062 687.497070312 271.418945312 659.64453125 236.510742188 654.0390625 c 1
 203.58203125 657.954101562 252.548828125 698.044921875 265.904296875 708.161132812 c 0
 292.681640625 721.03515625 310.321289062 752.166992188 341.350585938 751.439453125 c 1
 373.607421875 739.708984375 371.096679688 693.79296875 393.625976562 671.803710938 c 1
 427.015625 652.716796875 407.821289062 636.073242188 376.619140625 654.4609375 c 1
540.44140625 485.771484375 m 1
 521.790039062 500.592773438 555.872070312 461.341796875 543.522460938 482.536132812 c 1
 540.44140625 485.774414062 l 1
 540.44140625 485.771484375 l 1
619.939453125 347.750976562 m 1
 603.25390625 363.359375 619.528320312 316.555664062 619.939453125 347.750976562 c 1
668.901367188 236.599609375 m 1
 659.134765625 250.084960938 666.587890625 220.114257812 668.901367188 236.599609375 c 1
266.579101562 2.30859375 m 1
 229.483398438 9.8017578125 192.624023438 19.23828125 160.055664062 40.31640625 c 0
 131.021484375 61.3828125 102.78515625 86.412109375 83.2978515625 117.923828125 c 0
 59.0244140625 156.250976562 47.5087890625 201.674804688 50.451171875 246.989257812 c 1
 47.833984375 300.270507812 57.8896484375 354.3203125 85.2646484375 400.610351562 c 0
 100.2890625 431.712890625 121.40625 459.834960938 145.220703125 484.784179688 c 0
 167.09765625 508.991210938 193.169921875 526.872070312 222.565429688 540.651367188 c 0
 253.470703125 556.353515625 287.374023438 568.298828125 322.487304688 566.703125 c 1
 372.228515625 580.497070312 422.647460938 560.126953125 472.298828125 555.77734375 c 1
 505.57421875 544.28125 539.041015625 532.0390625 565.239257812 508.109375 c 1
 596.178710938 491.185546875 596.083984375 464.739257812 598.129882812 436.685546875 c 1
 584.651367188 426.693359375 597.266601562 410.715820312 602.818359375 393.4453125 c 1
 588.87109375 392.127929688 631.994140625 375.086914062 603.106445312 379.052734375 c 1
 573.1796875 365.616210938 568.125976562 416.35546875 547.060546875 434.91796875 c 0
 527.544921875 457.176757812 503.693359375 484.587890625 500.525390625 509.61328125 c 1
 442.481445312 542.123046875 373.147460938 542.692382812 308.520507812 539.0078125 c 0
 275.481445312 534.649414062 243.346679688 521.362304688 215.010742188 504.567382812 c 0
 189.80859375 486.004882812 162.794921875 469.376953125 146.013671875 442.293945312 c 0
 130.229492188 408.063476562 106.528320312 381.391601562 97.0029296875 343.887695312 c 0
 81.8564453125 286.897460938 78.2646484375 223.868164062 101.016601562 168.272460938 c 1
 105.884765625 136.567382812 130.037109375 113.2109375 148.24609375 90.2470703125 c 0
 169.192382812 68.41015625 205.607421875 60.5537109375 222.84375 46.7607421875 c 1
 247.526367188 52.4794921875 272.536132812 20.666015625 302.853515625 29.3525390625 c 1
 335.374023438 31.029296875 367.026367188 38.8505859375 399.673828125 40.142578125 c 1
 446.688476562 51.6015625 494.645507812 60.5185546875 537.072265625 85.0361328125 c 0
 562.833984375 103.391601562 590.1640625 121.498046875 611.741210938 145.005859375 c 0
 638.686523438 171.309570312 648.967773438 198.170898438 643.419921875 233.180664062 c 1
 646.034179688 265.048828125 619.918945312 293.627929688 614 326.133789062 c 1
 600.189453125 345.543945312 603.151367188 352.286132812 587.432617188 369.639648438 c 1
 603.002929688 368.50390625 607.827148438 353.432617188 615.3515625 373.0859375 c 1
 638.990234375 343.01953125 659.762695312 308.4375 663.204101562 269.349609375 c 1
 673.919921875 241.237304688 673.482421875 211.495117188 667.774414062 182.029296875 c 1
 666.358398438 149.188476562 643.275390625 127.047851562 620.353515625 105.958007812 c 0
 596.96875 81.51953125 566.051757812 67.384765625 539.786132812 47.83984375 c 1
 508.796875 31.607421875 475.831054688 18.759765625 440.170898438 13.3349609375 c 1
 383.825195312 -2.4931640625 324.430664062 -0.091796875 266.578125 2.30859375 c 1
 266.579101562 2.30859375 l 1
EndSplineSet
Validated: 524321
EndChar

StartChar: ampersand
Encoding: 59 38 59
Width: 635
Flags: W
LayerCount: 2
Fore
SplineSet
371.822265625 696.573242188 m 2
 335.376953125 702.229492188 320.1015625 664.317382812 326.381835938 634.130859375 c 0
 328.599609375 609.971679688 322.139648438 564.588867188 357.786132812 568.775390625 c 1
 357.935546875 522.078125 373.107421875 477.188476562 377.818359375 431.026367188 c 1
 374.299804688 397.229492188 350.986328125 367.974609375 336.005859375 338.600585938 c 1
 316.108398438 318.100585938 303.783203125 289.306640625 282.586914062 267.618164062 c 0
 256.848632812 238.290039062 232.846679688 205.25 199.75 184.026367188 c 1
 168.861328125 198.180664062 149.861328125 230.013671875 127.076171875 254.235351562 c 0
 107.012695312 281.170898438 176.69921875 286.00390625 158.139648438 313.5234375 c 1
 172.479492188 345.145507812 145.08984375 297.462890625 129.936523438 308.408203125 c 1
 105.205078125 300.51953125 59.6796875 282.342773438 75.1689453125 249.383789062 c 0
 91.7333984375 216.569335938 114.728515625 184.489257812 146.328125 164.9921875 c 1
 163.653320312 159.09375 180.170898438 143.793945312 158.083984375 127.215820312 c 0
 131.588867188 102.852539062 101.420898438 81.7900390625 68.9638671875 66.15625 c 1
 56.9599609375 55.0439453125 67.54296875 35.0576171875 74.6201171875 34.5498046875 c 1
 61.4287109375 31.26953125 23.787109375 22.14453125 57.9775390625 17.662109375 c 1
 71.912109375 26.6142578125 93.5810546875 35.7685546875 115.419921875 40.9169921875 c 0
 143.126953125 52.953125 163.91015625 75.861328125 187.251953125 94.8369140625 c 1
 198.936523438 113.779296875 219.276367188 129.037109375 239.46484375 110.5078125 c 1
 267.981445312 100.352539062 297.638671875 88.939453125 327.206054688 83.42578125 c 1
 353.080078125 72.2470703125 377.370117188 53.123046875 401.762695312 38.0458984375 c 1
 429.211914062 29.6396484375 458.122070312 23.2626953125 484.296875 9.818359375 c 0
 514.44140625 -3.13671875 558.190429688 -15.80078125 582.3046875 14.4990234375 c 1
 601.40234375 47.4033203125 573.192382812 81.947265625 562.9765625 113 c 0
 550.580078125 144.9140625 531.107421875 173.341796875 516.083984375 203.65234375 c 0
 501.563476562 231.981445312 487.1875 259.94921875 477.608398438 290.65234375 c 0
 465.610351562 320.69140625 454.471679688 351.15234375 445.486328125 382.12890625 c 1
 429.291015625 409.311523438 435.536132812 442.252929688 446.458984375 470.008789062 c 1
 457.857421875 523.206054688 460.71484375 582.36328125 434.859375 631.963867188 c 0
 424.606445312 657.928710938 402.696289062 673.180664062 383.016601562 693.1875 c 1
 383.49609375 699.032226562 371.881835938 692.608398438 371.819335938 696.57421875 c 2
 371.822265625 696.573242188 l 2
371.663085938 651.955078125 m 1
 382.81640625 639.227539062 396.647460938 626.641601562 397.421875 608.538085938 c 1
 407.9765625 581.34375 420.28125 535.484375 405.5078125 513.83984375 c 1
 396.388671875 535.796875 383.901367188 556.71875 370.694335938 572.4140625 c 1
 366.413085938 593.643554688 364.322265625 602.842773438 373.40625 623.600585938 c 0
 373.678710938 633.077148438 372.2734375 642.51171875 371.663085938 651.955078125 c 1
402.225585938 345.552734375 m 1
 412.077148438 316.322265625 427.286132812 287.814453125 436.294921875 256.852539062 c 1
 467.499023438 191.451171875 500.634765625 126.938476562 532.4453125 61.8115234375 c 0
 550.76953125 26.759765625 487.690429688 50.7763671875 475.271484375 63.474609375 c 1
 446.030273438 66.1005859375 418.546875 63.9482421875 392.387695312 79.51953125 c 0
 362.744140625 97.09765625 332.002929688 112.508789062 300.02734375 125.30859375 c 1
 286.845703125 137.733398438 267.189453125 141.74609375 253.659179688 155.661132812 c 1
 294.412109375 206.344726562 341.479492188 252.393554688 374.361328125 308.904296875 c 0
 383.15625 321.38671875 390.540039062 335.48828125 402.225585938 345.552734375 c 1
EndSplineSet
Validated: 524325
EndChar

StartChar: Eacute
Encoding: 60 201 60
Width: 524
Flags: W
HStem: -7.64453 45.9658<192.165 409.662> 451.084 34.1533<236.116 432.275> 461.603 35.7207<208.917 429.215>
VStem: 51 47.2041<158.156 412.387> 60.5518 47.9639<413.288 436.95>
LayerCount: 2
Fore
SplineSet
403.072265625 749.37890625 m 1x80
 406.991210938 762.962890625 404.58203125 733.161132812 403.072265625 749.37890625 c 1x80
173.897460938 608.790039062 m 1
 184.37890625 642.94921875 225.329101562 651.017578125 254.544921875 662.462890625 c 1
 280.276367188 677.465820312 304.178710938 695.5 329.454101562 711.415039062 c 1
 350.850585938 717.365234375 375.041992188 753.650390625 393.194335938 733.934570312 c 1
 377.25 719.206054688 356.193359375 691.9921875 329.8515625 677.881835938 c 1
 303.865234375 655.482421875 270.821289062 642.350585938 240.734375 626.333984375 c 0
 221.505859375 620.178710938 190.08203125 591.811523438 173.897460938 608.790039062 c 1
122.784179688 406.119140625 m 0
 120.859375 441.6015625 165.537109375 442.2109375 182.728515625 462.944335938 c 0
 214.268554688 494.060546875 261.12109375 490.923828125 301.681640625 497.323242188 c 0xa0
 338.6484375 500.130859375 375.666992188 492.259765625 411.799804688 485.237304688 c 0
 428.768554688 482.237304688 463.291015625 468.26171875 435.44921875 451.083984375 c 1xc0
 402.3125 449.807617188 367.297851562 462.01171875 332.697265625 461.602539062 c 0xa0
 298.989257812 463.337890625 264.559570312 459 231.452148438 452.029296875 c 0
 194.82421875 442.040039062 163.080078125 419.77734375 127.225585938 407.478515625 c 0
 126.768554688 408.399414062 122.171875 402.563476562 122.784179688 406.119140625 c 0
192.165039062 -5.9912109375 m 1
 156.151367188 -0.5302734375 121.944335938 14.7724609375 98.4208984375 43.1474609375 c 0
 75.3935546875 71.6083984375 76.2724609375 110.36328125 64.513671875 143.600585938 c 1
 58.01953125 182.359375 55.0947265625 221.596679688 51 260.627929688 c 1x90
 52.6025390625 312.860351562 54.107421875 365.473632812 60.5517578125 417.259765625 c 1
 60.5712890625 450.291015625 114.303710938 473.916992188 108.515625 427.310546875 c 0x88
 108.4296875 417.189453125 93.931640625 395.853515625 86.5908203125 413.16015625 c 1
 79.7119140625 396.413085938 113.96875 396.676757812 97.560546875 376.9296875 c 1
 94.501953125 311.794921875 93.0361328125 246.169921875 98.2041015625 181.221679688 c 1x90
 106.701171875 133.484375 155.65625 167.646484375 183.65625 174.064453125 c 0
 222.002929688 187.911132812 261.319335938 198.643554688 298.641601562 215.178710938 c 0
 314.212890625 224.125 349.209960938 220.369140625 324.572265625 200.291015625 c 0
 295.3125 181.40234375 264.623046875 163.7109375 230.430664062 155.424804688 c 0
 196.319335938 145.194335938 163.865234375 132.248046875 128.936523438 125.760742188 c 1
 101.02734375 104.362304688 132.602539062 66.1494140625 153.149414062 50.931640625 c 0
 194.845703125 22.203125 246.692382812 40.072265625 293.23046875 38.3212890625 c 0
 345.328125 40.6494140625 399.013671875 42.1982421875 447.8828125 62.458984375 c 1
 467.020507812 88.857421875 487.80859375 61.80078125 469.5234375 41.6318359375 c 0
 444.276367188 16.2255859375 406.1484375 9.265625 372.330078125 2.0478515625 c 0
 314.561523438 -6.35546875 255.833007812 -5.091796875 197.706054688 -7.64453125 c 1
 192.165039062 -5.9912109375 l 1
EndSplineSet
Validated: 524321
EndChar

StartChar: Egrave
Encoding: 61 200 61
Width: 554
Flags: W
HStem: 221.84 11.3857<341.859 347.934>
VStem: 54.3408 41.6494<193.63 341.887> 357.505 4.06348<565.784 566.218>
LayerCount: 2
Fore
SplineSet
357.504882812 565.865234375 m 1
 340.698242188 570.318359375 309.111328125 577.984375 293.076171875 596.310546875 c 1
 241.428710938 620.852539062 209.453125 672.1953125 185.3203125 721.948242188 c 0
 166.633789062 752.56640625 215.396484375 761.19140625 220.989257812 730.184570312 c 1
 249.342773438 694.279296875 270.247070312 651.89453125 306.390625 622.504882812 c 0
 320.6640625 613.420898438 343.416015625 595.599609375 352.470703125 586.328125 c 1
 370.62890625 594.346679688 363.505859375 567.30078125 361.568359375 563.973632812 c 0
 359.129882812 559.240234375 354.713867188 564.177734375 357.504882812 565.865234375 c 1
74.19140625 402.3359375 m 1
 83.06640625 419.525390625 93.837890625 457.006835938 122.659179688 440.32421875 c 1
 146.4765625 453.641601562 172.369140625 463.875976562 199.0390625 472.954101562 c 0
 239.5625 485.077148438 282.015625 485.334960938 323.776367188 488.325195312 c 0
 353.362304688 490.330078125 380.209960938 496.591796875 405.76171875 483.859375 c 0
 417.69140625 478.63671875 438.390625 458.337890625 410.5 458.759765625 c 0
 372.08203125 457.881835938 332.780273438 463.814453125 295.37109375 453.534179688 c 1
 266.821289062 451.640625 239.266601562 445.749023438 210.889648438 441.6953125 c 0
 176.901367188 440.740234375 154.705078125 410.650390625 121.419921875 409.827148438 c 1
 108.393554688 401.3984375 88.9736328125 397.715820312 74.19140625 402.3359375 c 1
229.7578125 -4.28125 m 1
 191.33203125 0.869140625 155.533203125 18.953125 123.76171875 40.376953125 c 1
 104.629882812 63.984375 86.626953125 89.5810546875 73.1064453125 116.797851562 c 0
 50.6416015625 170.58203125 44.9384765625 230.641601562 54.3408203125 288.120117188 c 0
 56.4296875 320.01953125 54.279296875 372.510742188 100.420898438 369.381835938 c 1
 106.840820312 351.685546875 94.048828125 323.650390625 95.990234375 301.583007812 c 0
 95.1943359375 265.419921875 85.9443359375 226.581054688 99.9794921875 192.005859375 c 1
 119.880859375 173.215820312 153.888671875 189.665039062 178.12109375 193.037109375 c 0
 212.833007812 197.30078125 248.364257812 199.255859375 280.69921875 213.885742188 c 1
 303.291992188 218.3359375 328.572265625 234.732421875 347.93359375 233.225585938 c 1
 345.212890625 251.725585938 373.3515625 224.913085938 353.147460938 221.83984375 c 0
 339.366210938 220.892578125 324.75 194.509765625 302.381835938 191.0859375 c 1
 271.297851562 174.010742188 235.900390625 167.938476562 201.984375 164.518554688 c 1
 171.6640625 157.065429688 139.404296875 158.981445312 109.772460938 149.155273438 c 1
 121.3671875 121.1875 131.317382812 87.9951171875 159.571289062 72.30859375 c 1
 178.584960938 50.78515625 208.551757812 42.0517578125 236.359375 38.3701171875 c 0
 289.717773438 35.8173828125 345.657226562 27.16796875 396.909179688 46.765625 c 0
 424.51953125 53.3583984375 453.333007812 64.33984375 476.784179688 78.5302734375 c 0
 488.538085938 89.4853515625 509.692382812 108.79296875 507.10546875 80.6240234375 c 1
 495.602539062 49.5966796875 462.487304688 42.66015625 440.822265625 21.833984375 c 1
 382.918945312 -8.01171875 315.495117188 -7.857421875 251.883789062 -6.181640625 c 0
 244.504882812 -5.76171875 236.978515625 -5.158203125 229.7578125 -4.28125 c 1
EndSplineSet
Validated: 524321
EndChar

StartChar: oe
Encoding: 62 339 62
Width: 999
Flags: W
HStem: 22.3662 77.4932<535.478 804.205> 169.897 71.3975<492.664 705.228>
VStem: 61.5938 59.5635<110.291 264.587>
LayerCount: 2
Fore
SplineSet
143.803710938 2.8359375 m 1
 99.7470703125 20.9462890625 70.0888671875 65.0390625 54.34375 108.606445312 c 1
 46.7822265625 144.544921875 59.7763671875 180.848632812 61.59375 216.81640625 c 1
 79.07421875 236.443359375 67.7841796875 273.615234375 95.181640625 294.5 c 1
 109.961914062 314.923828125 110.458984375 310.684570312 111.155273438 291.42578125 c 1
 125.8671875 298.266601562 149.860351562 329.291992188 149.194335938 293.40625 c 0
 144.436523438 254.834960938 122.430664062 220.251953125 121.157226562 180.69140625 c 0
 116.4375 148.1953125 120.385742188 115.12890625 134.064453125 85.345703125 c 1
 127.829101562 56.880859375 176.061523438 81.8134765625 193.583007812 66.1083984375 c 1
 220.774414062 60.029296875 264.578125 26.96484375 269.518554688 72.619140625 c 1
 300.432617188 106.499023438 334.3515625 142.83203125 343.7890625 189.323242188 c 1
 328.606445312 241.889648438 287.592773438 287.411132812 289.692382812 344.444335938 c 1
 318.103515625 372.541015625 272.301757812 419.890625 239.270507812 401.642578125 c 1
 212.37890625 376.85546875 183.133789062 361.33984375 157.419921875 336.6328125 c 1
 145.59375 318.440429688 105.5078125 319.333007812 137.331054688 335.380859375 c 1
 148.977539062 352.526367188 104.8359375 368.071289062 139.68359375 374.294921875 c 1
 147.298828125 393.755859375 161.212890625 428.46484375 186.96875 444.208007812 c 1
 215.80078125 475.846679688 264.018554688 479.892578125 299.502929688 456.701171875 c 1
 337.172851562 438.840820312 349.82421875 391.060546875 389.287109375 377.143554688 c 1
 401.154296875 341.08984375 423.71484375 366.99609375 429.065429688 390.961914062 c 1
 448.022460938 413.38671875 471.243164062 424.654296875 480.603515625 453.064453125 c 1
 504.670898438 477.896484375 541.5234375 513.239257812 576.8515625 491.223632812 c 0
 602.607421875 478.408203125 663.874023438 522.217773438 656.439453125 474.97265625 c 1
 644.869140625 454.533203125 624.120117188 465.673828125 614.265625 472.8984375 c 1
 569.270507812 449.1171875 534.0234375 410.174804688 506.984375 367.619140625 c 1
 478.592773438 342.22265625 462.203125 292.654296875 492.651367188 262.376953125 c 0
 535.819335938 226.44140625 596.89453125 235.637695312 648.5078125 241.294921875 c 0
 685.295898438 242.202148438 720.67578125 258.998046875 720.552734375 300.806640625 c 1
 733.013671875 338.81640625 733.006835938 387.0703125 701.228515625 415.770507812 c 1
 696.256835938 439.748046875 693.66796875 453.036132812 682.830078125 471.078125 c 1
 691.716796875 512.467773438 749.59765625 487.225585938 762.96484375 460.655273438 c 1
 789.197265625 434.009765625 795.33203125 397.860351562 806.829101562 365.177734375 c 1
 797.8125 328.33984375 800.379882812 289.141601562 787.427734375 253.237304688 c 0
 771.099609375 210.499023438 734.580078125 169.002929688 685.166992188 169.897460938 c 1
 623.498046875 161.1328125 558.677734375 160.905273438 500.502929688 185.946289062 c 1
 460.866210938 209.326171875 472.079101562 149.895507812 501.87109375 146.350585938 c 1
 524.459960938 114.416015625 566.331054688 116.00390625 599.120117188 99.859375 c 1
 653.474609375 93.6279296875 709.143554688 99.203125 762.771484375 109.15625 c 1
 800.401367188 123.739257812 842.31640625 122.158203125 879.12109375 139.061523438 c 1
 901.075195312 141.384765625 970.35546875 149.545898438 944.826171875 110.755859375 c 1
 909.495117188 83.1650390625 867.04296875 63.724609375 823.866210938 52.0966796875 c 0
 791.610351562 39.6240234375 759.677734375 22.173828125 722.71875 22.3662109375 c 0
 659.471679688 17.625 593.862304688 13.244140625 532.194335938 30.802734375 c 0
 498.494140625 44.10546875 465.048828125 57.2255859375 441.720703125 86.8642578125 c 1
 424.854492188 100.682617188 394.298828125 148.870117188 386.462890625 105.890625 c 1
 364.40234375 80.6396484375 330.296875 68.0908203125 306.416992188 47.1044921875 c 1
 342.5078125 31.154296875 276.578125 9.404296875 259.939453125 8.8642578125 c 0
 225.864257812 16.0595703125 199.147460938 -5.7783203125 165.5703125 -0.8662109375 c 0
 158.251953125 -0.0947265625 150.890625 1.2587890625 143.807617188 2.837890625 c 2
 143.803710938 2.8359375 l 1
EndSplineSet
Validated: 524321
EndChar

StartChar: ae
Encoding: 63 230 63
Width: 994
Flags: W
HStem: 23.123 77.001<532.015 799.421> 169.717 70.9434<489.862 701.073>
VStem: 61.5322 59.1855<110.49 264.3>
LayerCount: 2
Fore
SplineSet
143.219726562 3.71875 m 1
 99.443359375 21.712890625 69.9736328125 65.525390625 54.3291015625 108.815429688 c 1
 46.8154296875 144.525390625 59.7265625 180.59765625 61.5322265625 216.336914062 c 1
 78.90234375 235.83984375 67.68359375 272.774414062 94.90625 293.526367188 c 1
 109.592773438 313.821289062 110.086914062 309.608398438 110.779296875 290.47265625 c 1
 125.397460938 297.26953125 149.237304688 328.096679688 148.576171875 292.440429688 c 0
 143.848632812 254.114257812 121.982421875 219.750976562 120.717773438 180.442382812 c 0
 116.028320312 148.15234375 119.950195312 115.296875 133.54296875 85.703125 c 1
 127.346679688 57.4189453125 175.272460938 82.193359375 192.682617188 66.587890625 c 1
 219.701171875 60.5478515625 263.2265625 27.693359375 268.134765625 73.056640625 c 1
 298.852539062 106.721679688 332.555664062 142.82421875 341.932617188 189.01953125 c 1
 326.846679688 241.250976562 286.09375 286.483398438 288.180664062 343.153320312 c 1
 316.411132812 371.071289062 270.900390625 418.120117188 238.080078125 399.987304688 c 1
 211.358398438 375.358398438 182.299804688 359.94140625 156.749023438 335.391601562 c 1
 144.998046875 317.314453125 105.16796875 318.201171875 136.788085938 334.147460938 c 1
 148.360351562 351.184570312 104.5 366.629882812 139.125976562 372.814453125 c 1
 146.692382812 392.151367188 160.518554688 426.639648438 186.110351562 442.282226562 c 1
 214.758789062 473.720703125 262.670898438 477.739257812 297.928710938 454.696289062 c 1
 335.358398438 436.94921875 347.930664062 389.473632812 387.141601562 375.64453125 c 1
 398.932617188 339.8203125 421.350585938 365.5625 426.666992188 389.375 c 1
 445.50390625 411.657226562 468.576171875 422.853515625 477.876953125 451.08203125 c 1
 501.791992188 475.756835938 538.41015625 510.874023438 573.513671875 488.999023438 c 0
 599.10546875 476.265625 659.982421875 519.795898438 652.595703125 472.8515625 c 1
 641.098632812 452.541992188 620.481445312 463.611328125 610.688476562 470.790039062 c 1
 565.98046875 447.161132812 530.95703125 408.465820312 504.090820312 366.180664062 c 1
 475.879882812 340.946289062 459.59375 291.693359375 489.848632812 261.608398438 c 0
 532.7421875 225.900390625 593.428710938 235.0390625 644.713867188 240.66015625 c 0
 681.267578125 241.561523438 716.422851562 258.250976562 716.30078125 299.793945312 c 1
 728.682617188 337.561523438 728.674804688 385.508789062 697.099609375 414.025390625 c 1
 692.159179688 437.850585938 689.586914062 451.0546875 678.817382812 468.982421875 c 1
 687.647460938 510.108398438 745.16015625 485.026367188 758.442382812 458.625 c 1
 784.508789062 432.149414062 790.603515625 396.229492188 802.028320312 363.754882812 c 1
 793.068359375 327.151367188 795.619140625 288.202148438 782.75 252.52734375 c 0
 766.525390625 210.059570312 730.239257812 168.828125 681.139648438 169.716796875 c 1
 619.862304688 161.0078125 555.455078125 160.782226562 497.650390625 185.6640625 c 1
 458.265625 208.895507812 469.407226562 149.841796875 499.009765625 146.3203125 c 1
 521.455078125 114.587890625 563.059570312 116.166015625 595.640625 100.124023438 c 1
 649.6484375 93.9326171875 704.963867188 99.4716796875 758.250976562 109.361328125 c 1
 795.641601562 123.852539062 837.290039062 122.28125 873.860351562 139.077148438 c 1
 895.674804688 141.385742188 964.514648438 149.495117188 939.147460938 110.952148438 c 1
 904.041015625 83.5361328125 861.858398438 64.21875 818.956054688 52.6650390625 c 0
 786.90625 40.2724609375 755.176757812 22.9326171875 718.452148438 23.123046875 c 0
 655.607421875 18.4130859375 590.416015625 14.0595703125 529.139648438 31.5068359375 c 0
 495.654296875 44.7255859375 462.420898438 57.76171875 439.241210938 87.2119140625 c 1
 422.483398438 100.942382812 392.122070312 148.823242188 384.334960938 106.1171875 c 1
 362.415039062 81.0263671875 328.52734375 68.5576171875 304.798828125 47.705078125 c 1
 340.66015625 31.85546875 275.149414062 10.2451171875 258.616210938 9.7080078125 c 0
 224.758789062 16.857421875 198.2109375 -4.841796875 164.84765625 0.0390625 c 0
 157.576171875 0.8056640625 150.26171875 2.150390625 143.223632812 3.7197265625 c 2
 143.219726562 3.71875 l 1
EndSplineSet
Validated: 524321
EndChar

